# Blender 3.6.4
# www.blender.org
mtllib herobrine_leftleg.mtl
o Cube.005
v -0.125000 -0.750000 0.125000
v -0.125000 0.000000 0.125000
v -0.125000 -0.750000 -0.125000
v -0.125000 0.000000 -0.125000
v 0.125000 -0.750000 0.125000
v 0.125000 0.000000 0.125000
v 0.125000 -0.750000 -0.125000
v 0.125000 0.000000 -0.125000
vn -1.0000 -0.0000 -0.0000
vn -0.0000 -0.0000 -1.0000
vn 1.0000 -0.0000 -0.0000
vn -0.0000 -0.0000 1.0000
vn -0.0000 -1.0000 -0.0000
vn -0.0000 1.0000 -0.0000
vt 0.071429 0.000000
vt 0.071429 0.375000
vt 0.000000 0.375000
vt 0.000000 0.000000
vt 0.285714 -0.000000
vt 0.285714 0.375000
vt 0.214286 0.375000
vt 0.214286 -0.000000
vt 0.142857 0.375000
vt 0.142857 -0.000000
vt 0.214286 0.500000
vt 0.142857 0.500000
vt 0.071429 0.500000
s 0
usemtl Herobrine
f 1/1/1 2/2/1 4/3/1 3/4/1
f 3/5/2 4/6/2 8/7/2 7/8/2
f 7/8/3 8/7/3 6/9/3 5/10/3
f 5/10/4 6/9/4 2/2/4 1/1/4
f 3/11/5 7/12/5 5/9/5 1/7/5
f 8/12/6 4/13/6 2/2/6 6/9/6
