# Blender 3.6.4
# www.blender.org
mtllib ak47_gun.mtl
o Cube
v -0.025000 0.093750 0.484375
v -0.025000 0.125000 0.484375
v -0.025000 0.093750 0.453125
v -0.025000 0.125000 0.453125
v 0.025000 0.093750 0.484375
v 0.025000 0.125000 0.484375
v 0.025000 0.093750 0.453125
v 0.025000 0.125000 0.453125
v -0.007812 0.203125 1.335938
v -0.007812 0.296875 1.335938
v -0.007812 0.203125 1.289062
v -0.007812 0.296875 1.320312
v 0.007812 0.203125 1.335938
v 0.007812 0.296875 1.335938
v 0.007812 0.203125 1.289062
v 0.007812 0.296875 1.320312
v -0.015625 0.179688 1.359375
v -0.015625 0.195312 1.359375
v 0.015625 0.179688 1.359375
v 0.015625 0.195312 1.359375
v -0.015625 0.179688 0.968750
v -0.015625 0.195313 0.968750
v 0.015625 0.179688 0.968750
v 0.015625 0.195313 0.968750
v -0.007812 0.171875 1.359375
v 0.007812 0.171875 1.359375
v -0.007812 0.171875 0.968750
v 0.007812 0.171875 0.968750
v -0.007812 0.203125 0.968750
v 0.007812 0.203125 0.968750
v -0.007812 0.203125 1.359375
v 0.007812 0.203125 1.359375
v 0.009375 0.206250 1.171875
v -0.009375 0.206250 1.171875
v 0.009375 0.206250 1.109374
v -0.009375 0.206250 1.109374
v 0.009375 0.168750 1.109374
v -0.009375 0.168750 1.109374
v 0.009375 0.168750 1.171875
v -0.009375 0.168750 1.171875
v 0.018750 0.196875 1.109374
v 0.018750 0.178125 1.109374
v -0.018750 0.196875 1.109374
v -0.018750 0.178125 1.109374
v 0.018750 0.196875 1.171875
v 0.018750 0.178125 1.171875
v -0.018750 0.196875 1.171875
v -0.018750 0.178125 1.171875
v -0.015625 0.242188 1.109375
v -0.015625 0.257812 1.109375
v 0.015625 0.242188 1.109375
v 0.015625 0.257812 1.109375
v -0.015625 0.242188 0.968750
v -0.015625 0.257813 0.968750
v 0.015625 0.242188 0.968750
v 0.015625 0.257813 0.968750
v -0.007812 0.234375 1.109375
v 0.007812 0.234375 1.109375
v -0.007812 0.234375 0.968750
v 0.007812 0.234375 0.968750
v -0.007812 0.265625 0.968750
v 0.007812 0.265625 0.968750
v -0.007812 0.265625 1.109375
v 0.007812 0.265625 1.109375
v 0.009375 0.268750 1.156250
v -0.009375 0.268750 1.156250
v 0.009375 0.268750 1.109374
v -0.009375 0.268750 1.109374
v 0.009375 0.231250 1.109374
v -0.009375 0.231250 1.109374
v 0.009375 0.231250 1.171875
v -0.009375 0.231250 1.171875
v 0.018750 0.259375 1.109374
v 0.018750 0.240625 1.109374
v -0.018750 0.259375 1.109374
v -0.018750 0.240625 1.109374
v 0.018750 0.259375 1.171875
v 0.018750 0.240625 1.171875
v -0.018750 0.259375 1.171875
v -0.018750 0.240625 1.171875
v -0.009375 0.206250 1.171875
v -0.009375 0.231250 1.171875
v -0.009375 0.206250 1.109375
v -0.009375 0.231250 1.109375
v 0.009375 0.206250 1.171875
v 0.009375 0.231250 1.171875
v 0.009375 0.206250 1.109375
v 0.009375 0.231250 1.109375
v 0.023438 -0.054688 0.187501
v 0.031250 0.000000 0.210938
v -0.031250 0.000000 0.210938
v 0.023438 0.125000 0.328125
v -0.023438 0.125000 0.328125
v -0.023438 0.000000 0.203125
v 0.023437 0.000000 0.203125
v -0.031250 0.132812 0.320312
v 0.031250 0.132812 0.320312
v 0.031250 0.132812 0.226563
v -0.031250 0.132813 0.226563
v 0.031250 -0.054688 0.289061
v -0.031250 -0.054688 0.289061
v -0.023438 -0.062500 0.289061
v 0.023438 -0.054688 0.296874
v -0.023438 -0.054688 0.296874
v 0.031250 -0.054688 0.195314
v -0.031250 -0.054688 0.195314
v -0.023438 -0.062500 0.195314
v 0.031250 0.093750 0.242188
v -0.031250 0.093750 0.242188
v -0.023438 0.093750 0.234375
v -0.031250 0.117187 0.226563
v 0.031250 0.117187 0.226563
v -0.023438 0.125000 0.218751
v -0.023438 -0.054688 0.187501
v 0.023438 -0.062500 0.289061
v 0.023438 -0.062500 0.195314
v 0.023438 0.093750 0.234375
v 0.023438 0.125000 0.218751
v -0.023438 0.195312 0.203125
v 0.023438 0.195312 0.203125
v -0.023438 0.250000 0.718749
v 0.023438 0.250000 0.718749
v -0.031250 0.250000 0.710937
v 0.031250 0.250000 0.710937
v 0.023438 0.257812 0.710937
v -0.023438 0.257812 0.710937
v -0.031250 0.195312 0.210938
v 0.031250 0.195312 0.210938
v 0.023438 0.257812 0.257812
v -0.023438 0.257812 0.257812
v -0.023438 0.132812 0.718749
v 0.023438 0.132812 0.203125
v 0.023438 0.125000 0.421875
v -0.023438 0.125000 0.421875
v -0.023438 0.125000 0.515625
v 0.023438 0.125000 0.515625
v -0.023438 0.132812 0.203125
v -0.023438 0.125000 0.546875
v 0.023438 0.125000 0.546875
v 0.031250 0.132812 0.546875
v -0.023438 0.125000 0.710937
v 0.023438 0.125000 0.710937
v -0.023438 0.125000 0.210938
v 0.031250 0.132813 0.710937
v -0.031250 0.132812 0.710937
v -0.031250 0.132812 0.546875
v -0.031250 0.132812 0.414062
v 0.031250 0.132812 0.414062
v 0.031250 0.132812 0.210938
v -0.031250 0.132812 0.210938
v 0.031250 0.132812 0.335938
v -0.031250 0.132813 0.335938
v -0.023438 0.125000 0.328125
v 0.023438 0.125000 0.210938
v 0.023438 0.132813 0.718749
v 0.023438 0.125000 0.328125
v -0.031250 0.250000 0.257812
v 0.031250 0.250000 0.257812
v 0.023438 0.078125 0.312500
v -0.023438 0.078125 0.312500
v 0.023438 0.062500 0.421875
v -0.023438 0.062500 0.421875
v -0.023438 0.125000 0.421875
v 0.023438 0.125000 0.421875
v -0.023438 0.062500 0.453125
v -0.023438 0.125000 0.453125
v 0.023438 0.125000 0.453125
v 0.023438 0.031250 0.343750
v 0.023438 0.054687 0.312500
v -0.023438 0.031250 0.421875
v -0.023438 0.031250 0.343750
v -0.023438 0.054687 0.312500
v -0.023438 0.125000 0.234375
v 0.023438 0.062500 0.453125
v 0.023438 0.031250 0.421875
v -0.023438 0.062500 0.343750
v 0.023438 0.062500 0.343750
v -0.023438 0.156250 0.960938
v -0.031250 0.164062 0.968750
v 0.031250 0.164062 0.968750
v 0.023437 0.156250 0.960938
v -0.023438 0.125000 0.726562
v -0.031250 0.132812 0.718750
v 0.023437 0.125000 0.726562
v 0.031250 0.132812 0.718750
v -0.031250 0.210937 0.968750
v -0.023438 0.218750 0.960938
v 0.031250 0.210937 0.968750
v 0.023437 0.218750 0.960938
v -0.023438 0.218750 0.726562
v -0.031250 0.210937 0.718750
v 0.031250 0.210937 0.718750
v 0.023437 0.218750 0.726562
v -0.031250 0.218750 0.796875
v -0.031250 0.281250 0.796875
v -0.031250 0.218750 0.703125
v -0.031250 0.281250 0.703125
v 0.031250 0.218750 0.796875
v 0.031250 0.281250 0.796875
v 0.031250 0.218750 0.703125
v 0.031250 0.281250 0.703125
v 0.007812 0.281250 0.718750
v 0.007812 0.296875 0.718750
v 0.007812 0.281250 0.703125
v 0.007812 0.296875 0.703125
v 0.023438 0.281250 0.718750
v 0.023438 0.296875 0.718750
v 0.023438 0.281250 0.703125
v 0.023438 0.296875 0.703125
v -0.023438 0.281250 0.718750
v -0.023438 0.296875 0.718750
v -0.023438 0.281250 0.703125
v -0.023438 0.296875 0.703125
v -0.007812 0.281250 0.718750
v -0.007812 0.296875 0.718750
v -0.007812 0.281250 0.703125
v -0.007812 0.296875 0.703125
v 0.023438 0.281250 0.960938
v 0.031250 0.273438 0.968750
v -0.031250 0.273438 0.968750
v -0.023437 0.281250 0.960938
v 0.023438 0.281250 0.804687
v 0.031250 0.273438 0.796874
v -0.023437 0.281250 0.804687
v -0.031250 0.273438 0.796874
v 0.031250 0.234375 0.968750
v 0.023438 0.226562 0.960938
v -0.031250 0.234375 0.968750
v -0.023437 0.226562 0.960938
v 0.023438 0.226562 0.804687
v 0.031250 0.234375 0.796874
v -0.031250 0.234375 0.796874
v -0.023437 0.226562 0.804687
v -0.025000 0.156250 0.609375
v 0.025000 0.156250 0.609375
v -0.025000 0.101381 0.614779
v 0.025000 0.101381 0.614779
v -0.025000 0.048620 0.630784
v 0.025000 0.048620 0.630784
v -0.025000 -0.000004 0.656774
v 0.025000 -0.000004 0.656774
v -0.025000 -0.042624 0.691751
v 0.025000 -0.042624 0.691751
v -0.025000 -0.077601 0.734371
v 0.025000 -0.077601 0.734371
v -0.025000 -0.103591 0.782995
v 0.025000 -0.103591 0.782995
v -0.025000 0.156250 0.484375
v 0.025000 0.156250 0.484375
v -0.025000 0.076995 0.492181
v 0.025000 0.076995 0.492181
v -0.025000 0.000785 0.515299
v 0.025000 0.000785 0.515299
v -0.025000 -0.069450 0.552840
v 0.025000 -0.069450 0.552840
v -0.025000 -0.131012 0.603363
v 0.025000 -0.131012 0.603363
v -0.025000 -0.181534 0.664925
v 0.025000 -0.181535 0.664925
v -0.025000 -0.219076 0.735160
v 0.025000 -0.219076 0.735160
vn -1.0000 -0.0000 -0.0000
vn -0.0000 -0.0000 -1.0000
vn 1.0000 -0.0000 -0.0000
vn -0.0000 -0.0000 1.0000
vn -0.0000 -1.0000 -0.0000
vn -0.0000 1.0000 -0.0000
vn -0.0000 0.3162 -0.9487
vn 0.7071 0.7071 -0.0000
vn 0.7071 -0.7071 -0.0000
vn -0.7071 -0.7071 -0.0000
vn -0.7071 0.7071 -0.0000
vn -0.0000 0.8575 0.5145
vn -0.0000 -0.4472 -0.8944
vn -0.0000 -0.7071 0.7071
vn -0.5773 -0.5774 0.5773
vn 0.7071 -0.0000 -0.7071
vn -0.6883 0.2294 -0.6882
vn -0.6931 0.1980 -0.6931
vn -0.7305 -0.1146 0.6732
vn 0.5773 -0.5774 0.5773
vn -0.5774 -0.5774 -0.5773
vn 0.6882 0.2294 -0.6882
vn -0.5271 -0.4216 -0.7379
vn 0.5271 -0.4216 -0.7379
vn -0.7071 -0.0000 -0.7071
vn 0.6931 0.1980 -0.6931
vn 0.5774 -0.5774 -0.5773
vn -0.0000 0.2747 -0.9615
vn -0.0000 -0.7071 -0.7071
vn 0.7305 -0.1146 0.6732
vn -0.0000 -0.1713 0.9852
vn -0.7071 -0.0000 0.7071
vn 0.5773 0.5773 0.5774
vn -0.5764 0.5352 -0.6175
vn 0.5764 0.5352 -0.6175
vn -0.5773 0.5773 0.5774
vn 0.5773 -0.5774 -0.5773
vn 0.7071 -0.0000 0.7071
vn 0.5774 -0.5774 0.5773
vn -0.5773 -0.5773 0.5774
vn -0.5773 -0.5774 -0.5773
vn -0.0000 0.6585 -0.7526
vn -0.0000 0.7071 0.7071
vn -0.0000 0.8944 0.4472
vn -0.0000 -0.8000 -0.6000
vn -0.0000 -0.9912 0.1322
vn -0.7042 -0.7042 0.0909
vn 0.7042 -0.7042 0.0909
vn -0.0000 0.7071 -0.7071
vn -0.0000 0.0980 0.9952
vn -0.0000 0.2903 0.9569
vn -0.0000 0.4714 0.8819
vn -0.0000 0.6344 0.7730
vn -0.0000 0.7730 0.6344
vn -0.0000 0.8819 0.4714
vn -0.0000 -0.0980 -0.9952
vn -0.0000 -0.2903 -0.9569
vn -0.0000 -0.4714 -0.8819
vn -0.0000 -0.6344 -0.7730
vn -0.0000 -0.7730 -0.6344
vn -0.0000 -0.8819 -0.4714
vn -0.0000 -0.3827 0.9239
vt 0.375000 0.000000
vt 0.625000 0.000000
vt 0.625000 0.250000
vt 0.375000 0.250000
vt 0.625000 0.500000
vt 0.375000 0.500000
vt 0.625000 0.750000
vt 0.375000 0.750000
vt 0.625000 1.000000
vt 0.375000 1.000000
vt 0.125000 0.500000
vt 0.125000 0.750000
vt 0.875000 0.500000
vt 0.875000 0.750000
vt 0.687500 0.500000
vt 0.687500 0.750000
vt 0.562500 0.750000
vt 0.562500 0.500000
vt 0.312500 0.500000
vt 0.437500 0.500000
vt 0.437500 0.750000
vt 0.312500 0.750000
vt 0.437500 0.000000
vt 0.562500 0.000000
vt 0.562500 0.250000
vt 0.437500 0.250000
vt 0.812500 0.500000
vt 0.812500 0.750000
vt 0.437500 1.000000
vt 0.375000 0.937500
vt 0.375000 0.812500
vt 0.625000 0.812500
vt 0.625000 0.937500
vt 0.562500 1.000000
vt 0.187500 0.750000
vt 0.187500 0.500000
vt 0.625000 0.312500
vt 0.625000 0.437500
vt 0.375000 0.437500
vt 0.375000 0.312500
vt 0.625000 0.531250
vt 0.000000 0.000000
vt 0.583424 0.531250
vt 0.500000 0.531250
vt 0.417122 0.354554
vt 0.218082 0.669245
vt 0.218082 0.590532
vt 0.500000 0.750000
vt 0.583424 0.750000
vt 0.218082 0.750000
vt 0.218082 0.500000
vt 0.500000 0.500000
vt 0.420259 0.579800
vt 0.302292 0.500000
vt 0.302292 0.590532
vt 0.302292 0.669245
vt 0.302292 0.750000
vt 0.583424 0.500000
vt 0.420259 0.644263
vt 0.120317 0.071784
vt 0.450675 0.381960
vt 0.120317 0.107676
vt 0.864907 0.964897
vt 0.609402 0.486765
vt 0.375000 0.531250
vt 0.539061 0.427082
vt 0.609402 0.730148
vt 0.042928 0.142918
vt 0.550071 0.654636
vt 0.964897 0.864907
vt 0.447239 0.754067
vt 0.367399 0.531250
vt 0.192324 0.500000
vt 0.260422 0.500000
vt 0.260422 0.750000
vt 0.192324 0.750000
vt 0.345720 0.271922
vt 0.436785 0.407950
vt 0.345939 0.709686
vt 0.375000 0.932676
vt 0.443966 0.842417
vt 0.438154 0.999321
vt 0.437667 0.251292
vt 0.436290 0.495894
vt 0.170657 0.531250
vt 0.125000 0.531250
vt 0.697524 0.500000
vt 0.704136 0.750000
vt 0.552476 0.500000
vt 0.375000 0.218750
vt 0.625000 0.218750
vt 0.375000 0.717167
vt 0.545864 0.750000
vt 0.125000 0.717167
vt 0.375000 0.781250
vt 0.625000 0.781250
vt 0.625000 0.980114
vt 0.375000 0.980114
vt 0.656250 0.500000
vt 0.855114 0.500000
vt 0.855114 0.750000
vt 0.656250 0.750000
vt 0.375000 0.269886
vt 0.625000 0.269886
vt 0.625000 0.468750
vt 0.375000 0.468750
vt 0.406250 0.507813
vt 0.593750 0.507812
vt 0.593750 0.742188
vt 0.406250 0.742188
vt 0.343750 0.750000
vt 0.343750 0.500000
vt 0.406250 0.007812
vt 0.593750 0.007812
vt 0.593750 0.242188
vt 0.406250 0.242188
vt 0.144886 0.500000
vt 0.144886 0.750000
vt 0.625000 0.963542
vt 0.375000 0.963542
vt 0.838542 0.500000
vt 0.838542 0.750000
vt 0.375000 0.286458
vt 0.625000 0.286458
vt 0.406250 0.011364
vt 0.593750 0.011364
vt 0.593750 0.238636
vt 0.406250 0.238636
vt 0.161458 0.500000
vt 0.161458 0.750000
vt 1.000000 0.500000
vt 0.968750 0.500000
vt 0.968750 1.000000
vt 1.000000 1.000000
vt 0.937500 0.500000
vt 0.937500 1.000000
vt 0.906250 0.500000
vt 0.906250 1.000000
vt 0.875000 1.000000
vt 0.843750 0.500000
vt 0.843750 1.000000
vt 0.812500 1.000000
s 0
usemtl Steel
f 1/1/1 2/2/1 4/3/1 3/4/1
f 3/4/2 4/3/2 8/5/2 7/6/2
f 7/6/3 8/5/3 6/7/3 5/8/3
f 5/8/4 6/7/4 2/9/4 1/10/4
f 3/11/5 7/6/5 5/8/5 1/12/5
f 8/5/6 4/13/6 2/14/6 6/7/6
f 9/1/1 10/2/1 12/3/1 11/4/1
f 11/4/7 12/3/7 16/5/7 15/6/7
f 15/6/3 16/5/3 14/7/3 13/8/3
f 13/8/4 14/7/4 10/9/4 9/10/4
f 11/11/5 15/6/5 13/8/5 9/12/5
f 16/5/6 12/13/6 10/14/6 14/7/6
f 30/15/8 32/16/8 20/17/8 24/18/8
f 28/19/9 23/20/9 19/21/9 26/22/9
f 17/23/1 18/24/1 22/25/1 21/26/1
f 29/27/6 31/28/6 32/16/6 30/15/6
f 17/29/4 25/30/4 26/31/4 19/21/4 20/17/4 32/32/4 31/33/4 18/34/4
f 25/35/10 17/23/10 21/26/10 27/36/10
f 22/25/2 29/37/2 30/38/2 24/18/2 23/20/2 28/39/2 27/40/2 21/26/2
f 23/20/3 24/18/3 20/17/3 19/21/3
f 18/24/11 31/28/11 29/27/11 22/25/11
f 27/36/5 28/19/5 26/22/5 25/35/5
f 47/24/11 34/28/11 36/27/11 43/25/11
f 42/20/3 41/18/3 45/17/3 46/21/3
f 43/25/2 36/37/2 35/38/2 41/18/2 42/20/2 37/39/2 38/40/2 44/26/2
f 40/35/10 48/23/10 44/26/10 38/36/10
f 48/29/4 40/30/4 39/31/4 46/21/4 45/17/4 33/32/4 34/33/4 47/34/4
f 36/27/6 34/28/6 33/16/6 35/15/6
f 48/23/1 47/24/1 43/25/1 44/26/1
f 37/19/9 42/20/9 46/21/9 39/22/9
f 35/15/8 33/16/8 45/17/8 41/18/8
f 38/36/5 37/19/5 39/22/5 40/35/5
f 62/15/8 64/16/8 52/17/8 56/18/8
f 60/19/9 55/20/9 51/21/9 58/22/9
f 49/23/1 50/24/1 54/25/1 53/26/1
f 61/27/6 63/28/6 64/16/6 62/15/6
f 57/35/10 49/23/10 53/26/10 59/36/10
f 54/25/2 61/37/2 62/38/2 56/18/2 55/20/2 60/39/2 59/40/2 53/26/2
f 55/20/3 56/18/3 52/17/3 51/21/3
f 50/24/11 63/28/11 61/27/11 54/25/11
f 59/36/5 60/19/5 58/22/5 57/35/5
f 79/24/11 66/28/11 68/27/11 75/25/11
f 74/20/3 73/18/3 77/17/3 78/21/3
f 75/25/2 68/37/2 67/38/2 73/18/2 74/20/2 69/39/2 70/40/2 76/26/2
f 72/35/10 80/23/10 76/26/10 70/36/10
f 79/24/12 77/17/12 65/16/12 66/28/12
f 68/27/6 66/28/6 65/16/6 67/15/6
f 80/23/1 79/24/1 75/25/1 76/26/1
f 69/19/9 74/20/9 78/21/9 71/22/9
f 67/15/8 65/16/8 77/17/8 73/18/8
f 70/36/5 69/19/5 71/22/5 72/35/5
f 77/17/4 79/24/4 80/23/4 72/35/4 71/22/4 78/21/4
f 81/1/1 82/2/1 84/3/1 83/4/1
f 83/4/2 84/3/2 88/5/2 87/6/2
f 87/6/3 88/5/3 86/7/3 85/8/3
f 85/8/4 86/7/4 82/9/4 81/10/4
f 83/11/5 87/6/5 85/8/5 81/12/5
f 88/5/6 84/13/6 82/14/6 86/7/6
f 123/60/32 145/42/32 131/61/32 121/42/32
f 122/42/33 124/62/33 125/63/33
f 127/64/25 119/42/25 137/65/25 150/42/25
f 127/64/34 157/66/34 130/42/34 119/42/34
f 128/67/35 120/42/35 129/68/35 158/69/35
f 123/60/36 121/42/36 126/70/36
f 124/62/8 158/69/8 129/68/8 125/63/8
f 149/71/37 154/72/37 132/65/37
f 120/42/2 132/65/2 137/65/2 119/42/2
f 135/73/5 134/74/5 133/75/5 136/76/5
f 134/74/10 135/5/10 141/42/10 145/42/10 146/77/10 147/78/10
f 124/62/38 122/42/38 155/61/38 144/42/38
f 153/42/10 152/42/10 150/42/10 143/42/10
f 140/79/9 144/42/9 142/42/9 136/80/9 133/75/9 148/81/9
f 128/67/16 149/42/16 132/65/16 120/42/16
f 144/82/39 155/61/39 142/42/39
f 145/83/40 141/42/40 131/61/40
f 131/61/4 155/61/4 122/42/4 121/42/4
f 150/84/41 137/65/41 143/72/41
f 144/42/3 149/42/3 128/67/3 158/69/3 124/62/3
f 154/42/9 149/42/9 151/42/9 156/42/9
f 123/60/11 126/70/11 130/42/11 157/66/11
f 150/42/1 145/42/1 123/60/1 157/66/1 127/64/1
f 143/72/5 154/72/5 156/43/5 153/45/5
f 138/85/5 139/85/5 142/86/5 141/86/5
f 120/42/42 119/42/42 130/42/42 129/68/42
f 125/63/43 126/70/43 121/42/43 122/42/43
f 155/61/14 131/61/14 141/86/14 142/42/14
f 154/72/29 143/72/29 137/65/29 132/65/29
f 126/70/6 125/63/6 129/42/6 130/42/6
f 152/42/10 153/42/10 134/74/10 147/78/10
f 133/75/5 134/74/5 153/45/5 156/43/5
f 133/75/9 156/43/9 151/42/9 148/81/9
f 139/85/5 138/85/5 135/73/5 136/76/5
f 160/5/44 176/87/44 177/88/44 159/7/44
f 162/6/2 163/5/2 164/7/2 161/8/2
f 162/6/1 176/89/1 160/5/1 172/6/1 171/6/1 170/42/1 165/90/1 166/91/1 163/5/1
f 174/90/4 167/91/4 166/91/4 165/90/4
f 175/42/3 168/92/3 169/92/3 159/7/3 177/93/3 161/8/3 164/7/3 167/91/3 174/90/3
f 171/6/5 168/92/5 175/94/5 170/11/5
f 170/42/14 175/94/14 174/90/14 165/90/14
f 168/92/45 171/6/45 172/6/45 169/92/45
f 177/88/6 176/87/6 162/13/6 161/14/6
f 194/1/1 195/2/1 197/3/1 196/4/1
f 196/4/2 197/3/2 201/5/2 200/6/2
f 200/6/3 201/5/3 199/7/3 198/8/3
f 198/8/4 199/7/4 195/9/4 194/10/4
f 196/11/5 200/6/5 198/8/5 194/12/5
f 201/5/6 197/13/6 195/14/6 199/7/6
f 202/1/1 203/2/1 205/3/1 204/4/1
f 204/4/2 205/3/2 209/5/2 208/6/2
f 208/6/3 209/5/3 207/7/3 206/8/3
f 206/8/4 207/7/4 203/9/4 202/10/4
f 204/11/5 208/6/5 206/8/5 202/12/5
f 209/5/6 205/13/6 203/14/6 207/7/6
f 210/1/1 211/2/1 213/3/1 212/4/1
f 212/4/2 213/3/2 217/5/2 216/6/2
f 216/6/3 217/5/3 215/7/3 214/8/3
f 214/8/4 215/7/4 211/9/4 210/10/4
f 212/11/5 216/6/5 214/8/5 210/12/5
f 217/5/6 213/13/6 211/14/6 215/7/6
f 234/131/50 236/132/50 237/133/50 235/134/50
f 236/132/51 238/135/51 239/136/51 237/133/51
f 238/135/52 240/137/52 241/138/52 239/136/52
f 240/137/53 242/13/53 243/139/53 241/138/53
f 242/13/54 244/140/54 245/141/54 243/139/54
f 244/140/55 246/27/55 247/142/55 245/141/55
f 248/131/56 249/134/56 251/133/56 250/132/56
f 250/132/57 251/133/57 253/136/57 252/135/57
f 252/135/58 253/136/58 255/138/58 254/137/58
f 254/137/59 255/138/59 257/139/59 256/13/59
f 256/13/60 257/139/60 259/141/60 258/140/60
f 258/140/61 259/141/61 261/142/61 260/27/61
f 246/27/62 260/27/62 261/142/62 247/142/62
f 236/132/1 234/131/1 248/131/1 250/132/1 252/135/1 254/137/1 256/13/1 258/140/1 260/27/1 246/27/1 244/140/1 242/13/1 240/137/1 238/135/1
f 235/134/3 237/133/3 239/136/3 241/138/3 243/139/3 245/141/3 247/142/3 261/142/3 259/141/3 257/139/3 255/138/3 253/136/3 251/133/3 249/134/3
usemtl Wood
f 95/41/7 94/41/7 110/42/7 117/42/7
f 118/43/13 117/44/13 110/42/13 113/45/13
f 115/46/14 103/42/14 104/42/14 102/47/14
f 108/48/3 112/49/3 98/42/3 97/42/3 100/50/3 105/42/3 90/7/3
f 102/47/15 104/42/15 101/51/15
f 112/49/16 118/43/16 98/42/16
f 94/41/17 91/42/17 109/52/17 110/42/17
f 94/41/18 114/53/18 106/54/18 91/42/18
f 93/42/19 96/42/19 101/51/19 104/42/19
f 100/50/20 103/42/20 115/46/20
f 114/53/21 107/55/21 106/54/21
f 101/51/10 106/54/10 107/55/10 102/47/10
f 115/46/9 116/56/9 105/57/9 100/50/9
f 90/7/22 95/41/22 117/44/22 108/48/22
f 109/52/23 111/58/23 113/43/23 110/44/23
f 117/44/24 118/43/24 112/49/24 108/48/24
f 113/43/25 111/58/25 99/42/25
f 96/42/1 99/42/1 111/58/1 109/42/1 91/42/1 106/54/1 101/51/1
f 95/41/26 90/7/26 105/42/26 89/59/26
f 89/59/27 105/42/27 116/56/27
f 94/41/28 95/41/28 89/59/28 114/53/28
f 107/55/5 116/56/5 115/46/5 102/47/5
f 116/56/29 107/55/29 114/53/29 89/59/29
f 92/42/30 103/42/30 100/50/30 97/42/30
f 104/42/31 103/42/31 92/42/31 93/42/31
f 179/95/4 180/96/4 188/97/4 186/98/4
f 185/99/3 192/100/3 188/101/3 180/102/3
f 191/103/2 192/104/2 185/105/2 183/106/2
f 182/107/46 184/108/46 181/109/46 178/110/46
f 184/108/29 182/107/29 183/106/29 185/105/29
f 179/111/47 183/112/47 182/107/47 178/110/47
f 185/99/48 180/102/48 181/109/48 184/108/48
f 180/96/14 179/95/14 178/110/14 181/109/14
f 187/113/6 189/114/6 193/115/6 190/116/6
f 191/4/11 186/1/11 187/113/11 190/116/11
f 186/1/43 188/2/43 189/114/43 187/113/43
f 188/2/8 192/3/8 193/115/8 189/114/8
f 192/104/49 191/103/49 190/116/49 193/115/49
f 191/117/1 183/112/1 179/111/1 186/118/1
f 219/95/4 220/96/4 228/119/4 226/120/4
f 225/99/1 232/121/1 228/122/1 220/102/1
f 231/123/2 232/124/2 225/105/2 223/106/2
f 222/107/6 224/108/6 221/109/6 218/110/6
f 224/108/49 222/107/49 223/106/49 225/105/49
f 219/111/8 223/112/8 222/107/8 218/110/8
f 225/99/11 220/102/11 221/109/11 224/108/11
f 220/96/43 219/95/43 218/110/43 221/109/43
f 227/125/5 229/126/5 233/127/5 230/128/5
f 231/4/9 226/1/9 227/125/9 230/128/9
f 226/1/14 228/2/14 229/126/14 227/125/14
f 228/2/10 232/3/10 233/127/10 229/126/10
f 232/124/29 231/123/29 230/128/29 233/127/29
f 231/129/3 223/112/3 219/111/3 226/130/3
l 146 150
l 140 149
