# Blender 3.6.4
# www.blender.org
mtllib potion_overlay.mtl
o Cube.008
v -0.281250 -0.156250 0.031250
v -0.281250 0.156250 0.031250
v -0.281250 -0.156250 -0.031250
v -0.281250 0.156250 -0.031250
v 0.281250 -0.156250 0.031250
v 0.281250 0.156250 0.031250
v 0.281250 -0.156250 -0.031250
v 0.281250 0.156250 -0.031250
v -0.156250 -0.218750 0.031250
v -0.156250 -0.218750 -0.031250
v 0.156250 -0.218750 0.031250
v 0.156250 -0.218750 -0.031250
v -0.218750 0.218750 0.031250
v -0.218750 0.156250 -0.031250
v -0.218750 0.218750 -0.031250
v 0.218750 0.156250 0.031250
v 0.218750 0.218750 0.031250
v 0.218750 0.156250 -0.031250
v 0.218750 0.218750 -0.031250
v -0.156250 0.218750 0.031250
v 0.156250 0.218750 -0.031250
v 0.156250 -0.156250 -0.031250
v -0.156250 -0.156250 -0.031250
v -0.156250 -0.156250 0.031250
v 0.156250 -0.156250 0.031250
v -0.218750 0.156250 0.031250
v -0.156250 0.218750 -0.031250
v 0.156250 0.218750 0.031250
vn -1.0000 -0.0000 -0.0000
vn 1.0000 -0.0000 -0.0000
vn -0.0000 1.0000 -0.0000
vn -0.0000 -0.0000 1.0000
vn -0.0000 -1.0000 -0.0000
vn -0.0000 -0.0000 -1.0000
vt 0.000000 0.125000
vt 0.000000 0.437500
vt 0.062500 0.437500
vt 0.062500 0.125000
vt 0.312500 1.000000
vt 0.250000 1.000000
vt 0.250000 0.937500
vt 0.312500 0.937500
vt 0.000000 0.062500
vt 0.062500 0.062500
vt 0.687500 0.062500
vt 0.687500 0.125000
vt 0.375000 0.125000
vt 0.375000 0.062500
vt 0.375000 1.000000
vt 0.687500 1.000000
vt 0.687500 0.937500
vt 0.375000 0.937500
vt 0.812500 1.000000
vt 0.750000 1.000000
vt 0.750000 0.937500
vt 0.812500 0.937500
vt 0.000000 0.500000
vt 0.062500 0.500000
vt 0.750000 0.437500
vt 0.312500 0.437500
vt 0.250000 0.437500
vt 0.250000 0.125000
vt 0.812500 0.125000
vt 0.812500 0.437500
vt 0.750000 0.500000
vt 0.312500 0.500000
s 0
usemtl PotionOverlay
f 1/1/1 2/2/1 4/3/1 3/4/1
f 7/4/2 8/3/2 6/2/2 5/1/2
f 14/5/3 4/6/3 2/7/3 26/8/3
f 9/9/1 24/1/1 23/4/1 10/10/1
f 12/10/2 22/4/2 25/1/2 11/9/2
f 11/11/4 25/12/4 24/13/4 9/14/4
f 10/15/5 12/16/5 11/17/5 9/18/5
f 8/19/3 18/20/3 16/21/3 6/22/3
f 26/2/1 13/23/1 15/24/1 14/3/1
f 18/3/2 19/24/2 17/23/2 16/2/2
f 3/6/5 23/15/5 24/18/5 1/7/5
f 27/15/3 15/5/3 13/8/3 20/18/3
f 19/20/3 21/16/3 28/17/3 17/21/3
f 22/16/5 7/19/5 5/22/5 25/17/5
f 16/25/4 26/26/4 2/27/4 1/28/4 24/13/4 25/12/4 5/29/4 6/30/4
f 17/31/4 13/32/4 26/26/4 16/25/4
f 12/11/6 10/14/6 23/13/6 22/12/6
f 3/28/6 4/27/6 8/30/6 7/29/6
f 19/31/6 18/25/6 14/26/6 15/32/6
