# Blender 3.6.4
# www.blender.org
mtllib potion.mtl
o Cube.008
v -0.281250 0.593750 0.031250
v -0.281250 0.593750 -0.031250
v -0.156250 0.593750 0.031250
v -0.156250 0.593750 -0.031250
v -0.281250 -0.156250 0.031250
v -0.281250 0.156250 0.031250
v -0.281250 -0.156250 -0.031250
v -0.281250 0.156250 -0.031250
v 0.281250 -0.156250 0.031250
v 0.281250 0.156250 0.031250
v 0.281250 -0.156250 -0.031250
v 0.281250 0.156250 -0.031250
v -0.156250 -0.218750 0.031250
v -0.156250 -0.218750 -0.031250
v 0.156250 -0.218750 0.031250
v 0.156250 -0.218750 -0.031250
v -0.218750 0.218750 0.031250
v -0.218750 0.156250 -0.031250
v -0.218750 0.218750 -0.031250
v 0.218750 0.156250 0.031250
v 0.218750 0.218750 0.031250
v 0.218750 0.156250 -0.031250
v 0.218750 0.218750 -0.031250
v -0.156250 0.218750 0.031250
v -0.156250 0.281250 0.031250
v 0.156250 0.281250 0.031250
v 0.156250 0.218750 -0.031250
v 0.156250 0.281250 -0.031250
v -0.281250 0.281250 0.031250
v -0.281250 0.343750 0.031250
v -0.281250 0.281250 -0.031250
v 0.093750 0.281250 0.031250
v 0.093750 0.343750 0.031250
v 0.093750 0.343750 -0.031250
v 0.031250 0.406250 0.031250
v 0.031250 0.343750 -0.031250
v 0.031250 0.406250 -0.031250
v -0.031250 0.468750 0.031250
v -0.031250 0.468750 -0.031250
v -0.093750 0.531250 0.031250
v -0.093750 0.468750 -0.031250
v -0.093750 0.531250 -0.031250
v 0.156250 -0.156250 -0.031250
v -0.156250 -0.156250 -0.031250
v -0.156250 -0.156250 0.031250
v 0.156250 -0.156250 0.031250
v -0.218750 0.156250 0.031250
v -0.156250 0.218750 -0.031250
v 0.156250 0.218750 0.031250
v -0.156250 0.281250 -0.031250
v 0.093750 0.281250 -0.031250
v 0.031250 0.343750 0.031250
v -0.031250 0.406250 -0.031250
v -0.031250 0.406250 0.031250
v -0.093750 0.468750 0.031250
v -0.156250 0.531250 -0.031250
v -0.156250 0.531250 0.031250
v -0.281250 0.531250 -0.031250
v -0.281250 0.468750 -0.031250
v -0.281250 0.406250 -0.031250
v -0.281250 0.343750 -0.031250
v -0.281250 0.531250 0.031250
v -0.281250 0.468750 0.031250
v -0.281250 0.406250 0.031250
vn 1.0000 -0.0000 -0.0000
vn -0.0000 -0.0000 1.0000
vn -0.0000 1.0000 -0.0000
vn -1.0000 -0.0000 -0.0000
vn -0.0000 -1.0000 -0.0000
vn -0.0000 -0.0000 -1.0000
vt 0.062500 0.812500
vt 0.062500 0.875000
vt 0.000000 0.875000
vt 0.000000 0.812500
vt 0.687500 0.812500
vt 0.687500 0.875000
vt 0.812500 0.875000
vt 0.812500 0.812500
vt 0.375000 1.000000
vt 0.250000 1.000000
vt 0.250000 0.937500
vt 0.375000 0.937500
vt 0.000000 0.125000
vt 0.000000 0.437500
vt 0.062500 0.437500
vt 0.062500 0.125000
vt 0.625000 0.750000
vt 0.812500 0.750000
vt 0.812500 0.687500
vt 0.562500 0.687500
vt 0.562500 0.750000
vt 0.312500 1.000000
vt 0.312500 0.937500
vt 0.000000 0.062500
vt 0.062500 0.062500
vt 0.375000 0.062500
vt 0.375000 0.125000
vt 0.687500 0.125000
vt 0.687500 0.062500
vt 0.687500 1.000000
vt 0.687500 0.937500
vt 0.812500 1.000000
vt 0.750000 1.000000
vt 0.750000 0.937500
vt 0.812500 0.937500
vt 0.000000 0.500000
vt 0.062500 0.500000
vt 0.000000 0.562500
vt 0.062500 0.562500
vt 0.437500 0.562500
vt 0.437500 0.625000
vt 0.500000 0.625000
vt 0.812500 0.625000
vt 0.812500 0.562500
vt 0.687500 0.562500
vt 0.062500 0.625000
vt 0.000000 0.625000
vt 0.625000 1.000000
vt 0.562500 1.000000
vt 0.562500 0.937500
vt 0.625000 0.937500
vt 0.062500 0.687500
vt 0.000000 0.687500
vt 0.500000 0.687500
vt 0.062500 0.750000
vt 0.000000 0.750000
vt 0.625000 0.812500
vt 0.500000 1.000000
vt 0.437500 1.000000
vt 0.437500 0.937500
vt 0.500000 0.937500
vt 0.312500 0.437500
vt 0.750000 0.437500
vt 0.812500 0.437500
vt 0.812500 0.125000
vt 0.250000 0.125000
vt 0.250000 0.437500
vt 0.312500 0.500000
vt 0.750000 0.500000
vt 0.687500 0.500000
vt 0.375000 0.500000
vt 0.375000 0.562500
s 0
usemtl Potion
f 56/1/1 4/2/1 3/3/1 57/4/1
f 57/5/2 3/6/2 1/7/2 62/8/2
f 4/9/3 2/10/3 1/11/3 3/12/3
f 5/13/4 6/14/4 8/15/4 7/16/4
f 11/16/1 12/15/1 10/14/1 9/13/1
f 55/17/2 63/18/2 64/19/2 54/20/2 38/21/2
f 18/22/3 8/10/3 6/11/3 47/23/3
f 13/24/4 45/13/4 44/16/4 14/25/4
f 16/25/1 43/16/1 46/13/1 15/24/1
f 15/26/2 46/27/2 45/28/2 13/29/2
f 14/9/5 16/30/5 15/31/5 13/12/5
f 12/32/3 22/33/3 20/34/3 10/35/3
f 47/14/4 17/36/4 19/37/4 18/15/4
f 22/15/1 23/37/1 21/36/1 20/14/1
f 7/10/5 44/9/5 45/12/5 5/11/5
f 48/9/3 19/22/3 17/23/3 24/12/3
f 24/36/4 25/38/4 50/39/4 48/37/4
f 27/37/1 28/39/1 26/38/1 49/36/1
f 32/40/2 33/41/2 52/42/2 30/43/2 29/44/2 25/45/2
f 23/33/3 27/30/3 49/31/3 21/34/3
f 51/39/1 34/46/1 33/47/1 32/38/1
f 34/48/3 36/49/3 52/50/3 33/51/3
f 36/46/1 37/52/1 35/53/1 52/47/1
f 54/20/2 64/19/2 30/43/2 52/42/2 35/54/2
f 53/52/1 39/55/1 38/56/1 54/53/1
f 30/47/4 61/46/4 31/39/4 29/38/4
f 41/55/1 42/1/1 40/4/1 55/56/1
f 57/5/2 62/8/2 63/18/2 55/17/2 40/57/2
f 39/58/3 41/59/3 55/60/3 38/61/3
f 31/12/5 50/11/5 25/10/5 29/9/5
f 42/59/3 56/9/3 57/12/3 40/60/3
f 37/49/3 53/58/3 54/61/3 35/50/3
f 43/30/5 11/32/5 9/35/5 46/31/5
f 20/62/2 47/63/2 6/64/2 5/65/2 45/28/2 46/27/2 9/66/2 10/67/2
f 28/30/3 51/48/3 32/51/3 26/31/3
f 21/68/2 17/69/2 47/63/2 20/62/2
f 32/40/2 25/45/2 24/70/2 49/71/2 26/72/2
f 16/26/6 14/29/6 44/28/6 43/27/6
f 7/65/6 8/64/6 12/67/6 11/66/6
f 27/71/6 48/70/6 50/45/6 28/72/6
f 23/68/6 22/62/6 18/63/6 19/69/6
f 1/3/4 2/2/4 58/1/4 62/4/4
f 62/4/4 58/1/4 59/55/4 63/56/4
f 63/56/4 59/55/4 60/52/4 64/53/4
f 64/53/4 60/52/4 61/46/4 30/47/4
f 51/40/6 31/44/6 61/43/6 34/41/6
f 37/54/6 36/42/6 61/43/6 60/19/6
f 39/21/6 53/20/6 60/19/6 59/18/6
f 42/57/6 41/17/6 59/18/6 58/8/6
f 2/7/6 4/6/6 56/5/6 58/8/6
