# Blender 3.6.4
# www.blender.org
mtllib phantom_rightwing_end.mtl
o Cube.005
v -0.812500 -0.031250 -0.281250
v -0.812500 0.031250 -0.281250
v -0.812500 -0.031250 0.281250
v -0.812500 0.031250 0.281250
v -0.000000 -0.031250 -0.281250
v -0.000000 0.031250 -0.281250
v -0.000000 -0.031250 0.281250
v -0.000000 0.031250 0.281250
vn -1.0000 -0.0000 -0.0000
vn -0.0000 -0.0000 1.0000
vn 1.0000 -0.0000 -0.0000
vn -0.0000 -0.0000 -1.0000
vn -0.0000 -1.0000 -0.0000
vn -0.0000 1.0000 -0.0000
vt 0.734375 0.468750
vt 0.593750 0.468750
vt 0.593750 0.484375
vt 0.734375 0.484375
vt 0.390625 0.484375
vt 0.390625 0.468750
vt 0.250000 0.468750
vt 0.250000 0.484375
vt 0.937500 0.484375
vt 0.937500 0.468750
vt 0.796875 0.484375
vt 0.796875 0.625000
vt 0.593750 0.625000
vt 0.390625 0.625000
s 0
usemtl Phantom
f 1/1/1 3/2/1 4/3/1 2/4/1
f 3/5/2 7/3/2 8/2/2 4/6/2
f 7/7/3 5/8/3 6/5/3 8/6/3
f 5/1/4 1/4/4 2/9/4 6/10/4
f 3/11/5 1/12/5 5/13/5 7/3/5
f 8/5/6 6/14/6 2/13/6 4/3/6
