# Blender 3.6.4
# www.blender.org
mtllib phantom_body.mtl
o Cube.001
v -0.156250 -0.093750 0.281250
v -0.156250 0.093750 0.281250
v -0.156250 -0.093750 -0.281250
v -0.156250 0.093750 -0.281250
v 0.156250 -0.093750 0.281250
v 0.156250 0.093750 0.281250
v 0.156250 -0.093750 -0.281250
v 0.156250 0.093750 -0.281250
vn -1.0000 -0.0000 -0.0000
vn -0.0000 -0.0000 -1.0000
vn 1.0000 -0.0000 -0.0000
vn -0.0000 -0.0000 1.0000
vn -0.0000 -1.0000 -0.0000
vn -0.0000 1.0000 -0.0000
vt 0.359375 0.687500
vt 0.359375 0.734375
vt 0.218750 0.734375
vt 0.218750 0.687500
vt 0.140625 0.734375
vt 0.140625 0.687500
vt -0.000000 0.734375
vt 0.000000 0.687500
vt 0.437500 0.687500
vt 0.437500 0.734375
vt 0.296875 0.734375
vt 0.296875 0.875000
vt 0.218750 0.875000
vt 0.140625 0.875000
s 0
usemtl Phantom
f 1/1/1 2/2/1 4/3/1 3/4/1
f 3/4/2 4/3/2 8/5/2 7/6/2
f 7/6/3 8/5/3 6/7/3 5/8/3
f 5/9/4 6/10/4 2/2/4 1/1/4
f 3/3/5 7/11/5 5/12/5 1/13/5
f 8/5/6 4/3/6 2/13/6 6/14/6
