# Blender 3.6.4
# www.blender.org
mtllib phantom_head.mtl
o Cube
v -0.218750 -0.093750 0.000000
v -0.218750 0.093750 0.000000
v -0.218750 -0.093750 0.312500
v -0.218750 0.093750 0.312500
v 0.218750 -0.093750 0.000000
v 0.218750 0.093750 0.000000
v 0.218750 -0.093750 0.312500
v 0.218750 0.093750 0.312500
vn -1.0000 -0.0000 -0.0000
vn -0.0000 -0.0000 1.0000
vn 1.0000 -0.0000 -0.0000
vn -0.0000 -0.0000 -1.0000
vn -0.0000 -1.0000 -0.0000
vn -0.0000 1.0000 -0.0000
vt 0.265625 0.875000
vt 0.187500 0.875000
vt 0.187500 0.921875
vt 0.265625 0.921875
vt 0.078125 0.921875
vt 0.078125 0.875000
vt 0.000000 0.875000
vt -0.000000 0.921875
vt 0.375000 0.875000
vt 0.375000 0.921875
vt 0.187500 1.000000
vt 0.296875 1.000000
vt 0.296875 0.921875
vt 0.078125 1.000000
s 0
usemtl Phantom
f 1/1/1 3/2/1 4/3/1 2/4/1
f 3/5/2 7/3/2 8/2/2 4/6/2
f 7/6/3 5/7/3 6/8/3 8/5/3
f 5/9/4 1/1/4 2/4/4 6/10/4
f 3/3/5 1/11/5 5/12/5 7/13/5
f 8/5/6 6/14/6 2/11/6 4/3/6
