# Blender 3.6.4
# www.blender.org
mtllib phantom_tail.mtl
o Cube.002
v -0.093750 -0.062500 -0.375000
v -0.093750 0.062500 -0.375000
v -0.093750 -0.062500 0.000000
v -0.093750 0.062500 0.000000
v 0.093750 -0.062500 -0.375000
v 0.093750 0.062500 -0.375000
v 0.093750 -0.062500 0.000000
v 0.093750 0.062500 0.000000
vn -1.0000 -0.0000 -0.0000
vn -0.0000 -0.0000 1.0000
vn 1.0000 -0.0000 -0.0000
vn -0.0000 -0.0000 -1.0000
vn -0.0000 -1.0000 -0.0000
vn -0.0000 1.0000 -0.0000
vt 0.187500 0.593750
vt 0.281250 0.593750
vt 0.281250 0.562500
vt 0.187500 0.562500
vt 0.140625 0.562500
vt 0.140625 0.593750
vt 0.046875 0.562500
vt 0.046875 0.593750
vt 0.328125 0.593750
vt 0.328125 0.562500
vt 0.187500 0.687500
vt 0.234375 0.687500
vt 0.234375 0.593750
vt 0.140625 0.687500
s 0
usemtl Phantom
f 1/1/1 3/2/1 4/3/1 2/4/1
f 3/4/2 7/5/2 8/6/2 4/1/2
f 7/5/3 5/7/3 6/8/3 8/6/3
f 5/3/4 1/2/4 2/9/4 6/10/4
f 3/1/5 1/11/5 5/12/5 7/13/5
f 8/6/6 6/14/6 2/11/6 4/1/6
