# Blender 3.6.4
# www.blender.org
mtllib spider_rightleg.mtl
o Cube.004
v 0.000000 -0.062500 0.062500
v 0.000000 0.062500 0.062500
v 0.000000 -0.062500 -0.062500
v 0.000000 0.062500 -0.062500
v -1.000000 -0.062500 0.062500
v -1.000000 0.062500 0.062500
v -1.000000 -0.062500 -0.062500
v -1.000000 0.062500 -0.062500
vn 1.0000 -0.0000 -0.0000
vn -0.0000 -0.0000 -1.0000
vn -1.0000 -0.0000 -0.0000
vn -0.0000 -0.0000 1.0000
vn -0.0000 -1.0000 -0.0000
vn -0.0000 1.0000 -0.0000
vt 0.812500 0.937500
vt 0.843750 0.937500
vt 0.843750 0.875000
vt 0.812500 0.875000
vt 0.312500 0.937500
vt 0.562500 0.937500
vt 0.562500 0.875000
vt 0.312500 0.875000
vt 0.281250 0.875000
vt 0.281250 0.937500
vt 0.812500 1.000000
vt 0.562500 1.000000
vt 0.312500 1.000000
s 0
usemtl Spider
f 1/1/1 3/2/1 4/3/1 2/4/1
f 3/5/2 7/6/2 8/7/2 4/8/2
f 7/8/3 5/9/3 6/10/3 8/5/3
f 5/4/4 1/7/4 2/6/4 6/1/4
f 3/11/5 1/1/5 5/6/5 7/12/5
f 8/5/6 6/13/6 2/12/6 4/6/6
