# Blender 3.6.4
# www.blender.org
mtllib barrett_barrel.mtl
o Cube.002
v -0.062500 0.203125 2.328125
v -0.062500 0.296875 2.328125
v -0.062500 0.203125 2.140625
v -0.062500 0.296875 2.140625
v 0.062500 0.203125 2.328125
v 0.062500 0.296875 2.328125
v 0.062500 0.203125 2.140625
v 0.062500 0.296875 2.140625
v 0.000000 0.203125 2.171875
v 0.000000 0.296875 2.171875
v 0.000000 0.203125 2.359375
v 0.000000 0.296875 2.359375
v 0.062500 0.281250 2.312500
v 0.062500 0.281250 2.156250
v 0.062500 0.218750 2.156250
v 0.062500 0.218750 2.312500
v 0.062500 0.281250 2.242188
v 0.062500 0.281250 2.226562
v 0.062500 0.218750 2.226562
v 0.062500 0.218750 2.242188
v 0.000000 0.281250 2.226562
v 0.000000 0.281250 2.187500
v 0.000000 0.218750 2.187500
v 0.000000 0.218750 2.242188
v 0.000000 0.218750 2.343750
v 0.000000 0.281250 2.343750
v 0.000000 0.281250 2.242188
v 0.000000 0.218750 2.226562
v -0.062500 0.281250 2.156250
v -0.062500 0.218750 2.156250
v -0.062500 0.218750 2.312500
v -0.062500 0.281250 2.312500
v -0.062500 0.218750 2.226562
v -0.062500 0.281250 2.226562
v -0.062500 0.218750 2.242188
v -0.062500 0.281250 2.242188
v 0.000000 0.281250 2.187500
v 0.000000 0.218750 2.187500
v 0.000000 0.218750 2.242188
v 0.000000 0.218750 2.343750
v 0.000000 0.281250 2.343750
v 0.000000 0.281250 2.226562
v 0.000000 0.218750 2.226562
v 0.000000 0.281250 2.242188
v -0.031250 0.234376 2.390625
v -0.031250 0.265624 2.390625
v 0.031250 0.234376 2.390625
v 0.031250 0.265624 2.390625
v -0.031250 0.234376 1.437500
v -0.031250 0.265626 1.437500
v 0.031250 0.234376 1.437500
v 0.031250 0.265626 1.437500
v -0.015624 0.218750 2.390625
v 0.015624 0.218750 2.390625
v -0.015624 0.218750 1.437500
v 0.015624 0.218750 1.437500
v -0.015624 0.281250 1.437500
v 0.015624 0.281250 1.437500
v -0.015624 0.281250 2.390625
v 0.015624 0.281250 2.390625
vn -1.0000 -0.0000 -0.0000
vn -0.4472 -0.0000 -0.8944
vn 1.0000 -0.0000 -0.0000
vn -0.4472 -0.0000 0.8944
vn -0.0000 -1.0000 -0.0000
vn -0.0000 1.0000 -0.0000
vn 0.4472 -0.0000 0.8944
vn 0.4472 -0.0000 -0.8944
vn -0.0000 -0.0000 1.0000
vn -0.0000 -0.0000 -1.0000
vn 0.7071 0.7071 -0.0000
vn 0.7071 -0.7071 -0.0000
vn -0.7071 -0.7071 -0.0000
vn -0.7071 0.7071 -0.0000
vt 0.375000 0.000000
vt 0.625000 0.000000
vt 0.582887 0.020638
vt 0.416666 0.023173
vt 0.419100 0.118067
vt 0.419648 0.139432
vt 0.421776 0.222427
vt 0.585435 0.223183
vt 0.625000 0.250000
vt 0.375000 0.250000
vt 0.375000 0.375000
vt 0.625000 0.375000
vt 0.625000 0.500000
vt 0.375000 0.500000
vt 0.577762 0.529325
vt 0.430423 0.530545
vt 0.427570 0.594059
vt 0.424717 0.657574
vt 0.421865 0.721089
vt 0.375000 0.750000
vt 0.375000 0.875000
vt 0.625000 0.875000
vt 0.625000 1.000000
vt 0.375000 1.000000
vt 0.250000 0.500000
vt 0.250000 0.750000
vt 0.750000 0.500000
vt 0.875000 0.500000
vt 0.875000 0.750000
vt 0.750000 0.750000
vt 0.625000 0.750000
vt 0.125000 0.500000
vt 0.125000 0.750000
vt 0.575207 0.655198
vt 0.573929 0.718135
vt 0.576485 0.592262
vt 0.584365 0.138115
vt 0.584094 0.116566
vt 0.687500 0.500000
vt 0.687500 0.750000
vt 0.562500 0.750000
vt 0.562500 0.500000
vt 0.312500 0.500000
vt 0.437500 0.500000
vt 0.437500 0.750000
vt 0.312500 0.750000
vt 0.437500 0.000000
vt 0.562500 0.000000
vt 0.562500 0.250000
vt 0.437500 0.250000
vt 0.812500 0.500000
vt 0.812500 0.750000
vt 0.437500 1.000000
vt 0.375000 0.937500
vt 0.375000 0.812500
vt 0.625000 0.812500
vt 0.625000 0.937500
vt 0.562500 1.000000
vt 0.187500 0.750000
vt 0.187500 0.500000
vt 0.625000 0.312500
vt 0.625000 0.437500
vt 0.375000 0.437500
vt 0.375000 0.312500
s 0
usemtl Steel
f 1/1/1 2/2/1 32/3/1 31/4/1 35/5/1 33/6/1 30/7/1 29/8/1 4/9/1 3/10/1
f 9/11/2 10/12/2 8/13/2 7/14/2
f 7/14/3 8/13/3 14/15/3 15/16/3 19/17/3 20/18/3 16/19/3 5/20/3
f 11/21/4 12/22/4 2/23/4 1/24/4
f 9/25/5 7/14/5 5/20/5 11/26/5
f 10/27/6 4/28/6 2/29/6 12/30/6
f 8/13/6 10/27/6 12/30/6 6/31/6
f 3/32/5 9/25/5 11/26/5 1/33/5
f 5/20/7 6/31/7 12/22/7 11/21/7
f 3/10/8 4/9/8 10/12/8 9/11/8
f 20/18/9 17/34/9 27/34/9 24/18/9
f 5/20/3 16/19/3 13/35/3 17/34/3 18/36/3 14/15/3 8/13/3 6/31/3
f 15/16/7 14/15/7 22/15/7 23/16/7
f 17/34/3 20/18/3 19/17/3 18/36/3
f 19/17/6 15/16/6 23/16/6 28/17/6
f 17/34/5 13/35/5 26/35/5 27/34/5
f 16/19/6 20/18/6 24/18/6 25/19/6
f 18/36/10 19/17/10 28/17/10 21/36/10
f 14/15/5 18/36/5 21/36/5 22/15/5
f 13/35/2 16/19/2 25/19/2 26/35/2
f 4/9/1 29/8/1 34/37/1 36/38/1 32/3/1 2/2/1
f 36/38/9 35/5/9 39/5/9 44/38/9
f 34/37/1 33/6/1 35/5/1 36/38/1
f 31/4/8 32/3/8 41/3/8 40/4/8
f 29/8/4 30/7/4 38/7/4 37/8/4
f 34/37/5 29/8/5 37/8/5 42/37/5
f 35/5/6 31/4/6 40/4/6 39/5/6
f 32/3/5 36/38/5 44/38/5 41/3/5
f 33/6/10 34/37/10 42/37/10 43/6/10
f 30/7/6 33/6/6 43/6/6 38/7/6
f 58/39/11 60/40/11 48/41/11 52/42/11
f 56/43/12 51/44/12 47/45/12 54/46/12
f 45/47/1 46/48/1 50/49/1 49/50/1
f 57/51/6 59/52/6 60/40/6 58/39/6
f 45/53/9 53/54/9 54/55/9 47/45/9 48/41/9 60/56/9 59/57/9 46/58/9
f 53/59/13 45/47/13 49/50/13 55/60/13
f 50/49/10 57/61/10 58/62/10 52/42/10 51/44/10 56/63/10 55/64/10 49/50/10
f 51/44/3 52/42/3 48/41/3 47/45/3
f 46/48/14 59/52/14 57/51/14 50/49/14
f 55/60/5 56/43/5 54/46/5 53/59/5
