# Blender 3.6.4
# www.blender.org
mtllib creeper_head.mtl
o Cube
v 0.250000 0.000000 -0.250000
v 0.250000 0.500000 -0.250000
v 0.250000 0.000000 0.250000
v 0.250000 0.500000 0.250000
v -0.250000 0.000000 -0.250000
v -0.250000 0.500000 -0.250000
v -0.250000 0.000000 0.250000
v -0.250000 0.500000 0.250000
vn 1.0000 -0.0000 -0.0000
vn -0.0000 -0.0000 1.0000
vn -1.0000 -0.0000 -0.0000
vn -0.0000 -0.0000 -1.0000
vn -0.0000 -1.0000 -0.0000
vn -0.0000 1.0000 -0.0000
vt 0.600000 0.500000
vt 0.600000 0.750000
vt 0.400000 0.750000
vt 0.400000 0.500000
vt 0.200000 0.750000
vt 0.200000 0.500000
vt 0.000000 0.750000
vt 0.000000 0.500000
vt 0.800000 0.500000
vt 0.800000 0.750000
vt 0.600000 1.000000
vt 0.400000 1.000000
vt 0.200000 1.000000
s 0
usemtl Creeper
f 1/1/1 2/2/1 4/3/1 3/4/1
f 3/4/2 4/3/2 8/5/2 7/6/2
f 7/6/3 8/5/3 6/7/3 5/8/3
f 5/9/4 6/10/4 2/2/4 1/1/4
f 3/3/5 7/2/5 5/11/5 1/12/5
f 8/5/6 4/3/6 2/12/6 6/13/6
