# Blender 3.6.4
# www.blender.org
mtllib creeper_frontleg.mtl
o Cube.004
v 0.125000 -0.375000 -0.000000
v 0.125000 0.000000 -0.000000
v 0.125000 -0.375000 0.250000
v 0.125000 0.000000 0.250000
v -0.125000 -0.375000 0.000000
v -0.125000 0.000000 0.000000
v -0.125000 -0.375000 0.250000
v -0.125000 0.000000 0.250000
vn 1.0000 -0.0000 -0.0000
vn -0.0000 -0.0000 1.0000
vn -1.0000 -0.0000 -0.0000
vn -0.0000 -0.0000 -1.0000
vn -0.0000 -1.0000 -0.0000
vn -0.0000 1.0000 -0.0000
vt 0.300000 0.187500
vt 0.300000 0.375000
vt 0.200000 0.375000
vt 0.200000 0.187500
vt 0.100000 0.187500
vt 0.100000 0.375000
vt 0.000000 0.375000
vt 0.000000 0.187500
vt 0.400000 0.187500
vt 0.400000 0.375000
vt 0.300000 0.500000
vt 0.200000 0.500000
vt 0.100000 0.500000
s 0
usemtl Creeper
f 1/1/1 2/2/1 4/3/1 3/4/1
f 3/5/2 4/6/2 8/3/2 7/4/2
f 7/5/3 8/6/3 6/7/3 5/8/3
f 5/9/4 6/10/4 2/2/4 1/1/4
f 3/11/5 7/12/5 5/3/5 1/2/5
f 8/6/6 4/3/6 2/12/6 6/13/6
