# Blender 3.6.4
# www.blender.org
mtllib creeper_body.mtl
o Cube.001
v -0.250000 -0.437500 -0.125000
v -0.250000 0.312500 -0.125000
v 0.250000 -0.437500 -0.125000
v 0.250000 0.312500 -0.125000
v -0.250000 -0.437500 0.125000
v -0.250000 0.312500 0.125000
v 0.250000 -0.437500 0.125000
v 0.250000 0.312500 0.125000
vn -0.0000 -0.0000 -1.0000
vn 1.0000 -0.0000 -0.0000
vn -0.0000 -0.0000 1.0000
vn -1.0000 -0.0000 -0.0000
vn -0.0000 -1.0000 -0.0000
vn -0.0000 1.0000 -0.0000
vt 0.800000 0.000000
vt 0.800000 0.375000
vt 1.000000 0.375000
vt 1.000000 0.000000
vt 0.700000 0.375000
vt 0.700000 -0.000000
vt 0.500000 0.375000
vt 0.500000 0.000000
vt 0.400000 0.375000
vt 0.400000 -0.000000
vt 0.900000 0.375000
vt 0.900000 0.500000
vt 0.700000 0.500000
vt 0.500000 0.500000
s 0
usemtl Creeper
f 1/1/1 2/2/1 4/3/1 3/4/1
f 3/1/2 4/2/2 8/5/2 7/6/2
f 7/6/3 8/5/3 6/7/3 5/8/3
f 5/8/4 6/7/4 2/9/4 1/10/4
f 3/11/5 7/12/5 5/13/5 1/5/5
f 8/5/6 4/13/6 2/14/6 6/7/6
