# Blender 3.6.4
# www.blender.org
mtllib medkit.mtl
o Cube.004
v -0.187500 0.062500 0.031250
v -0.187500 0.187500 0.031250
v -0.187500 0.062500 -0.031250
v -0.187500 0.187500 -0.031250
v -0.062500 0.062500 0.031250
v -0.062500 0.187500 0.031250
v -0.062500 0.062500 -0.031250
v -0.062500 0.187500 -0.031250
v -0.062500 0.000000 0.062500
v -0.062500 0.500000 0.062500
v -0.062500 0.000000 -0.062500
v -0.062500 0.500000 -0.062500
v 0.062500 0.000000 0.062500
v 0.062500 0.500000 0.062500
v 0.062500 0.000000 -0.062500
v 0.062500 0.500000 -0.062500
v -0.250000 0.312500 0.062500
v 0.250000 0.312500 0.062500
v -0.250000 0.312500 -0.062500
v 0.250000 0.312500 -0.062500
v -0.250000 0.187500 0.062500
v 0.250000 0.187500 0.062500
v -0.250000 0.187500 -0.062500
v 0.250000 0.187500 -0.062500
v 0.062500 0.312500 0.062500
v 0.062500 0.312500 -0.062500
v -0.062500 0.312500 -0.062500
v -0.062500 0.312500 0.062500
v 0.062500 0.312500 -0.062500
v 0.062500 0.312500 0.062500
v 0.062500 0.187500 -0.062500
v 0.062500 0.187500 0.062500
v -0.062500 0.312500 0.062500
v -0.062500 0.312500 -0.062500
v -0.062500 0.187500 -0.062500
v -0.062500 0.187500 0.062500
v 0.062500 0.187500 -0.062500
v 0.062500 0.187500 0.062500
v -0.062500 0.187500 -0.062500
v -0.062500 0.187500 0.062500
v -0.187500 0.312500 0.031250
v -0.187500 0.437500 0.031250
v -0.187500 0.312500 -0.031250
v -0.187500 0.437500 -0.031250
v -0.062500 0.312500 0.031250
v -0.062500 0.437500 0.031250
v -0.062500 0.312500 -0.031250
v -0.062500 0.437500 -0.031250
v 0.062500 0.312500 0.031250
v 0.062500 0.437500 0.031250
v 0.062500 0.312500 -0.031250
v 0.062500 0.437500 -0.031250
v 0.187500 0.312500 0.031250
v 0.187500 0.437500 0.031250
v 0.187500 0.312500 -0.031250
v 0.187500 0.437500 -0.031250
v 0.062500 0.062500 0.031250
v 0.062500 0.187500 0.031250
v 0.062500 0.062500 -0.031250
v 0.062500 0.187500 -0.031250
v 0.187500 0.062500 0.031250
v 0.187500 0.187500 0.031250
v 0.187500 0.062500 -0.031250
v 0.187500 0.187500 -0.031250
vn -1.0000 -0.0000 -0.0000
vn -0.0000 -0.0000 -1.0000
vn -0.0000 -0.0000 1.0000
vn -0.0000 -1.0000 -0.0000
vn 1.0000 -0.0000 -0.0000
vn -0.0000 1.0000 -0.0000
vt 0.375000 0.000000
vt 0.625000 0.000000
vt 0.625000 0.250000
vt 0.375000 0.250000
vt 0.625000 0.500000
vt 0.375000 0.500000
vt 0.375000 0.750000
vt 0.625000 0.750000
vt 0.625000 1.000000
vt 0.375000 1.000000
vt 0.125000 0.500000
vt 0.125000 0.750000
vt 0.530306 0.000000
vt 0.530306 0.250000
vt 0.468265 0.500000
vt 0.468265 0.750000
vt 0.530574 0.500000
vt 0.530574 0.750000
vt 0.875000 0.500000
vt 0.875000 0.750000
vt 0.532106 0.000000
vt 0.532106 0.250000
vt 0.467455 0.000000
vt 0.467455 0.250000
vt 0.530593 0.500000
vt 0.530594 0.750000
vt 0.469691 0.000000
vt 0.469691 0.250000
vt 0.468702 0.500000
vt 0.468702 0.750000
vt 0.000000 0.000000
s 0
usemtl MedkitWhite
f 1/1/1 2/2/1 4/3/1 3/4/1
f 3/4/2 4/3/2 8/5/2 7/6/2
f 5/7/3 6/8/3 2/9/3 1/10/3
f 3/11/4 7/6/4 5/7/4 1/12/4
f 41/1/1 42/2/1 44/3/1 43/4/1
f 43/4/2 44/3/2 48/5/2 47/6/2
f 45/7/3 46/8/3 42/9/3 41/10/3
f 48/5/6 44/19/6 42/20/6 46/8/6
f 51/4/2 52/3/2 56/5/2 55/6/2
f 55/6/5 56/5/5 54/8/5 53/7/5
f 53/7/3 54/8/3 50/9/3 49/10/3
f 56/5/6 52/19/6 50/20/6 54/8/6
f 59/4/2 60/3/2 64/5/2 63/6/2
f 63/6/5 64/5/5 62/8/5 61/7/5
f 61/7/3 62/8/3 58/9/3 57/10/3
f 59/11/4 63/6/4 61/7/4 57/12/4
usemtl MedkitRed
f 33/13/1 10/2/1 12/3/1 34/14/1
f 15/6/5 31/15/5 32/16/5 13/7/5
f 29/17/5 16/5/5 14/8/5 30/18/5
f 11/11/4 15/6/4 13/7/4 9/12/4
f 16/5/6 12/19/6 10/20/6 14/8/6
f 25/21/6 18/2/6 20/3/6 26/22/6
f 9/1/1 36/23/1 35/24/1 11/4/1
f 37/25/4 24/5/4 22/8/4 38/26/4
f 17/1/6 28/27/6 27/28/6 19/4/6
f 19/11/1 23/6/1 21/7/1 17/12/1
f 24/5/5 20/19/5 18/20/5 22/8/5
f 23/6/4 39/29/4 40/30/4 21/7/4
f 12/3/2 16/5/2 29/17/2 34/14/2
f 23/6/2 19/11/2 34/31/2 39/29/2
f 24/5/2 37/25/2 29/31/2 20/19/2
f 11/11/2 39/31/2 37/31/2 15/6/2
f 29/31/2 37/25/2 39/31/2 34/31/2
f 33/13/3 30/18/3 14/8/3 10/20/3
f 22/8/3 18/20/3 30/31/3 38/26/3
f 40/31/3 9/12/3 13/7/3 38/31/3
f 21/7/3 40/30/3 33/31/3 17/12/3
f 30/31/3 33/31/3 40/31/3 38/26/3
