# Blender 3.6.4
# www.blender.org
mtllib shotgun_lefthand.mtl
o Cube.004
v -0.066394 -0.078125 1.198193
v -0.066394 0.171875 1.198193
v 0.308606 -0.078125 0.548674
v 0.308606 0.171875 0.548674
v 0.150113 -0.078125 1.323192
v 0.150113 0.171875 1.323192
v 0.525113 -0.078125 0.673673
v 0.525113 0.171875 0.673673
v 0.308606 0.171875 0.548674
v 0.308606 -0.078125 0.548674
v 0.525113 -0.078125 0.673673
v 0.525113 0.171875 0.673673
v 0.437053 0.171875 0.326197
v 0.437053 -0.078125 0.326197
v 0.653560 -0.078125 0.451197
v 0.653560 0.171875 0.451197
vn -0.8660 -0.0000 -0.5000
vn -0.0000 1.0000 -0.0000
vn 0.8660 -0.0000 0.5000
vn -0.5000 -0.0000 0.8660
vn -0.0000 -1.0000 -0.0000
vn 0.5000 -0.0000 -0.8660
vt 0.250000 0.000000
vt 0.500000 0.000000
vt 0.500000 0.750000
vt 0.250000 0.750000
vt 0.750000 0.750000
vt 1.000000 0.750000
vt 1.000000 0.000000
vt 0.750000 0.000000
vt 0.750000 1.000000
vt 0.500000 1.000000
vt 0.000000 0.750000
vt 0.000000 0.000000
vt 0.750000 0.500000
vt 1.000000 0.500000
vt 0.500000 0.687500
vt 0.750000 0.687500
s 0
usemtl Skin
f 1/1/1 2/2/1 4/3/1 3/4/1
f 4/3/2 8/5/2 12/5/2 9/3/2
f 7/5/3 8/6/3 6/7/3 5/8/3
f 5/3/4 6/5/4 2/9/4 1/10/4
f 3/11/5 7/4/5 5/1/5 1/12/5
f 8/5/2 4/3/2 2/2/2 6/8/2
f 12/6/3 11/5/3 15/13/3 16/14/3
f 3/4/2 4/3/2 9/3/2 10/4/2
f 8/6/2 7/5/2 11/5/2 12/6/2
f 7/4/2 3/11/2 10/11/2 11/4/2
f 14/13/6 13/14/6 16/6/6 15/5/6
f 11/6/5 10/5/5 14/13/5 15/14/5
f 9/5/2 12/3/2 16/15/2 13/16/2
f 10/13/1 9/14/1 13/6/1 14/5/1
