# Blender 3.6.4
# www.blender.org
mtllib shotgun_receiver.mtl
o Cube.006
v 0.023438 -0.007813 0.000000
v 0.023438 0.109375 0.156250
v -0.023438 0.109375 0.156250
v 0.031250 0.078125 0.007812
v -0.031250 0.078125 0.007812
v 0.023438 0.125000 0.234375
v -0.023438 0.125000 0.234375
v -0.023438 0.078125 -0.000001
v 0.023437 0.078125 -0.000001
v -0.031250 0.132812 0.226562
v 0.031250 0.132812 0.226562
v 0.031250 0.250000 0.203125
v -0.031250 0.250000 0.203125
v 0.031250 -0.023438 0.093749
v -0.031250 -0.023438 0.093749
v -0.023438 -0.031250 0.093749
v 0.023438 -0.023438 0.101561
v -0.023438 -0.023438 0.101561
v 0.031250 -0.007813 0.007813
v -0.031250 -0.007813 0.007813
v -0.023438 -0.015625 0.007813
v 0.031250 0.171875 0.085938
v -0.031250 0.171875 0.085938
v -0.023438 0.171875 0.078125
v -0.031250 0.210938 0.132812
v 0.031250 0.210938 0.132812
v -0.023438 0.218750 0.125000
v -0.023438 -0.007813 0.000000
v 0.023438 -0.031250 0.093749
v 0.023438 -0.015625 0.007813
v 0.023438 0.171875 0.078125
v 0.023438 0.218750 0.125000
v -0.031250 0.109375 0.148438
v 0.031250 0.109375 0.148438
v 0.023438 0.046875 0.109375
v -0.031250 0.046875 0.101562
v -0.023438 0.046875 0.109375
v 0.031250 0.046875 0.101562
v -0.023438 0.250000 0.195312
v 0.023438 0.250000 0.195312
v 0.007812 0.257812 0.250000
v 0.007812 0.273437 0.250000
v 0.007812 0.257812 0.234375
v 0.007812 0.273437 0.234375
v 0.023438 0.257812 0.250000
v 0.023438 0.273437 0.250000
v 0.023438 0.257812 0.234375
v 0.023438 0.273437 0.234375
v -0.023438 0.257812 0.250000
v -0.023438 0.273437 0.250000
v -0.023438 0.257812 0.234375
v -0.023438 0.273437 0.234375
v -0.007812 0.257812 0.250000
v -0.007812 0.273437 0.250000
v -0.007812 0.257812 0.234375
v -0.007812 0.273437 0.234375
v -0.023438 0.250000 0.195314
v 0.023438 0.250000 0.195314
v -0.023438 0.250000 0.718750
v 0.023438 0.250000 0.718750
v -0.031250 0.250000 0.710938
v 0.031250 0.250000 0.710938
v 0.023438 0.257812 0.710938
v -0.023438 0.257812 0.710938
v -0.007812 0.250000 1.445312
v -0.007812 0.273437 1.445312
v -0.007812 0.250000 1.429688
v -0.007812 0.273437 1.429688
v 0.007812 0.250000 1.445312
v 0.007812 0.273437 1.445312
v 0.007812 0.250000 1.429688
v 0.007812 0.273437 1.429688
v -0.031250 0.250000 0.203126
v 0.031250 0.250000 0.203126
v 0.023438 0.257812 0.203126
v -0.023438 0.257812 0.203126
v -0.023438 0.132812 0.718750
v 0.023438 0.132812 0.218750
v 0.023438 0.125000 0.437500
v -0.023438 0.125000 0.437500
v -0.023438 0.125000 0.531250
v 0.023438 0.125000 0.531250
v -0.023438 0.132812 0.218750
v -0.023438 0.125000 0.562500
v 0.023438 0.125000 0.562500
v 0.031250 0.132812 0.562500
v -0.023438 0.125000 0.710938
v 0.023438 0.125000 0.710938
v -0.023438 0.125000 0.226562
v 0.031250 0.132813 0.710938
v -0.031250 0.132812 0.710938
v -0.031250 0.132812 0.562500
v -0.031250 0.132812 0.429688
v 0.031250 0.132812 0.429688
v 0.031250 0.132812 0.226562
v -0.031250 0.132812 0.226562
v 0.031250 0.132812 0.351562
v -0.031250 0.132813 0.351562
v -0.023438 0.125000 0.343750
v 0.023438 0.125000 0.226562
v 0.023438 0.132813 0.718750
v 0.023438 0.125000 0.343750
v 0.023438 0.062500 0.312500
v -0.023438 0.062500 0.312500
v 0.023438 0.062500 0.406250
v -0.023438 0.062500 0.406250
v -0.023438 0.125000 0.421875
v 0.023438 0.125000 0.421875
v -0.023438 0.062500 0.437500
v -0.023438 0.125000 0.453125
v 0.023438 0.125000 0.453125
v 0.023438 0.031250 0.328125
v 0.023438 0.039062 0.312500
v -0.023438 0.031250 0.406250
v -0.023438 0.031250 0.328125
v -0.023438 0.039062 0.312500
v 0.023438 0.062500 0.437500
v 0.023438 0.031250 0.406250
v 0.023438 0.125000 0.265625
v -0.023438 0.125000 0.265625
v -0.011719 0.187500 1.437500
v -0.011719 0.203125 1.437500
v -0.011719 0.187500 1.375000
v -0.011719 0.203125 1.375000
v 0.011719 0.187500 1.437500
v 0.011719 0.203125 1.437500
v 0.011719 0.187500 1.375000
v 0.011719 0.203125 1.375000
v -0.023438 0.214844 1.468753
v -0.023438 0.238281 1.468753
v 0.023438 0.214844 1.468753
v 0.023438 0.238281 1.468753
v -0.023438 0.214844 0.718750
v -0.023438 0.238281 0.718750
v 0.023438 0.214844 0.718750
v 0.023438 0.238281 0.718750
v -0.011719 0.203125 1.468753
v 0.011719 0.203125 1.468753
v -0.011719 0.203125 0.718750
v 0.011719 0.203125 0.718750
v -0.011719 0.250000 0.718750
v 0.011719 0.250000 0.718750
v -0.011719 0.250000 1.468753
v 0.011719 0.250000 1.468753
v -0.023438 0.152344 1.468753
v -0.023438 0.175781 1.468753
v 0.023438 0.152344 1.468753
v 0.023438 0.175781 1.468753
v -0.023438 0.152344 0.718750
v -0.023438 0.175781 0.718750
v 0.023438 0.152344 0.718750
v 0.023438 0.175781 0.718750
v -0.011719 0.140625 1.468753
v 0.011719 0.140625 1.468753
v -0.011719 0.140625 0.718750
v 0.011719 0.140625 0.718750
v -0.011719 0.187500 0.718750
v 0.011719 0.187500 0.718750
v -0.011719 0.187500 1.468753
v 0.011719 0.187500 1.468753
vn -0.0000 0.6402 -0.7682
vn -0.0000 0.7071 -0.7071
vn -0.0000 -0.7071 0.7071
vn 1.0000 -0.0000 -0.0000
vn -0.5773 -0.5774 0.5773
vn -0.0000 -0.6000 0.8000
vn 0.8056 0.5179 -0.2877
vn -0.6092 0.5077 -0.6092
vn -0.7071 -0.0000 -0.7071
vn -0.5883 -0.7845 0.1961
vn -0.0000 -0.9806 0.1961
vn 0.5773 -0.5774 0.5773
vn -0.5774 -0.5774 -0.5773
vn -0.7013 -0.7013 -0.1275
vn 0.7013 -0.7013 -0.1275
vn 0.6092 0.5077 -0.6092
vn 0.6247 -0.4685 0.6247
vn -0.7223 0.5098 -0.4673
vn 0.7223 0.5098 -0.4673
vn -0.8056 0.5179 -0.2877
vn -1.0000 -0.0000 -0.0000
vn 0.7071 -0.0000 -0.7071
vn 0.5774 -0.5774 -0.5773
vn -0.0000 -0.0000 -1.0000
vn -0.0000 -0.9839 -0.1789
vn -0.0000 -0.7071 -0.7071
vn -0.6247 -0.4685 0.6247
vn 0.5883 -0.7845 0.1961
vn -0.0000 -0.1104 0.9939
vn -0.7049 -0.0783 0.7049
vn 0.7049 -0.0783 0.7049
vn -0.0000 0.9138 -0.4061
vn -0.0000 -0.0000 1.0000
vn -0.0000 -1.0000 -0.0000
vn -0.0000 1.0000 -0.0000
vn -0.7071 -0.0000 0.7071
vn 0.5773 0.5773 0.5774
vn -0.7001 -0.1400 -0.7001
vn -0.5774 0.5773 -0.5774
vn 0.5774 0.5774 -0.5774
vn -0.5773 0.5773 0.5774
vn 0.7071 0.7071 -0.0000
vn 0.5773 -0.5774 -0.5773
vn -0.0000 -0.1961 -0.9806
vn -0.7071 -0.7071 -0.0000
vn 0.7071 -0.0000 0.7071
vn 0.7071 -0.7071 -0.0000
vn 0.7001 -0.1400 -0.7001
vn 0.5774 -0.5774 0.5773
vn -0.5773 -0.5773 0.5774
vn -0.5773 -0.5774 -0.5773
vn -0.7071 0.7071 -0.0000
vn -0.0000 0.7071 0.7071
vn -0.0000 0.2425 -0.9701
vn -0.0000 -0.2425 0.9701
vn -0.0000 -0.8944 -0.4472
vn -0.0000 -0.6727 -0.7399
vn -0.0000 0.6000 0.8000
vt 0.625000 0.531250
vt 0.000000 0.000000
vt 0.583424 0.531250
vt 0.500000 0.531250
vt 0.417122 0.354554
vt 0.218082 0.669245
vt 0.218082 0.590532
vt 0.500000 0.750000
vt 0.583424 0.750000
vt 0.083974 0.288793
vt 0.161054 0.553877
vt 0.218082 0.750000
vt 0.625000 0.750000
vt 0.218082 0.500000
vt 0.375000 0.250000
vt 0.166672 0.111115
vt 0.155968 0.000000
vt 0.375000 0.000000
vt 0.500000 0.500000
vt 0.420259 0.579800
vt 0.302292 0.500000
vt 0.436785 0.407950
vt 0.353711 0.442915
vt 0.125000 0.500000
vt 0.260422 0.500000
vt 0.625000 0.000000
vt 0.625000 0.250000
vt 0.302292 0.590532
vt 0.302292 0.669245
vt 0.302292 0.750000
vt 0.277150 0.774167
vt 0.356988 0.806831
vt 0.583424 0.500000
vt 0.157467 0.361027
vt 0.082838 0.189925
vt 0.420259 0.644263
vt 0.278870 0.474415
vt 0.055557 0.222230
vt 0.443966 0.842417
vt 0.260422 0.750000
vt 0.625000 0.500000
vt 0.375000 0.500000
vt 0.375000 0.750000
vt 0.625000 1.000000
vt 0.375000 1.000000
vt 0.125000 0.750000
vt 0.875000 0.500000
vt 0.875000 0.750000
vt 0.120317 0.071784
vt 0.450675 0.381960
vt 0.120317 0.107676
vt 0.864907 0.964897
vt 0.609402 0.486765
vt 0.375000 0.531250
vt 0.142918 0.042928
vt 0.042928 0.142918
vt 0.964897 0.864907
vt 0.609402 0.730148
vt 0.447239 0.754067
vt 0.367399 0.531250
vt 0.345720 0.271922
vt 0.345939 0.709686
vt 0.375000 0.932676
vt 0.438154 0.999321
vt 0.437667 0.251292
vt 0.436290 0.495894
vt 0.414298 0.531250
vt 0.380447 0.484882
vt 0.170657 0.531250
vt 0.125000 0.531250
vt 0.375000 0.218750
vt 0.625000 0.218750
vt 0.375000 0.717167
vt 0.125000 0.717167
vt 0.687500 0.500000
vt 0.687500 0.750000
vt 0.562500 0.750000
vt 0.562500 0.500000
vt 0.312500 0.500000
vt 0.437500 0.500000
vt 0.437500 0.750000
vt 0.312500 0.750000
vt 0.437500 0.000000
vt 0.562500 0.000000
vt 0.562500 0.250000
vt 0.437500 0.250000
vt 0.812500 0.500000
vt 0.812500 0.750000
vt 0.437500 1.000000
vt 0.375000 0.937500
vt 0.375000 0.812500
vt 0.625000 0.812500
vt 0.625000 0.937500
vt 0.562500 1.000000
vt 0.187500 0.750000
vt 0.187500 0.500000
vt 0.625000 0.312500
vt 0.625000 0.437500
vt 0.375000 0.437500
vt 0.375000 0.312500
s 0
usemtl Steel.003
f 41/18/21 42/26/21 44/27/21 43/15/21
f 43/15/24 44/27/24 48/41/24 47/42/24
f 47/42/4 48/41/4 46/13/4 45/43/4
f 45/43/33 46/13/33 42/44/33 41/45/33
f 43/24/34 47/42/34 45/43/34 41/46/34
f 48/41/35 44/47/35 42/48/35 46/13/35
f 49/18/21 50/26/21 52/27/21 51/15/21
f 51/15/24 52/27/24 56/41/24 55/42/24
f 55/42/4 56/41/4 54/13/4 53/43/4
f 53/43/33 54/13/33 50/44/33 49/45/33
f 51/24/34 55/42/34 53/43/34 49/46/34
f 56/41/35 52/47/35 50/48/35 54/13/35
f 61/49/36 91/2/36 77/50/36 59/2/36
f 60/2/37 62/51/37 63/52/37
f 73/53/39 76/55/39 57/2/39
f 58/2/40 75/56/40 74/2/40
f 61/49/41 59/2/41 64/57/41
f 65/18/21 66/26/21 68/27/21 67/15/21
f 67/15/24 68/27/24 72/41/24 71/42/24
f 71/42/4 72/41/4 70/13/4 69/43/4
f 69/43/33 70/13/33 66/44/33 65/45/33
f 67/24/34 71/42/34 69/43/34 65/46/34
f 72/41/35 68/47/35 66/48/35 70/13/35
f 62/51/42 74/58/42 75/56/42 63/52/42
f 95/59/43 100/60/43 78/54/43
f 58/2/44 78/54/44 83/54/44 57/2/44
f 80/25/45 81/41/45 87/2/45 91/2/45 92/61/45 93/22/45
f 62/51/46 60/2/46 101/50/46 90/2/46
f 99/2/45 98/2/45 96/2/45 89/2/45 120/2/45
f 86/62/47 90/2/47 88/2/47 82/63/47 79/40/47 94/39/47
f 74/58/48 95/2/48 78/54/48 58/2/48
f 90/64/49 101/50/49 88/2/49
f 91/65/50 87/2/50 77/50/50
f 77/50/33 101/50/33 60/2/33 59/2/33
f 96/66/51 83/54/51 89/60/51
f 90/2/4 95/2/4 74/58/4 62/51/4
f 100/2/47 95/2/47 97/2/47 102/2/47 119/2/47
f 64/57/52 76/55/52 73/53/52 61/49/52
f 96/2/21 91/2/21 61/49/21 73/53/21
f 89/60/34 100/60/34 119/67/34 120/68/34
f 84/69/34 85/69/34 88/70/34 87/70/34
f 58/2/2 57/2/2 76/2/2 75/56/2
f 63/52/53 64/57/53 59/2/53 60/2/53
f 101/50/3 77/50/3 87/70/3 88/2/3
f 100/60/26 89/60/26 83/54/26 78/54/26
f 75/2/35 76/2/35 64/57/35 63/52/35
f 98/2/45 99/2/45 80/25/45 93/22/45
f 85/69/34 84/69/34 99/5/34 102/3/34
f 79/40/47 102/2/47 97/2/47 94/39/47
f 104/41/35 106/47/35 105/48/35 103/13/35
f 106/42/54 107/41/54 108/13/54 105/43/54
f 106/42/21 104/41/21 116/42/21 115/42/21 114/2/21 109/71/21 110/72/21 107/41/21
f 117/71/55 111/72/55 110/72/55 109/71/55
f 118/2/4 112/73/4 113/73/4 103/13/4 105/43/4 108/13/4 111/72/4 117/71/4
f 115/42/34 112/73/34 118/74/34 114/24/34
f 114/2/3 118/74/3 117/71/3 109/71/3
f 112/73/56 115/42/56 116/42/56 113/73/56
f 7/27/57 6/26/57 113/73/57 116/42/57
f 116/42/21 104/41/21 120/2/21 7/27/21
f 120/68/34 119/67/34 102/3/34 99/5/34
f 113/73/4 6/26/4 119/2/4 103/13/4
f 103/2/58 119/2/58 120/2/58 104/2/58
f 121/18/21 122/26/21 124/27/21 123/15/21
f 123/15/24 124/27/24 128/41/24 127/42/24
f 127/42/4 128/41/4 126/13/4 125/43/4
f 125/43/33 126/13/33 122/44/33 121/45/33
f 123/24/34 127/42/34 125/43/34 121/46/34
f 128/41/35 124/47/35 122/48/35 126/13/35
f 142/75/42 144/76/42 132/77/42 136/78/42
f 140/79/47 135/80/47 131/81/47 138/82/47
f 129/83/21 130/84/21 134/85/21 133/86/21
f 141/87/35 143/88/35 144/76/35 142/75/35
f 129/89/33 137/90/33 138/91/33 131/81/33 132/77/33 144/92/33 143/93/33 130/94/33
f 137/95/45 129/83/45 133/86/45 139/96/45
f 134/85/24 141/97/24 142/98/24 136/78/24 135/80/24 140/99/24 139/100/24 133/86/24
f 135/80/4 136/78/4 132/77/4 131/81/4
f 130/84/52 143/88/52 141/87/52 134/85/52
f 139/96/34 140/79/34 138/82/34 137/95/34
f 158/75/42 160/76/42 148/77/42 152/78/42
f 156/79/47 151/80/47 147/81/47 154/82/47
f 145/83/21 146/84/21 150/85/21 149/86/21
f 157/87/35 159/88/35 160/76/35 158/75/35
f 145/89/33 153/90/33 154/91/33 147/81/33 148/77/33 160/92/33 159/93/33 146/94/33
f 153/95/45 145/83/45 149/86/45 155/96/45
f 150/85/24 157/97/24 158/98/24 152/78/24 151/80/24 156/99/24 155/100/24 149/86/24
f 151/80/4 152/78/4 148/77/4 147/81/4
f 146/84/52 159/88/52 157/87/52 150/85/52
f 155/96/34 156/79/34 154/82/34 153/95/34
usemtl Wood
f 9/1/1 8/1/1 24/2/1 31/2/1
f 32/3/2 31/4/2 24/2/2 27/5/2
f 29/6/3 17/2/3 18/2/3 16/7/3
f 22/8/4 26/9/4 12/2/4 11/2/4 34/10/4 38/11/4 14/12/4 19/2/4 4/13/4
f 16/7/5 18/2/5 15/14/5
f 3/15/6 37/16/6 35/17/6 2/18/6
f 26/9/7 32/3/7 12/2/7
f 8/1/8 5/2/8 23/19/8 24/2/8
f 8/1/9 28/20/9 20/21/9 5/2/9
f 10/22/10 33/23/10 3/24/10 7/25/10
f 2/18/11 6/26/11 7/27/11 3/15/11
f 14/12/12 17/2/12 29/6/12
f 28/20/13 21/28/13 20/21/13
f 15/14/14 20/21/14 21/28/14 16/7/14
f 29/6/15 30/29/15 19/30/15 14/12/15
f 4/13/16 9/1/16 31/4/16 22/8/16
f 2/18/17 35/17/17 38/31/17 34/32/17
f 23/19/18 25/33/18 27/3/18 24/4/18
f 31/4/19 32/3/19 26/9/19 22/8/19
f 27/3/20 25/33/20 13/2/20
f 10/2/21 13/2/21 25/33/21 23/2/21 5/2/21 20/21/21 15/14/21 36/34/21 33/35/21
f 9/1/22 4/13/22 19/2/22 1/36/22
f 1/36/23 19/2/23 30/29/23
f 8/1/24 9/1/24 1/36/24 28/20/24
f 21/28/25 30/29/25 29/6/25 16/7/25
f 30/29/26 21/28/26 28/20/26 1/36/26
f 3/24/27 33/23/27 36/37/27 37/38/27
f 34/32/28 11/39/28 6/40/28 2/18/28
f 35/17/29 37/16/29 18/2/29 17/2/29
f 37/38/30 36/37/30 15/14/30 18/2/30
f 38/31/31 35/17/31 17/2/31 14/12/31
f 27/5/32 13/2/32 39/2/32 40/2/32 12/2/32 32/3/32
f 73/53/38 57/2/38 83/54/38 96/2/38
l 92 96
l 86 95
