# Blender 3.6.4
# www.blender.org
mtllib shotgun_foregrip.mtl
o Cube.005
v -0.046875 0.132812 1.412501
v -0.046875 0.179687 1.412501
v 0.046875 0.132812 1.412501
v 0.046875 0.179687 1.412501
v -0.046875 0.132813 0.962499
v -0.046875 0.179688 0.962499
v 0.046875 0.132813 0.962499
v 0.046875 0.179688 0.962499
v -0.023438 0.109375 1.412501
v 0.023438 0.109375 1.412501
v -0.023438 0.109375 0.962499
v 0.023438 0.109375 0.962499
v -0.023438 0.203125 0.962499
v 0.023438 0.203125 0.962499
v -0.023438 0.203125 1.412501
v 0.023438 0.203125 1.412501
vn 0.7071 0.7071 -0.0000
vn 0.7071 -0.7071 -0.0000
vn -1.0000 -0.0000 -0.0000
vn -0.0000 1.0000 -0.0000
vn -0.0000 -0.0000 1.0000
vn -0.7071 -0.7071 -0.0000
vn -0.0000 -0.0000 -1.0000
vn 1.0000 -0.0000 -0.0000
vn -0.7071 0.7071 -0.0000
vn -0.0000 -1.0000 -0.0000
vt 0.687500 0.500000
vt 0.687500 0.750000
vt 0.562500 0.750000
vt 0.562500 0.500000
vt 0.312500 0.500000
vt 0.437500 0.500000
vt 0.437500 0.750000
vt 0.312500 0.750000
vt 0.437500 0.000000
vt 0.562500 0.000000
vt 0.562500 0.250000
vt 0.437500 0.250000
vt 0.812500 0.500000
vt 0.812500 0.750000
vt 0.437500 1.000000
vt 0.375000 0.937500
vt 0.375000 0.812500
vt 0.625000 0.812500
vt 0.625000 0.937500
vt 0.562500 1.000000
vt 0.187500 0.750000
vt 0.187500 0.500000
vt 0.625000 0.312500
vt 0.625000 0.437500
vt 0.375000 0.437500
vt 0.375000 0.312500
s 0
usemtl Wood
f 14/1/1 16/2/1 4/3/1 8/4/1
f 12/5/2 7/6/2 3/7/2 10/8/2
f 1/9/3 2/10/3 6/11/3 5/12/3
f 13/13/4 15/14/4 16/2/4 14/1/4
f 1/15/5 9/16/5 10/17/5 3/7/5 4/3/5 16/18/5 15/19/5 2/20/5
f 9/21/6 1/9/6 5/12/6 11/22/6
f 6/11/7 13/23/7 14/24/7 8/4/7 7/6/7 12/25/7 11/26/7 5/12/7
f 7/6/8 8/4/8 4/3/8 3/7/8
f 2/10/9 15/14/9 13/13/9 6/11/9
f 11/22/10 12/5/10 10/8/10 9/21/10
