# Blender 3.6.4
# www.blender.org
mtllib armor_leather.mtl
o Cube.002
v 0.250000 -0.375000 0.125000
v 0.250000 0.375000 0.125000
v -0.250000 -0.375000 0.125000
v -0.250000 0.375000 0.125000
v 0.250000 -0.375000 -0.125000
v 0.250000 0.375000 -0.125000
v -0.250000 -0.375000 -0.125000
v -0.250000 0.375000 -0.125000
v 0.250000 -0.375000 0.125000
v 0.250000 0.375000 0.125000
v -0.250000 -0.375000 0.125000
v -0.250000 0.375000 0.125000
v 0.250000 -0.375000 -0.125000
v 0.250000 0.375000 -0.125000
v -0.250000 -0.375000 -0.125000
v -0.250000 0.375000 -0.125000
vn -0.0000 -0.0000 -1.0000
vn 1.0000 -0.0000 -0.0000
vn -0.0000 -0.0000 1.0000
vn -1.0000 -0.0000 -0.0000
vn -0.0000 1.0000 -0.0000
vn -0.0000 -1.0000 -0.0000
vt 0.300000 0.000000
vt 0.100000 0.000000
vt 0.100000 0.750000
vt 0.300000 0.750000
vt -0.000000 0.000000
vt 0.000000 0.750000
vt 0.600000 0.000000
vt 0.400000 0.000000
vt 0.400000 0.750000
vt 0.600000 0.750000
vt 0.100000 1.000000
vt 0.300000 1.000000
s 0
usemtl ArmorLeather
f 1/1/1 3/2/1 4/3/1 2/4/1
f 3/2/2 7/5/2 8/6/2 4/3/2
f 7/7/3 5/8/3 6/9/3 8/10/3
f 5/8/4 1/1/4 2/4/4 6/9/4
f 3/3/5 1/11/5 5/12/5 7/4/5
f 8/4/6 6/3/6 2/11/6 4/12/6
f 9/1/3 10/4/3 12/3/3 11/2/3
f 11/2/4 12/3/4 16/6/4 15/5/4
f 15/7/1 16/10/1 14/9/1 13/8/1
f 13/8/2 14/9/2 10/4/2 9/1/2
f 11/3/6 15/4/6 13/12/6 9/11/6
f 16/4/5 12/12/5 10/11/5 14/3/5
o Cube.001
v 0.250000 0.125000 0.125000
v 0.250000 0.437500 0.125000
v 0.250000 0.125000 -0.125000
v 0.250000 0.437500 -0.125000
v 0.500000 0.125000 0.125000
v 0.500000 0.437500 0.125000
v 0.500000 0.125000 -0.125000
v 0.500000 0.437500 -0.125000
v 0.250000 0.125000 0.125000
v 0.250000 0.437500 0.125000
v 0.250000 0.125000 -0.125000
v 0.250000 0.437500 -0.125000
v 0.500000 0.125000 0.125000
v 0.500000 0.437500 0.125000
v 0.500000 0.125000 -0.125000
v 0.500000 0.437500 -0.125000
vn 1.0000 -0.0000 -0.0000
vn -0.0000 -0.0000 1.0000
vn -1.0000 -0.0000 -0.0000
vn -0.0000 -0.0000 -1.0000
vn -0.0000 1.0000 -0.0000
vn -0.0000 -1.0000 -0.0000
vt 0.900000 0.437500
vt 0.800000 0.437500
vt 0.800000 0.750000
vt 0.900000 0.750000
vt 1.000000 0.437500
vt 1.000000 0.750000
vt 0.700000 0.750000
vt 0.700000 0.437500
vt 0.600000 0.437500
vt 0.600000 0.750000
vt 0.800000 1.000000
vt 0.900000 1.000000
vt 0.700000 1.000000
s 0
usemtl ArmorLeather
f 17/13/7 19/14/7 20/15/7 18/16/7
f 19/13/8 23/17/8 24/18/8 20/16/8
f 23/19/9 21/20/9 22/21/9 24/22/9
f 21/20/10 17/14/10 18/15/10 22/19/10
f 19/15/11 17/23/11 21/24/11 23/16/11
f 24/25/12 22/19/12 18/15/12 20/23/12
f 25/13/9 26/16/9 28/15/9 27/14/9
f 27/13/10 28/16/10 32/18/10 31/17/10
f 31/19/7 32/22/7 30/21/7 29/20/7
f 29/20/8 30/19/8 26/15/8 25/14/8
f 27/15/12 31/16/12 29/24/12 25/23/12
f 32/25/11 28/23/11 26/15/11 30/19/11
o Cube.003
v -0.250000 0.125000 0.125000
v -0.250000 0.437500 0.125000
v -0.250000 0.125000 -0.125000
v -0.250000 0.437500 -0.125000
v -0.500000 0.125000 0.125000
v -0.500000 0.437500 0.125000
v -0.500000 0.125000 -0.125000
v -0.500000 0.437500 -0.125000
v -0.250000 0.125000 0.125000
v -0.250000 0.437500 0.125000
v -0.250000 0.125000 -0.125000
v -0.250000 0.437500 -0.125000
v -0.500000 0.125000 0.125000
v -0.500000 0.437500 0.125000
v -0.500000 0.125000 -0.125000
v -0.500000 0.437500 -0.125000
vn 1.0000 -0.0000 -0.0000
vn -0.0000 -0.0000 -1.0000
vn -1.0000 -0.0000 -0.0000
vn -0.0000 -0.0000 1.0000
vn -0.0000 -1.0000 -0.0000
vn -0.0000 1.0000 -0.0000
vt 0.900000 0.437500
vt 0.800000 0.437500
vt 0.800000 0.750000
vt 0.900000 0.750000
vt 1.000000 0.437500
vt 1.000000 0.750000
vt 0.700000 0.750000
vt 0.700000 0.437500
vt 0.600000 0.437500
vt 0.600000 0.750000
vt 0.800000 1.000000
vt 0.900000 1.000000
vt 0.700000 1.000000
s 0
usemtl ArmorLeather
f 33/26/13 35/27/13 36/28/13 34/29/13
f 35/26/14 39/30/14 40/31/14 36/29/14
f 39/32/15 37/33/15 38/34/15 40/35/15
f 37/33/16 33/27/16 34/28/16 38/32/16
f 35/28/17 33/36/17 37/37/17 39/29/17
f 40/38/18 38/32/18 34/28/18 36/36/18
f 41/26/15 42/29/15 44/28/15 43/27/15
f 43/26/16 44/29/16 48/31/16 47/30/16
f 47/32/13 48/35/13 46/34/13 45/33/13
f 45/33/14 46/32/14 42/28/14 41/27/14
f 43/28/18 47/29/18 45/37/18 41/36/18
f 48/38/17 44/36/17 42/28/17 46/32/17
