# Blender 3.6.4
# www.blender.org
mtllib minigun_righthand.mtl
o Cube.004
v -0.144947 -0.061397 1.039188
v -0.177299 0.180084 1.095224
v -0.526336 0.035660 0.400735
v -0.558688 0.277142 0.456771
v 0.067871 -0.005361 0.920577
v 0.035518 0.236120 0.976613
v -0.313518 0.091696 0.282124
v -0.345871 0.333177 0.338160
v -0.558688 0.277142 0.456771
v -0.526336 0.035660 0.400735
v -0.313518 0.091696 0.282124
v -0.345871 0.333177 0.338160
v -0.689324 0.310386 0.238084
v -0.656972 0.068905 0.182048
v -0.444154 0.124941 0.063437
v -0.476506 0.366422 0.119473
vn -0.8513 -0.2241 0.4744
vn -0.4820 -0.1405 -0.8648
vn -0.0000 1.0000 -0.0000
vn -0.4829 0.1272 -0.8664
vn -0.0000 -1.0000 -0.0000
vn 0.8513 0.2241 -0.4744
vn 0.5085 -0.1294 0.8513
vn 0.1294 -0.9659 -0.2241
vn -0.1294 0.9659 0.2241
vn -0.3967 0.6088 0.6871
vn -0.3967 -0.6088 0.6870
vn -0.5085 0.1294 -0.8513
vt 0.250000 0.000000
vt 0.500000 0.000000
vt 0.500000 0.750000
vt 0.250000 0.750000
vt 0.750000 0.750000
vt 1.000000 0.750000
vt 1.000000 0.000000
vt 0.750000 0.000000
vt 0.750000 1.000000
vt 0.500000 1.000000
vt 0.000000 0.750000
vt 0.000000 0.000000
vt 0.750000 0.500000
vt 1.000000 0.500000
vt 0.500000 0.687500
vt 0.750000 0.687500
s 0
usemtl Skin
f 1/1/1 2/2/1 4/3/1 3/4/1
f 4/3/2 8/5/3 12/5/4 9/3/5
f 7/5/6 8/6/6 6/7/6 5/8/6
f 5/3/7 6/5/7 2/9/7 1/10/7
f 3/11/8 7/4/8 5/1/8 1/12/8
f 8/5/9 4/3/9 2/2/9 6/8/9
f 12/6/6 11/5/6 15/13/6 16/14/6
f 3/4/10 4/3/5 9/3/11 10/4/3
f 8/6/11 7/5/3 11/5/10 12/6/5
f 7/4/4 3/11/5 10/11/2 11/4/3
f 14/13/12 13/14/12 16/6/12 15/5/12
f 11/6/8 10/5/8 14/13/8 15/14/8
f 9/5/9 12/3/9 16/15/9 13/16/9
f 10/13/1 9/14/1 13/6/1 14/5/1
