# Blender 3.6.4
# www.blender.org
mtllib minigun_barrels.mtl
o Cube.005
v -0.041642 0.006000 0.789063
v -0.055173 0.013812 0.789063
v -0.026017 0.033063 0.789063
v -0.039548 0.040875 0.789063
v -0.041642 0.006000 0.007813
v -0.055173 0.013812 0.007813
v -0.026017 0.033063 0.007813
v -0.039548 0.040875 0.007813
v -0.030970 0.008859 0.789063
v -0.023157 0.022391 0.789063
v -0.030970 0.008859 0.007813
v -0.023157 0.022391 0.007813
v -0.058033 0.024484 0.007813
v -0.050220 0.038016 0.007813
v -0.058033 0.024484 0.789063
v -0.050220 0.038016 0.789063
v 0.039548 -0.040875 0.789063
v 0.026017 -0.033063 0.789063
v 0.055173 -0.013812 0.789063
v 0.041642 -0.006000 0.789063
v 0.039548 -0.040875 0.007813
v 0.026017 -0.033063 0.007813
v 0.055173 -0.013812 0.007813
v 0.041642 -0.006000 0.007813
v 0.050220 -0.038016 0.789063
v 0.058033 -0.024484 0.789063
v 0.050220 -0.038016 0.007813
v 0.058033 -0.024484 0.007813
v 0.023157 -0.022391 0.007813
v 0.030970 -0.008859 0.007813
v 0.023157 -0.022391 0.789063
v 0.030970 -0.008859 0.789063
v -0.015625 0.039063 0.789063
v -0.015625 0.054688 0.789063
v 0.015625 0.039063 0.789063
v 0.015625 0.054688 0.789063
v -0.015625 0.039063 0.007813
v -0.015625 0.054688 0.007813
v 0.015625 0.039063 0.007813
v 0.015625 0.054688 0.007813
v -0.007813 0.031250 0.789063
v 0.007812 0.031250 0.789063
v -0.007813 0.031250 0.007813
v 0.007812 0.031250 0.007813
v -0.007813 0.062500 0.007813
v 0.007812 0.062500 0.007813
v -0.007813 0.062500 0.789063
v 0.007812 0.062500 0.789063
v -0.015625 -0.054687 0.789063
v -0.015625 -0.039062 0.789063
v 0.015625 -0.054687 0.789063
v 0.015625 -0.039062 0.789063
v -0.015625 -0.054687 0.007813
v -0.015625 -0.039062 0.007813
v 0.015625 -0.054687 0.007813
v 0.015625 -0.039062 0.007813
v -0.007813 -0.062500 0.789063
v 0.007812 -0.062500 0.789063
v -0.007813 -0.062500 0.007813
v 0.007812 -0.062500 0.007813
v -0.007813 -0.031250 0.007813
v 0.007812 -0.031250 0.007813
v -0.007813 -0.031250 0.789063
v 0.007812 -0.031250 0.789063
v 0.026017 0.033063 0.789063
v 0.039548 0.040875 0.789063
v 0.041642 0.006000 0.789063
v 0.055173 0.013812 0.789063
v 0.026017 0.033063 0.007813
v 0.039548 0.040875 0.007813
v 0.041642 0.006000 0.007813
v 0.055173 0.013812 0.007813
v 0.023157 0.022391 0.789063
v 0.030970 0.008859 0.789063
v 0.023157 0.022391 0.007813
v 0.030970 0.008859 0.007813
v 0.050220 0.038016 0.007813
v 0.058033 0.024484 0.007813
v 0.050220 0.038016 0.789063
v 0.058033 0.024484 0.789063
v -0.055173 -0.013812 0.789063
v -0.041642 -0.006000 0.789063
v -0.039548 -0.040875 0.789063
v -0.026017 -0.033063 0.789063
v -0.055173 -0.013812 0.007813
v -0.041642 -0.006000 0.007813
v -0.039548 -0.040875 0.007813
v -0.026017 -0.033063 0.007813
v -0.058033 -0.024484 0.789063
v -0.050220 -0.038016 0.789063
v -0.058033 -0.024484 0.007813
v -0.050220 -0.038016 0.007813
v -0.030970 -0.008859 0.007813
v -0.023157 -0.022391 0.007813
v -0.030970 -0.008859 0.789063
v -0.023157 -0.022391 0.789063
v 0.037500 0.075000 0.773438
v -0.037500 0.075000 0.773438
v 0.037500 0.075000 0.648436
v -0.037500 0.075000 0.648436
v 0.037500 -0.075000 0.648436
v -0.037500 -0.075000 0.648436
v 0.037500 -0.075000 0.773438
v -0.037500 -0.075000 0.773438
v 0.075000 0.037500 0.648436
v 0.075000 -0.037500 0.648436
v -0.075000 0.037500 0.648436
v -0.075000 -0.037500 0.648436
v 0.075000 0.037500 0.773438
v 0.075000 -0.037500 0.773438
v -0.075000 0.037500 0.773438
v -0.075000 -0.037500 0.773438
v 0.037500 0.075000 0.414063
v -0.037500 0.075000 0.414063
v 0.037500 0.075000 0.351562
v -0.037500 0.075000 0.351562
v 0.037500 -0.075000 0.351562
v -0.037500 -0.075000 0.351562
v 0.037500 -0.075000 0.414063
v -0.037500 -0.075000 0.414063
v 0.075000 0.037500 0.351562
v 0.075000 -0.037500 0.351562
v -0.075000 0.037500 0.351562
v -0.075000 -0.037500 0.351562
v 0.075000 0.037500 0.414063
v 0.075000 -0.037500 0.414063
v -0.075000 0.037500 0.414063
v -0.075000 -0.037500 0.414063
v 0.037500 0.075000 0.546875
v -0.037500 0.075000 0.546875
v 0.037500 0.075000 0.531250
v -0.037500 0.075000 0.531250
v 0.037500 -0.075000 0.531250
v -0.037500 -0.075000 0.531250
v 0.037500 -0.075000 0.546875
v -0.037500 -0.075000 0.546875
v 0.075000 0.037500 0.531250
v 0.075000 -0.037500 0.531250
v -0.075000 0.037500 0.531250
v -0.075000 -0.037500 0.531250
v 0.075000 0.037500 0.546875
v 0.075000 -0.037500 0.546875
v -0.075000 0.037500 0.546875
v -0.075000 -0.037500 0.546875
v 0.037500 0.075000 0.609375
v -0.037500 0.075000 0.609375
v 0.037500 0.075000 0.593750
v -0.037500 0.075000 0.593750
v 0.037500 -0.075000 0.593750
v -0.037500 -0.075000 0.593750
v 0.037500 -0.075000 0.609375
v -0.037500 -0.075000 0.609375
v 0.075000 0.037500 0.593750
v 0.075000 -0.037500 0.593750
v -0.075000 0.037500 0.593750
v -0.075000 -0.037500 0.593750
v 0.075000 0.037500 0.609375
v 0.075000 -0.037500 0.609375
v -0.075000 0.037500 0.609375
v -0.075000 -0.037500 0.609375
v 0.045000 0.090000 0.015625
v -0.045000 0.090000 0.015625
v 0.045000 0.090000 0.000000
v -0.045000 0.090000 0.000000
v 0.045000 -0.090000 0.000000
v -0.045000 -0.090000 0.000000
v 0.045000 -0.090000 0.015625
v -0.045000 -0.090000 0.015625
v 0.090000 0.045000 0.000000
v 0.090000 -0.045000 0.000000
v -0.090000 0.045000 0.000000
v -0.090000 -0.045000 0.000000
v 0.090000 0.045000 0.015625
v 0.090000 -0.045000 0.015625
v -0.090000 0.045000 0.015625
v -0.090000 -0.045000 0.015625
vn -0.2588 0.9659 -0.0000
vn 0.9659 0.2588 -0.0000
vn -0.5000 -0.8660 -0.0000
vn -0.8660 0.5000 -0.0000
vn -0.0000 -0.0000 1.0000
vn 0.2588 -0.9659 -0.0000
vn -0.0000 -0.0000 -1.0000
vn 0.5000 0.8660 -0.0000
vn -0.9659 -0.2588 -0.0000
vn 0.8660 -0.5000 -0.0000
vn 0.7071 0.7071 -0.0000
vn 0.7071 -0.7071 -0.0000
vn -1.0000 -0.0000 -0.0000
vn -0.0000 1.0000 -0.0000
vn -0.7071 -0.7071 -0.0000
vn 1.0000 -0.0000 -0.0000
vn -0.7071 0.7071 -0.0000
vn -0.0000 -1.0000 -0.0000
vn 0.9659 -0.2588 -0.0000
vn -0.2588 -0.9659 -0.0000
vn -0.5000 0.8660 -0.0000
vn 0.8660 0.5000 -0.0000
vn -0.9659 0.2588 -0.0000
vn 0.5000 -0.8660 -0.0000
vn 0.2588 0.9659 -0.0000
vn -0.8660 -0.5000 -0.0000
vt 0.687500 0.500000
vt 0.687500 0.750000
vt 0.562500 0.750000
vt 0.562500 0.500000
vt 0.312500 0.500000
vt 0.437500 0.500000
vt 0.437500 0.750000
vt 0.312500 0.750000
vt 0.437500 0.000000
vt 0.562500 0.000000
vt 0.562500 0.250000
vt 0.437500 0.250000
vt 0.812500 0.500000
vt 0.812500 0.750000
vt 0.437500 1.000000
vt 0.375000 0.937500
vt 0.375000 0.812500
vt 0.625000 0.812500
vt 0.625000 0.937500
vt 0.562500 1.000000
vt 0.187500 0.750000
vt 0.187500 0.500000
vt 0.625000 0.312500
vt 0.625000 0.437500
vt 0.375000 0.437500
vt 0.375000 0.312500
s 0
usemtl Steel
f 14/1/1 16/2/1 4/3/1 8/4/1
f 12/5/2 7/6/2 3/7/2 10/8/2
f 1/9/3 2/10/3 6/11/3 5/12/3
f 13/13/4 15/14/4 16/2/4 14/1/4
f 1/15/5 9/16/5 10/17/5 3/7/5 4/3/5 16/18/5 15/19/5 2/20/5
f 9/21/6 1/9/6 5/12/6 11/22/6
f 6/11/7 13/23/7 14/24/7 8/4/7 7/6/7 12/25/7 11/26/7 5/12/7
f 7/6/8 8/4/8 4/3/8 3/7/8
f 2/10/9 15/14/9 13/13/9 6/11/9
f 11/22/10 12/5/10 10/8/10 9/21/10
f 30/1/1 32/2/1 20/3/1 24/4/1
f 28/5/2 23/6/2 19/7/2 26/8/2
f 17/9/3 18/10/3 22/11/3 21/12/3
f 29/13/4 31/14/4 32/2/4 30/1/4
f 17/15/5 25/16/5 26/17/5 19/7/5 20/3/5 32/18/5 31/19/5 18/20/5
f 25/21/6 17/9/6 21/12/6 27/22/6
f 22/11/7 29/23/7 30/24/7 24/4/7 23/6/7 28/25/7 27/26/7 21/12/7
f 23/6/8 24/4/8 20/3/8 19/7/8
f 18/10/9 31/14/9 29/13/9 22/11/9
f 27/22/10 28/5/10 26/8/10 25/21/10
f 46/1/11 48/2/11 36/3/11 40/4/11
f 44/5/12 39/6/12 35/7/12 42/8/12
f 33/9/13 34/10/13 38/11/13 37/12/13
f 45/13/14 47/14/14 48/2/14 46/1/14
f 33/15/5 41/16/5 42/17/5 35/7/5 36/3/5 48/18/5 47/19/5 34/20/5
f 41/21/15 33/9/15 37/12/15 43/22/15
f 38/11/7 45/23/7 46/24/7 40/4/7 39/6/7 44/25/7 43/26/7 37/12/7
f 39/6/16 40/4/16 36/3/16 35/7/16
f 34/10/17 47/14/17 45/13/17 38/11/17
f 43/22/18 44/5/18 42/8/18 41/21/18
f 62/1/11 64/2/11 52/3/11 56/4/11
f 60/5/12 55/6/12 51/7/12 58/8/12
f 49/9/13 50/10/13 54/11/13 53/12/13
f 61/13/14 63/14/14 64/2/14 62/1/14
f 49/15/5 57/16/5 58/17/5 51/7/5 52/3/5 64/18/5 63/19/5 50/20/5
f 57/21/15 49/9/15 53/12/15 59/22/15
f 54/11/7 61/23/7 62/24/7 56/4/7 55/6/7 60/25/7 59/26/7 53/12/7
f 55/6/16 56/4/16 52/3/16 51/7/16
f 50/10/17 63/14/17 61/13/17 54/11/17
f 59/22/18 60/5/18 58/8/18 57/21/18
f 78/1/19 80/2/19 68/3/19 72/4/19
f 76/5/20 71/6/20 67/7/20 74/8/20
f 65/9/21 66/10/21 70/11/21 69/12/21
f 77/13/22 79/14/22 80/2/22 78/1/22
f 65/15/5 73/16/5 74/17/5 67/7/5 68/3/5 80/18/5 79/19/5 66/20/5
f 73/21/23 65/9/23 69/12/23 75/22/23
f 70/11/7 77/23/7 78/24/7 72/4/7 71/6/7 76/25/7 75/26/7 69/12/7
f 71/6/24 72/4/24 68/3/24 67/7/24
f 66/10/25 79/14/25 77/13/25 70/11/25
f 75/22/26 76/5/26 74/8/26 73/21/26
f 94/1/19 96/2/19 84/3/19 88/4/19
f 92/5/20 87/6/20 83/7/20 90/8/20
f 81/9/21 82/10/21 86/11/21 85/12/21
f 93/13/22 95/14/22 96/2/22 94/1/22
f 81/15/5 89/16/5 90/17/5 83/7/5 84/3/5 96/18/5 95/19/5 82/20/5
f 89/21/23 81/9/23 85/12/23 91/22/23
f 86/11/7 93/23/7 94/24/7 88/4/7 87/6/7 92/25/7 91/26/7 85/12/7
f 87/6/24 88/4/24 84/3/24 83/7/24
f 82/10/25 95/14/25 93/13/25 86/11/25
f 91/22/26 92/5/26 90/8/26 89/21/26
f 111/10/17 98/14/17 100/13/17 107/11/17
f 106/6/16 105/4/16 109/3/16 110/7/16
f 107/11/7 100/23/7 99/24/7 105/4/7 106/6/7 101/25/7 102/26/7 108/12/7
f 104/21/15 112/9/15 108/12/15 102/22/15
f 112/15/5 104/16/5 103/17/5 110/7/5 109/3/5 97/18/5 98/19/5 111/20/5
f 100/13/14 98/14/14 97/2/14 99/1/14
f 112/9/13 111/10/13 107/11/13 108/12/13
f 101/5/12 106/6/12 110/7/12 103/8/12
f 99/1/11 97/2/11 109/3/11 105/4/11
f 102/22/18 101/5/18 103/8/18 104/21/18
f 127/10/17 114/14/17 116/13/17 123/11/17
f 122/6/16 121/4/16 125/3/16 126/7/16
f 123/11/7 116/23/7 115/24/7 121/4/7 122/6/7 117/25/7 118/26/7 124/12/7
f 120/21/15 128/9/15 124/12/15 118/22/15
f 128/15/5 120/16/5 119/17/5 126/7/5 125/3/5 113/18/5 114/19/5 127/20/5
f 116/13/14 114/14/14 113/2/14 115/1/14
f 128/9/13 127/10/13 123/11/13 124/12/13
f 117/5/12 122/6/12 126/7/12 119/8/12
f 115/1/11 113/2/11 125/3/11 121/4/11
f 118/22/18 117/5/18 119/8/18 120/21/18
f 143/10/17 130/14/17 132/13/17 139/11/17
f 138/6/16 137/4/16 141/3/16 142/7/16
f 139/11/7 132/23/7 131/24/7 137/4/7 138/6/7 133/25/7 134/26/7 140/12/7
f 136/21/15 144/9/15 140/12/15 134/22/15
f 144/15/5 136/16/5 135/17/5 142/7/5 141/3/5 129/18/5 130/19/5 143/20/5
f 132/13/14 130/14/14 129/2/14 131/1/14
f 144/9/13 143/10/13 139/11/13 140/12/13
f 133/5/12 138/6/12 142/7/12 135/8/12
f 131/1/11 129/2/11 141/3/11 137/4/11
f 134/22/18 133/5/18 135/8/18 136/21/18
f 159/10/17 146/14/17 148/13/17 155/11/17
f 154/6/16 153/4/16 157/3/16 158/7/16
f 155/11/7 148/23/7 147/24/7 153/4/7 154/6/7 149/25/7 150/26/7 156/12/7
f 152/21/15 160/9/15 156/12/15 150/22/15
f 160/15/5 152/16/5 151/17/5 158/7/5 157/3/5 145/18/5 146/19/5 159/20/5
f 148/13/14 146/14/14 145/2/14 147/1/14
f 160/9/13 159/10/13 155/11/13 156/12/13
f 149/5/12 154/6/12 158/7/12 151/8/12
f 147/1/11 145/2/11 157/3/11 153/4/11
f 150/22/18 149/5/18 151/8/18 152/21/18
f 175/10/17 162/14/17 164/13/17 171/11/17
f 170/6/16 169/4/16 173/3/16 174/7/16
f 171/11/7 164/23/7 163/24/7 169/4/7 170/6/7 165/25/7 166/26/7 172/12/7
f 168/21/15 176/9/15 172/12/15 166/22/15
f 176/15/5 168/16/5 167/17/5 174/7/5 173/3/5 161/18/5 162/19/5 175/20/5
f 164/13/14 162/14/14 161/2/14 163/1/14
f 176/9/13 175/10/13 171/11/13 172/12/13
f 165/5/12 170/6/12 174/7/12 167/8/12
f 163/1/11 161/2/11 173/3/11 169/4/11
f 166/22/18 165/5/18 167/8/18 168/21/18
