# Blender 3.6.4
# www.blender.org
mtllib villager_head.mtl
o Cube
v -0.250000 -0.031250 0.250000
v -0.250000 0.593750 0.250000
v -0.250000 -0.031250 -0.250000
v -0.250000 0.593750 -0.250000
v 0.250000 -0.031250 0.250000
v 0.250000 0.593750 0.250000
v 0.250000 -0.031250 -0.250000
v 0.250000 0.593750 -0.250000
v -0.062500 -0.093750 0.375000
v -0.062500 0.156250 0.375000
v -0.062500 -0.093750 0.250000
v -0.062500 0.156250 0.250000
v 0.062500 -0.093750 0.375000
v 0.062500 0.156250 0.375000
v 0.062500 -0.093750 0.250000
v 0.062500 0.156250 0.250000
vn -1.0000 -0.0000 -0.0000
vn -0.0000 -0.0000 -1.0000
vn 1.0000 -0.0000 -0.0000
vn -0.0000 -0.0000 1.0000
vn -0.0000 -1.0000 -0.0000
vn -0.0000 1.0000 -0.0000
vt 0.125000 0.718750
vt 0.125000 0.875000
vt 0.000000 0.875000
vt 0.000000 0.718750
vt 0.500000 0.718750
vt 0.500000 0.875000
vt 0.375000 0.875000
vt 0.375000 0.718750
vt 0.250000 0.875000
vt 0.250000 0.718750
vt 0.250000 1.000000
vt 0.375000 1.000000
vt 0.375000 0.968750
vt 0.375000 0.906250
vt 0.406250 0.906250
vt 0.406250 0.968750
vt 0.468750 0.968750
vt 0.468750 0.906250
vt 0.500000 0.906250
vt 0.500000 0.968750
vt 0.437500 0.968750
vt 0.437500 0.906250
vt 0.406250 1.000000
vt 0.437500 1.000000
vt 0.468750 1.000000
vt 0.125000 1.000000
s 0
usemtl Villager
f 1/1/1 2/2/1 4/3/1 3/4/1
f 3/5/2 4/6/2 8/7/2 7/8/2
f 7/8/3 8/7/3 6/9/3 5/10/3
f 5/10/4 6/9/4 2/2/4 1/1/4
f 3/11/5 7/9/5 5/7/5 1/12/5
f 9/13/1 10/14/1 12/15/1 11/16/1
f 11/17/2 12/18/2 16/19/2 15/20/2
f 15/18/3 16/17/3 14/21/3 13/22/3
f 13/22/4 14/21/4 10/16/4 9/15/4
f 11/23/5 15/16/5 13/21/5 9/24/5
f 16/17/6 12/25/6 10/24/6 14/21/6
f 2/2/6 6/9/6 8/11/6 4/26/6
