# Blender 3.6.4
# www.blender.org
mtllib villager_body.mtl
o Cube.003
v 0.000000 -1.031250 0.125000
v 0.000000 -0.281250 0.125000
v 0.000000 -1.031250 -0.125000
v 0.000000 -0.281250 -0.125000
v 0.250000 -1.031250 0.125000
v 0.250000 -0.281250 0.125000
v 0.250000 -1.031250 -0.125000
v 0.250000 -0.281250 -0.125000
v 0.000000 -1.031250 0.125000
v 0.000000 -0.281250 0.125000
v 0.000000 -1.031250 -0.125000
v 0.000000 -0.281250 -0.125000
v -0.250000 -1.031250 0.125000
v -0.250000 -0.281250 0.125000
v -0.250000 -1.031250 -0.125000
v -0.250000 -0.281250 -0.125000
v -0.250000 0.135723 0.353553
v -0.250000 0.312500 0.176777
v -0.250000 -0.041053 0.176777
v -0.250000 0.135723 0.000000
v 0.250000 0.135723 0.353553
v 0.250000 0.312500 0.176777
v 0.250000 -0.041053 0.176777
v 0.250000 0.135723 0.000000
v 0.250000 0.135723 0.353553
v 0.250000 0.489277 0.000000
v 0.250000 -0.041053 0.176777
v 0.250000 0.312500 -0.176777
v 0.500000 0.135723 0.353553
v 0.500000 0.489277 0.000000
v 0.500000 -0.041053 0.176777
v 0.500000 0.312500 -0.176777
v -0.250000 0.135723 0.353553
v -0.250000 0.489277 0.000000
v -0.250000 -0.041053 0.176777
v -0.250000 0.312500 -0.176777
v -0.500000 0.135723 0.353553
v -0.500000 0.489277 0.000000
v -0.500000 -0.041053 0.176777
v -0.500000 0.312500 -0.176777
v -0.250000 -0.281250 0.187500
v -0.250000 0.468750 0.187500
v -0.250000 -0.281250 -0.187500
v -0.250000 0.468750 -0.187500
v 0.250000 -0.281250 0.187500
v 0.250000 0.468750 0.187500
v 0.250000 -0.281250 -0.187500
v 0.250000 0.468750 -0.187500
v -0.281250 -0.750000 0.210938
v -0.281250 0.500000 0.210938
v -0.281250 -0.750000 -0.210938
v -0.281250 0.500000 -0.210938
v 0.281250 -0.750000 0.210938
v 0.281250 0.500000 0.210938
v 0.281250 -0.750000 -0.210938
v 0.281250 0.500000 -0.210938
vn -1.0000 -0.0000 -0.0000
vn -0.0000 -0.0000 -1.0000
vn 1.0000 -0.0000 -0.0000
vn -0.0000 -0.0000 1.0000
vn -0.0000 -1.0000 -0.0000
vn -0.0000 1.0000 -0.0000
vn -0.0000 -0.7071 -0.7071
vn -0.0000 0.7071 0.7071
vn -0.0000 -0.7071 0.7071
vn -0.0000 0.7071 -0.7071
vt 0.062500 0.406250
vt 0.062500 0.593750
vt 0.000000 0.593750
vt 0.000000 0.406250
vt 0.250000 0.406250
vt 0.250000 0.593750
vt 0.187500 0.593750
vt 0.187500 0.406250
vt 0.125000 0.593750
vt 0.125000 0.406250
vt 0.125000 0.656250
vt 0.187500 0.656250
vt 0.062500 0.656250
vt 0.625000 0.562500
vt 0.625000 0.520833
vt 0.687500 0.520833
vt 0.687500 0.562500
vt 0.875000 0.343750
vt 0.875000 0.281250
vt 1.000000 0.281250
vt 1.000000 0.343750
vt 0.875000 0.520833
vt 0.875000 0.562500
vt 0.812500 0.562500
vt 0.812500 0.520833
vt 0.812500 0.343750
vt 0.812500 0.406250
vt 0.687500 0.406250
vt 0.687500 0.343750
vt 0.937500 0.343750
vt 0.937500 0.406250
vt 0.687500 0.281250
vt 0.812500 0.281250
vt 0.750000 0.468750
vt 0.750000 0.593750
vt 0.687500 0.593750
vt 0.687500 0.468750
vt 0.937500 0.468750
vt 0.937500 0.593750
vt 0.875000 0.593750
vt 0.875000 0.468750
vt 0.812500 0.593750
vt 0.812500 0.468750
vt 0.812500 0.656250
vt 0.875000 0.656250
vt 0.750000 0.656250
vt 0.343750 0.406250
vt 0.343750 0.593750
vt 0.562500 0.593750
vt 0.562500 0.406250
vt 0.468750 0.593750
vt 0.468750 0.406250
vt 0.468750 0.687500
vt 0.625000 0.593750
vt 0.625000 0.687500
vt 0.343750 0.687500
vt 0.093750 0.000000
vt 0.093750 0.312500
vt -0.000000 0.312500
vt 0.000000 0.000000
vt 0.437500 -0.000000
vt 0.437500 0.312500
vt 0.312500 0.312500
vt 0.312500 -0.000000
vt 0.218750 0.000000
vt 0.218750 0.312500
vt 0.218750 0.406250
vt 0.093750 0.406250
s 0
usemtl Villager
f 1/1/1 2/2/1 4/3/1 3/4/1
f 3/5/2 4/6/2 8/7/2 7/8/2
f 7/8/3 8/7/3 6/9/3 5/10/3
f 5/10/4 6/9/4 2/2/4 1/1/4
f 3/11/5 7/9/5 5/7/5 1/12/5
f 8/9/6 4/11/6 2/13/6 6/2/6
f 9/1/3 11/4/3 12/3/3 10/2/3
f 11/5/2 15/8/2 16/7/2 12/6/2
f 15/8/1 13/10/1 14/9/1 16/7/1
f 13/10/4 9/1/4 10/2/4 14/9/4
f 11/11/5 9/12/5 13/7/5 15/9/5
f 16/9/6 14/2/6 10/13/6 12/11/6
f 17/14/1 18/15/1 20/16/1 19/17/1
f 19/18/7 20/19/7 24/20/7 23/21/7
f 23/22/3 24/23/3 22/24/3 21/25/3
f 21/26/8 22/27/8 18/28/8 17/29/8
f 19/26/9 23/30/9 21/31/9 17/27/9
f 24/26/10 20/29/10 18/32/10 22/33/10
f 25/34/1 26/35/1 28/36/1 27/37/1
f 27/38/7 28/39/7 32/40/7 31/41/7
f 31/41/3 32/40/3 30/42/3 29/43/3
f 29/43/8 30/42/8 26/35/8 25/34/8
f 27/44/9 31/42/9 29/40/9 25/45/9
f 32/44/10 28/46/10 26/35/10 30/42/10
f 33/34/3 35/37/3 36/36/3 34/35/3
f 35/38/7 39/41/7 40/40/7 36/39/7
f 39/41/1 37/43/1 38/42/1 40/40/1
f 37/43/8 33/34/8 34/35/8 38/42/8
f 35/44/9 33/45/9 37/40/9 39/42/9
f 40/44/10 38/42/10 34/35/10 36/46/10
f 41/47/1 42/48/1 44/6/1 43/5/1
f 43/28/2 44/36/2 48/49/2 47/50/2
f 47/50/3 48/49/3 46/51/3 45/52/3
f 45/52/4 46/51/4 42/48/4 41/47/4
f 43/53/5 47/51/5 45/54/5 41/55/5
f 48/53/6 44/56/6 42/48/6 46/51/6
f 49/57/1 50/58/1 52/59/1 51/60/1
f 51/61/2 52/62/2 56/63/2 55/64/2
f 50/58/4 49/57/4 53/65/4 54/66/4
f 56/63/3 54/66/3 53/65/3 55/64/3
f 51/58/5 55/66/5 53/67/5 49/68/5
f 56/58/6 52/66/6 50/67/6 54/68/6
