# Blender 3.6.4
# www.blender.org
mtllib pistol_frame.mtl
o Frame
v 0.023437 -0.054688 0.531250
v 0.023438 0.148438 0.968750
v -0.023438 0.148438 0.968750
v 0.023438 0.125000 0.570312
v 0.023438 0.132812 0.562500
v 0.023438 0.062500 0.718750
v -0.023438 0.062500 0.718750
v 0.031250 0.000000 0.539062
v -0.031250 0.000000 0.539062
v 0.023438 0.062500 0.812500
v -0.023438 0.062500 0.812500
v 0.023438 0.125000 0.718750
v -0.023438 0.125000 0.718750
v -0.023438 0.125000 0.812500
v 0.023438 0.125000 0.812500
v -0.023438 0.132812 0.562500
v -0.015625 0.179688 0.981250
v -0.015625 0.195313 0.981250
v 0.015625 0.179688 0.981250
v 0.015625 0.195312 0.981250
v -0.015625 0.179688 0.825000
v -0.015625 0.195313 0.825000
v 0.015625 0.179688 0.825000
v 0.015625 0.195313 0.825000
v -0.007812 0.171875 0.981250
v 0.007812 0.171875 0.981250
v -0.007812 0.171875 0.825000
v 0.007812 0.171875 0.825000
v -0.007812 0.203125 0.825000
v 0.007812 0.203125 0.825000
v -0.007812 0.203125 0.981250
v 0.007812 0.203125 0.981250
v -0.023438 0.000000 0.531250
v -0.023438 0.062500 0.843750
v -0.023438 0.125000 0.843750
v -0.023438 0.156250 0.562500
v -0.023438 0.156250 0.968750
v 0.023437 0.000000 0.531250
v 0.023438 0.062500 0.843750
v 0.023438 0.125000 0.843750
v 0.023438 0.156250 0.562500
v 0.023438 0.156250 0.968750
v 0.031250 0.132812 0.843750
v -0.023438 0.140625 0.960938
v 0.023438 0.140625 0.960938
v 0.031250 0.156250 0.960938
v -0.031250 0.156250 0.960938
v -0.023438 0.125000 0.570312
v 0.031250 0.148438 0.960938
v -0.031250 0.148438 0.960938
v -0.023438 0.125000 0.843750
v 0.023438 0.125000 0.843750
v -0.031250 0.132812 0.843750
v 0.023438 0.039062 0.704768
v -0.023438 0.039062 0.706620
v 0.023438 0.031250 0.812500
v 0.023438 0.031250 0.714358
v 0.023438 0.039062 0.704768
v -0.023438 0.031250 0.812500
v -0.023438 0.031250 0.714939
v -0.023438 0.039062 0.706620
v -0.031250 0.062500 0.710938
v -0.031250 0.132812 0.710938
v 0.031250 0.132812 0.710938
v 0.031250 0.062500 0.710938
v 0.031250 0.132812 0.570312
v 0.031250 0.156250 0.570312
v -0.031250 0.156250 0.570312
v -0.031250 0.132812 0.570312
v 0.031250 0.132812 0.593750
v -0.031250 0.132812 0.593750
v 0.031250 -0.054688 0.648438
v -0.031250 -0.054688 0.648437
v 0.023438 -0.062500 0.648438
v -0.023438 -0.062500 0.648438
v 0.023438 -0.054688 0.656250
v -0.023438 -0.054688 0.656249
v 0.031250 -0.054688 0.539062
v -0.031250 -0.054688 0.539063
v 0.023438 -0.062500 0.539062
v -0.023438 -0.062500 0.539062
v 0.031250 0.093750 0.601562
v 0.023438 0.093750 0.593750
v -0.031250 0.093750 0.601562
v -0.023438 0.093750 0.593750
v -0.031250 0.117188 0.601562
v 0.031250 0.117188 0.601562
v 0.023438 0.117188 0.593750
v -0.023438 0.117188 0.593750
v -0.023438 -0.054687 0.531250
vn 0.5773 -0.5774 -0.5773
vn 1.0000 -0.0000 -0.0000
vn -0.0000 -0.7071 -0.7071
vn 0.7070 -0.0107 0.7071
vn 0.7071 -0.0102 0.7071
vn 0.7484 0.0106 0.6632
vn 0.7468 0.0099 0.6650
vn -0.5773 -0.5773 0.5774
vn -0.0000 1.0000 -0.0000
vn -0.0000 -0.0000 -1.0000
vn -0.0000 -1.0000 -0.0000
vn -0.0000 -0.4706 0.8824
vn 0.6667 -0.3333 -0.6667
vn 0.7071 0.7071 -0.0000
vn 0.7071 -0.7071 -0.0000
vn -1.0000 -0.0000 -0.0000
vn -0.0000 -0.0000 1.0000
vn -0.7071 -0.7071 -0.0000
vn -0.7071 0.7071 -0.0000
vn -0.6396 0.4264 -0.6396
vn -0.7071 -0.0000 -0.7071
vn -0.8285 -0.5523 -0.0921
vn -0.0000 -0.9912 0.1322
vn -0.0171 -0.7534 -0.6573
vn 0.7071 -0.0000 0.7071
vn 0.5774 -0.5774 0.5774
vn -0.7071 -0.0000 0.7071
vn -0.5774 -0.5774 0.5774
vn -0.0000 -0.7071 0.7071
vn -0.0000 -0.0150 0.9999
vn -0.0195 0.0146 0.9997
vn -0.0200 0.0150 0.9997
vn -0.0000 -0.0146 0.9999
vn 0.7071 -0.0000 -0.7071
vn -0.5773 -0.5774 -0.5773
vn -0.7040 -0.7040 0.0939
vn 0.7040 -0.7040 0.0939
vn 0.5773 -0.5773 0.5774
vn -0.5773 -0.5773 -0.5774
vn 0.6616 -0.3529 0.6616
vn 0.6396 0.4264 -0.6396
vn -0.0000 0.5547 -0.8321
vn -0.0000 -0.9487 -0.3162
vn 0.8285 -0.5523 -0.0921
vn -0.6667 -0.3333 -0.6667
vn -0.6616 -0.3529 0.6616
vn 0.5773 -0.5773 -0.5774
vt 0.447239 0.754067
vt 0.367399 0.531250
vt 0.375000 0.531250
vt 0.500000 0.750000
vt 0.583424 0.750000
vt 0.000000 0.000000
vt 0.218082 0.750000
vt 0.625000 0.750000
vt 0.125000 0.750000
vt 0.143728 0.750000
vt 0.443966 0.842417
vt 0.260422 0.750000
vt 0.218082 0.590532
vt 0.218082 0.500000
vt 0.625000 0.500000
vt 0.875000 0.500000
vt 0.875000 0.750000
vt 0.375000 0.500000
vt 0.375000 0.750000
vt 0.192324 0.500000
vt 0.260422 0.500000
vt 0.192324 0.750000
vt 0.375000 0.250000
vt 0.375000 0.000000
vt 0.125000 0.500000
vt 0.375000 0.717167
vt 0.125000 0.717167
vt 0.625000 0.218750
vt 0.375000 0.218750
vt 0.583424 0.531250
vt 0.687500 0.500000
vt 0.687500 0.750000
vt 0.562500 0.750000
vt 0.562500 0.500000
vt 0.312500 0.500000
vt 0.437500 0.500000
vt 0.437500 0.750000
vt 0.312500 0.750000
vt 0.437500 0.000000
vt 0.562500 0.000000
vt 0.562500 0.250000
vt 0.437500 0.250000
vt 0.812500 0.500000
vt 0.812500 0.750000
vt 0.437500 1.000000
vt 0.375000 0.937500
vt 0.375000 0.812500
vt 0.625000 0.812500
vt 0.625000 0.937500
vt 0.562500 1.000000
vt 0.187500 0.750000
vt 0.187500 0.500000
vt 0.625000 0.312500
vt 0.625000 0.437500
vt 0.375000 0.437500
vt 0.375000 0.312500
vt 0.450675 0.381960
vt 0.808239 0.562500
vt 0.625000 0.531250
vt 0.500000 0.500000
vt 0.420259 0.579800
vt 0.302292 0.500000
vt 0.125000 0.531250
vt 0.170657 0.531250
vt 0.625000 0.496192
vt 0.625000 0.531250
vt 0.436290 0.495894
vt 0.625000 0.255153
vt 0.345939 0.709686
vt 0.295930 0.736018
vt 0.375000 0.932676
vt 0.625000 0.997312
vt 0.625000 0.753975
vt 0.438154 0.999321
vt 0.834416 0.531250
vt 0.834416 0.531250
vt 0.437667 0.251292
vt 0.625000 0.000000
vt 0.625000 0.250000
vt 0.345720 0.271922
vt 0.492653 0.394123
vt 0.218082 0.669245
vt 0.420259 0.644263
vt 0.302292 0.669245
vt 0.302292 0.590532
vt 0.302292 0.750000
vt 0.625000 0.531250
vt 0.500000 0.531250
vt 0.436785 0.407950
vt 0.144141 0.500000
vt 0.417122 0.354554
vt 0.583424 0.500000
s 0
usemtl Plastic
f 66/1/1 4/2/1 5/3/1
f 82/4/2 87/5/2 70/6/2 64/6/2 65/6/2 72/7/2 78/6/2 8/8/2
f 4/2/3 48/2/3 16/3/3 5/3/3
f 6/9/4 65/10/5 64/11/6 12/12/7
f 75/13/8 77/6/8 73/14/8
f 7/15/9 11/16/9 10/17/9 6/8/9
f 11/18/10 14/15/10 15/8/10 10/19/10
f 14/20/11 13/21/11 12/12/11 15/22/11
f 7/23/12 77/6/12 76/6/12 6/24/12
f 59/25/11 60/18/11 57/26/11 56/27/11
f 56/6/2 10/19/2 15/8/2 40/28/2 39/29/2
f 87/5/13 88/30/13 70/6/13
f 2/57/17 42/58/17 37/58/17 3/57/17
f 10/19/2 56/6/2 57/26/2 58/26/2 6/8/2
f 39/29/17 40/28/17 35/28/17 34/29/17
f 33/59/20 9/6/20 84/60/20 85/6/20
f 33/59/21 90/61/21 79/62/21 9/6/21
f 89/6/22 71/6/22 69/6/22 48/6/22
f 11/18/16 59/6/16 34/29/16 35/28/16 14/15/16
f 44/63/23 35/64/23 40/64/23 45/63/23
f 68/65/21 36/66/21 16/3/21 69/67/21
f 16/3/10 36/66/10 41/66/10 5/3/10
f 47/68/16 68/65/16 69/67/16 53/6/16 50/6/16
f 60/18/24 61/18/24 58/26/24 57/26/24
f 12/12/15 64/11/15 43/69/15 52/70/15 15/71/15
f 11/18/16 7/15/16 61/18/16 60/18/16 59/6/16
f 46/72/2 49/6/2 43/6/2 66/1/2 67/73/2
f 2/57/25 49/74/25 46/72/25 42/75/25
f 49/74/26 2/57/26 45/6/26
f 3/57/27 37/76/27 47/68/27 50/77/27
f 50/77/28 44/6/28 3/57/28
f 2/57/29 3/57/29 44/63/29 45/6/29
f 6/24/30 12/78/31 13/79/32 7/23/33
f 34/29/29 59/6/29 56/27/29 39/29/29
f 5/3/34 41/66/34 67/73/34 66/1/34
f 69/67/35 16/3/35 48/2/35
f 53/80/36 51/81/36 44/6/36 50/6/36
f 52/70/37 43/69/37 49/6/37 45/6/37
f 72/7/38 76/6/38 74/82/38
f 1/83/3 80/84/3 81/85/3 90/61/3
f 90/61/39 81/85/39 79/62/39
f 6/24/40 76/6/40 72/7/40 65/6/40
f 73/14/18 79/62/18 81/85/18 75/13/18
f 75/13/11 81/85/11 80/84/11 74/82/11
f 74/82/15 80/84/15 78/86/15 72/7/15
f 74/82/29 76/6/29 77/6/29 75/13/29
f 8/8/41 38/87/41 83/88/41 82/4/41
f 7/25/27 13/21/27 63/89/27 62/90/27
f 38/87/42 33/59/42 85/6/42 83/6/42
f 88/30/10 83/88/10 85/6/10 89/91/10
f 48/2/43 4/2/43 88/30/43 89/91/43
f 84/60/21 86/92/21 89/30/21 85/88/21
f 83/88/34 88/30/34 87/5/34 82/4/34
f 4/6/44 66/6/44 70/6/44 88/6/44
f 33/59/10 38/87/10 1/83/10 90/61/10
f 89/30/45 86/92/45 71/6/45
f 13/21/18 14/15/18 51/81/18 53/80/18 63/89/18
f 37/76/9 42/75/9 46/72/9 67/73/9 41/66/9 36/66/9 68/65/9 47/68/9
f 62/6/16 63/6/16 71/6/16 86/92/16 84/6/16 9/6/16 79/62/16 73/14/16
f 7/23/46 62/6/46 73/14/46 77/6/46
f 38/87/34 8/8/34 78/6/34 1/83/34
f 1/83/47 78/6/47 80/84/47
usemtl Steel
f 30/31/14 32/32/14 20/33/14 24/34/14
f 28/35/15 23/36/15 19/37/15 26/38/15
f 17/39/16 18/40/16 22/41/16 21/42/16
f 29/43/9 31/44/9 32/32/9 30/31/9
f 17/45/17 25/46/17 26/47/17 19/37/17 20/33/17 32/48/17 31/49/17 18/50/17
f 25/51/18 17/39/18 21/42/18 27/52/18
f 22/41/10 29/53/10 30/54/10 24/34/10 23/36/10 28/55/10 27/56/10 21/42/10
f 23/36/2 24/34/2 20/33/2 19/37/2
f 18/40/19 31/44/19 29/43/19 22/41/19
f 27/52/11 28/35/11 26/38/11 25/51/11
l 58 54
l 55 61
