# Blender 3.6.4
# www.blender.org
mtllib pistol_slide.mtl
o Cube.001
v 0.007812 0.218750 0.598437
v 0.007812 0.234375 0.598437
v 0.007812 0.218750 0.582812
v 0.007812 0.234375 0.582812
v 0.023438 0.218750 0.598437
v 0.023438 0.234375 0.598437
v 0.023438 0.218750 0.582812
v 0.023438 0.234375 0.582812
v -0.023438 0.218750 0.598437
v -0.023438 0.234375 0.598437
v -0.023438 0.218750 0.582812
v -0.023438 0.234375 0.582812
v -0.007812 0.218750 0.598437
v -0.007812 0.234375 0.598437
v -0.007812 0.218750 0.582812
v -0.007812 0.234375 0.582812
v 0.023438 0.156250 0.562500
v -0.023438 0.156250 0.562500
v 0.023438 0.156250 0.968750
v -0.023438 0.156250 0.968750
v -0.023438 0.210938 0.562500
v 0.023438 0.210938 0.562500
v -0.023438 0.210938 0.968750
v 0.023438 0.210938 0.968750
v 0.031250 0.156250 0.960937
v -0.031250 0.156250 0.960937
v -0.031250 0.210938 0.960937
v 0.031250 0.210938 0.960937
v 0.023438 0.218750 0.960937
v -0.023438 0.218750 0.960937
v -0.007812 0.218750 0.957812
v -0.007812 0.234375 0.957812
v -0.007812 0.218750 0.942187
v -0.007812 0.234375 0.942187
v 0.007812 0.218750 0.957812
v 0.007812 0.234375 0.957812
v 0.007812 0.218750 0.942187
v 0.007812 0.234375 0.942187
v 0.031250 0.156250 0.570312
v -0.031250 0.156250 0.570312
v -0.031250 0.210938 0.570312
v 0.031250 0.210938 0.570312
v 0.023438 0.218750 0.570312
v -0.023438 0.218750 0.570312
vn -1.0000 -0.0000 -0.0000
vn -0.0000 -0.0000 -1.0000
vn 1.0000 -0.0000 -0.0000
vn -0.0000 -0.0000 1.0000
vn -0.0000 -1.0000 -0.0000
vn -0.0000 1.0000 -0.0000
vn -0.0000 0.7071 0.7071
vn 0.7071 -0.0000 0.7071
vn 0.5774 0.5774 0.5773
vn -0.7071 -0.0000 -0.7071
vn -0.5774 0.5774 -0.5774
vn -0.0000 0.7071 -0.7071
vn 0.5774 0.5774 -0.5774
vn 0.7071 -0.0000 -0.7071
vn -0.7071 -0.0000 0.7071
vn -0.5774 0.5774 0.5773
vn -0.7071 0.7071 -0.0000
vn 0.7071 0.7071 -0.0000
vt 0.375000 0.000000
vt 0.625000 0.000000
vt 0.625000 0.250000
vt 0.375000 0.250000
vt 0.625000 0.500000
vt 0.375000 0.500000
vt 0.625000 0.750000
vt 0.375000 0.750000
vt 0.625000 1.000000
vt 0.375000 1.000000
vt 0.125000 0.500000
vt 0.125000 0.750000
vt 0.875000 0.500000
vt 0.875000 0.750000
vt 0.864907 0.964897
vt 0.964897 0.864907
vt 0.000000 0.000000
vt 0.120317 0.107676
vt 0.609402 0.486765
vt 0.142918 0.042928
vt 0.042928 0.142918
vt 0.625000 0.718750
vt 0.632563 0.750000
vt 0.869695 0.750000
vt 0.875000 0.718750
vt 0.875000 0.531250
vt 0.869695 0.500000
vt 0.632563 0.500000
vt 0.625000 0.531250
vt 0.109375 0.089844
vt 0.109375 0.066406
vt 0.120317 0.071784
vt 0.609402 0.730148
s 0
usemtl Steel
f 1/1/1 2/2/1 4/3/1 3/4/1
f 3/4/2 4/3/2 8/5/2 7/6/2
f 7/6/3 8/5/3 6/7/3 5/8/3
f 5/8/4 6/7/4 2/9/4 1/10/4
f 3/11/5 7/6/5 5/8/5 1/12/5
f 8/5/6 4/13/6 2/14/6 6/7/6
f 9/1/1 10/2/1 12/3/1 11/4/1
f 11/4/2 12/3/2 16/5/2 15/6/2
f 15/6/3 16/5/3 14/7/3 13/8/3
f 13/8/4 14/7/4 10/9/4 9/10/4
f 11/11/5 15/6/5 13/8/5 9/12/5
f 16/5/6 12/13/6 10/14/6 14/7/6
f 29/15/7 30/16/7 23/17/7 24/17/7
f 25/17/8 28/18/8 24/17/8 19/17/8
f 24/17/9 28/18/9 29/15/9
f 21/17/10 18/17/10 40/17/10 41/19/10
f 41/19/11 44/20/11 21/17/11
f 22/17/12 21/17/12 44/17/12 43/21/12
f 22/17/13 43/21/13 42/17/13
f 17/22/14 22/17/14 42/17/14 39/23/14
f 39/23/5 25/24/5 19/25/5 20/26/5 26/27/5 40/28/5 18/29/5 17/22/5
f 19/25/4 24/30/4 23/31/4 20/26/4
f 27/32/15 26/17/15 20/17/15 23/17/15
f 27/32/16 23/17/16 30/16/16
f 21/29/2 22/22/2 17/22/2 18/29/2
f 31/1/1 32/2/1 34/3/1 33/4/1
f 33/4/2 34/3/2 38/5/2 37/6/2
f 37/6/3 38/5/3 36/7/3 35/8/3
f 35/8/4 36/7/4 32/9/4 31/10/4
f 33/11/5 37/6/5 35/8/5 31/12/5
f 38/5/6 34/13/6 32/14/6 36/7/6
f 27/32/1 41/19/1 40/28/1 26/27/1
f 27/32/17 30/16/17 44/20/17 41/19/17
f 28/18/18 42/33/18 43/21/18 29/15/18
f 42/33/3 28/18/3 25/24/3 39/23/3
f 43/21/6 44/20/6 30/16/6 29/15/6
