# Blender 3.6.4
# www.blender.org
mtllib block.mtl
o Cube
v -0.500000 -0.500000 0.500000
v -0.500000 0.500000 0.500000
v -0.500000 -0.500000 -0.500000
v -0.500000 0.500000 -0.500000
v 0.500000 -0.500000 0.500000
v 0.500000 0.500000 0.500000
v 0.500000 -0.500000 -0.500000
v 0.500000 0.500000 -0.500000
vn -1.0000 -0.0000 -0.0000
vn -0.0000 -0.0000 -1.0000
vn 1.0000 -0.0000 -0.0000
vn -0.0000 -0.0000 1.0000
vn -0.0000 -1.0000 -0.0000
vn -0.0000 1.0000 -0.0000
vt 0.250000 0.333333
vt 0.250000 0.666667
vt 0.000000 0.666667
vt 0.000000 0.333333
vt 1.000000 0.333333
vt 1.000000 0.666667
vt 0.750000 0.666667
vt 0.750000 0.333333
vt 0.500000 0.666667
vt 0.500000 0.333333
vt 0.500000 -0.000000
vt 0.250000 -0.000000
vt 0.500000 1.000000
vt 0.250000 1.000000
s 0
usemtl Block
f 1/1/1 2/2/1 4/3/1 3/4/1
f 3/5/2 4/6/2 8/7/2 7/8/2
f 7/8/3 8/7/3 6/9/3 5/10/3
f 5/10/4 6/9/4 2/2/4 1/1/4
f 3/1/5 7/10/5 5/11/5 1/12/5
f 8/2/6 4/9/6 2/13/6 6/14/6
