# Blender 3.6.4
# www.blender.org
mtllib grass44.mtl
o Cube.003
v -0.500000 -0.500000 2.500000
v -0.500000 0.500000 2.500000
v -0.500000 -0.500000 1.500000
v -0.500000 0.500000 1.500000
v 0.500000 -0.500000 2.500000
v 0.500000 0.500000 2.500000
v 0.500000 -0.500000 1.500000
v 0.500000 0.500000 1.500000
v -0.500000 -0.500000 3.500000
v -0.500000 0.500000 3.500000
v -0.500000 -0.500000 2.500000
v -0.500000 0.500000 2.500000
v 0.500000 -0.500000 3.500000
v 0.500000 0.500000 3.500000
v 0.500000 -0.500000 2.500000
v 0.500000 0.500000 2.500000
v -0.500000 -0.500000 0.500000
v -0.500000 0.500000 0.500000
v -0.500000 -0.500000 -0.500000
v -0.500000 0.500000 -0.500000
v 0.500000 -0.500000 0.500000
v 0.500000 0.500000 0.500000
v 0.500000 -0.500000 -0.500000
v 0.500000 0.500000 -0.500000
v -0.500000 -0.500000 1.500000
v -0.500000 0.500000 1.500000
v -0.500000 -0.500000 0.500000
v -0.500000 0.500000 0.500000
v 0.500000 -0.500000 1.500000
v 0.500000 0.500000 1.500000
v 0.500000 -0.500000 0.500000
v 0.500000 0.500000 0.500000
v -3.500000 -0.500000 0.500000
v -3.500000 0.500000 0.500000
v -3.500000 -0.500000 -0.500000
v -3.500000 0.500000 -0.500000
v -2.500000 -0.500000 0.500000
v -2.500000 0.500000 0.500000
v -2.500000 -0.500000 -0.500000
v -2.500000 0.500000 -0.500000
v -2.500000 -0.500000 0.500000
v -2.500000 0.500000 0.500000
v -2.500000 -0.500000 -0.500000
v -2.500000 0.500000 -0.500000
v -1.500000 -0.500000 0.500000
v -1.500000 0.500000 0.500000
v -1.500000 -0.500000 -0.500000
v -1.500000 0.500000 -0.500000
v -1.500000 -0.500000 0.500000
v -1.500000 0.500000 0.500000
v -1.500000 -0.500000 -0.500000
v -1.500000 0.500000 -0.500000
v -0.500000 -0.500000 0.500000
v -0.500000 0.500000 0.500000
v -0.500000 -0.500000 -0.500000
v -0.500000 0.500000 -0.500000
v -3.500000 -0.500000 1.500000
v -3.500000 0.500000 1.500000
v -3.500000 -0.500000 0.500000
v -3.500000 0.500000 0.500000
v -2.500000 -0.500000 1.500000
v -2.500000 0.500000 1.500000
v -2.500000 -0.500000 0.500000
v -2.500000 0.500000 0.500000
v -2.500000 -0.500000 1.500000
v -2.500000 0.500000 1.500000
v -2.500000 -0.500000 0.500000
v -2.500000 0.500000 0.500000
v -1.500000 -0.500000 1.500000
v -1.500000 0.500000 1.500000
v -1.500000 -0.500000 0.500000
v -1.500000 0.500000 0.500000
v -1.500000 -0.500000 1.500000
v -1.500000 0.500000 1.500000
v -1.500000 -0.500000 0.500000
v -1.500000 0.500000 0.500000
v -0.500000 -0.500000 1.500000
v -0.500000 0.500000 1.500000
v -0.500000 -0.500000 0.500000
v -0.500000 0.500000 0.500000
v -3.500000 -0.500000 2.500000
v -3.500000 0.500000 2.500000
v -3.500000 -0.500000 1.500000
v -3.500000 0.500000 1.500000
v -2.500000 -0.500000 2.500000
v -2.500000 0.500000 2.500000
v -2.500000 -0.500000 1.500000
v -2.500000 0.500000 1.500000
v -2.500000 -0.500000 2.500000
v -2.500000 0.500000 2.500000
v -2.500000 -0.500000 1.500000
v -2.500000 0.500000 1.500000
v -1.500000 -0.500000 2.500000
v -1.500000 0.500000 2.500000
v -1.500000 -0.500000 1.500000
v -1.500000 0.500000 1.500000
v -1.500000 -0.500000 2.500000
v -1.500000 0.500000 2.500000
v -1.500000 -0.500000 1.500000
v -1.500000 0.500000 1.500000
v -0.500000 -0.500000 2.500000
v -0.500000 0.500000 2.500000
v -0.500000 -0.500000 1.500000
v -0.500000 0.500000 1.500000
v -3.500000 -0.500000 3.500000
v -3.500000 0.500000 3.500000
v -3.500000 -0.500000 2.500000
v -3.500000 0.500000 2.500000
v -2.500000 -0.500000 3.500000
v -2.500000 0.500000 3.500000
v -2.500000 -0.500000 2.500000
v -2.500000 0.500000 2.500000
v -2.500000 -0.500000 3.500000
v -2.500000 0.500000 3.500000
v -2.500000 -0.500000 2.500000
v -2.500000 0.500000 2.500000
v -1.500000 -0.500000 3.500000
v -1.500000 0.500000 3.500000
v -1.500000 -0.500000 2.500000
v -1.500000 0.500000 2.500000
v -1.500000 -0.500000 3.500000
v -1.500000 0.500000 3.500000
v -1.500000 -0.500000 2.500000
v -1.500000 0.500000 2.500000
v -0.500000 -0.500000 3.500000
v -0.500000 0.500000 3.500000
v -0.500000 -0.500000 2.500000
v -0.500000 0.500000 2.500000
vn 1.0000 -0.0000 -0.0000
vn -0.0000 -1.0000 -0.0000
vn -0.0000 1.0000 -0.0000
vn -0.0000 -0.0000 1.0000
vn -0.0000 -0.0000 -1.0000
vn -1.0000 -0.0000 -0.0000
vt 0.750000 0.333333
vt 0.750000 0.666667
vt 0.500000 0.666667
vt 0.500000 0.333333
vt 0.250000 0.333333
vt 0.500000 -0.000000
vt 0.250000 -0.000000
vt 0.250000 0.666667
vt 0.500000 1.000000
vt 0.250000 1.000000
vt 1.000000 0.333333
vt 1.000000 0.666667
vt 0.000000 0.666667
vt 0.000000 0.333333
s 0
usemtl grass
f 7/1/1 8/2/1 6/3/1 5/4/1
f 3/5/2 7/4/2 5/6/2 1/7/2
f 8/8/3 4/3/3 2/9/3 6/10/3
f 15/1/1 16/2/1 14/3/1 13/4/1
f 13/4/4 14/3/4 10/8/4 9/5/4
f 11/5/2 15/4/2 13/6/2 9/7/2
f 16/8/3 12/3/3 10/9/3 14/10/3
f 19/11/5 20/12/5 24/2/5 23/1/5
f 23/1/1 24/2/1 22/3/1 21/4/1
f 19/5/2 23/4/2 21/6/2 17/7/2
f 24/8/3 20/3/3 18/9/3 22/10/3
f 31/1/1 32/2/1 30/3/1 29/4/1
f 27/5/2 31/4/2 29/6/2 25/7/2
f 32/8/3 28/3/3 26/9/3 30/10/3
f 33/5/6 34/8/6 36/13/6 35/14/6
f 35/11/5 36/12/5 40/2/5 39/1/5
f 35/5/2 39/4/2 37/6/2 33/7/2
f 40/8/3 36/3/3 34/9/3 38/10/3
f 43/11/5 44/12/5 48/2/5 47/1/5
f 43/5/2 47/4/2 45/6/2 41/7/2
f 48/8/3 44/3/3 42/9/3 46/10/3
f 51/11/5 52/12/5 56/2/5 55/1/5
f 51/5/2 55/4/2 53/6/2 49/7/2
f 56/8/3 52/3/3 50/9/3 54/10/3
f 57/5/6 58/8/6 60/13/6 59/14/6
f 59/5/2 63/4/2 61/6/2 57/7/2
f 64/8/3 60/3/3 58/9/3 62/10/3
f 67/5/2 71/4/2 69/6/2 65/7/2
f 72/8/3 68/3/3 66/9/3 70/10/3
f 75/5/2 79/4/2 77/6/2 73/7/2
f 80/8/3 76/3/3 74/9/3 78/10/3
f 81/5/6 82/8/6 84/13/6 83/14/6
f 83/5/2 87/4/2 85/6/2 81/7/2
f 88/8/3 84/3/3 82/9/3 86/10/3
f 91/5/2 95/4/2 93/6/2 89/7/2
f 96/8/3 92/3/3 90/9/3 94/10/3
f 99/5/2 103/4/2 101/6/2 97/7/2
f 104/8/3 100/3/3 98/9/3 102/10/3
f 105/5/6 106/8/6 108/13/6 107/14/6
f 109/4/4 110/3/4 106/8/4 105/5/4
f 107/5/2 111/4/2 109/6/2 105/7/2
f 112/8/3 108/3/3 106/9/3 110/10/3
f 117/4/4 118/3/4 114/8/4 113/5/4
f 115/5/2 119/4/2 117/6/2 113/7/2
f 120/8/3 116/3/3 114/9/3 118/10/3
f 125/4/4 126/3/4 122/8/4 121/5/4
f 123/5/2 127/4/2 125/6/2 121/7/2
f 128/8/3 124/3/3 122/9/3 126/10/3
