# Blender 3.6.4
# www.blender.org
mtllib thinblock.mtl
o Cube
v -0.500000 -0.500000 0.500000
v -0.500000 0.500000 0.500000
v -0.500000 -0.500000 0.312500
v -0.500000 0.500000 0.312500
v 0.500000 -0.500000 0.500000
v 0.500000 0.500000 0.500000
v 0.500000 -0.500000 0.312500
v 0.500000 0.500000 0.312500
vn -1.0000 -0.0000 -0.0000
vn -0.0000 -0.0000 -1.0000
vn 1.0000 -0.0000 -0.0000
vn -0.0000 -0.0000 1.0000
vn -0.0000 -1.0000 -0.0000
vn -0.0000 1.0000 -0.0000
vt 0.375000 0.000000
vt 0.625000 0.000000
vt 0.625000 0.250000
vt 0.375000 0.250000
vt 0.000000 0.000000
vt 0.000000 1.000000
vt 1.000000 1.000000
vt 1.000000 0.000000
vt 0.375000 0.500000
vt 0.625000 0.500000
vt 0.625000 0.750000
vt 0.375000 0.750000
vt 0.125000 0.500000
vt 0.125000 0.750000
vt 1.000000 0.750000
vt 1.250000 0.750000
vt 1.250000 1.000000
s 0
usemtl UpperDoor
f 3/5/2 4/6/2 8/7/2 7/8/2
f 5/8/4 6/7/4 2/6/4 1/5/4
usemtl Empty
f 1/1/1 2/2/1 4/3/1 3/4/1
f 7/9/3 8/10/3 6/11/3 5/12/3
f 3/13/5 7/9/5 5/12/5 1/14/5
f 8/15/6 4/16/6 2/17/6 6/7/6
