# Blender 3.6.4
# www.blender.org
mtllib witch_leftleg.mtl
o Cube.003
v -0.125000 -0.750000 0.125000
v -0.125000 0.000000 0.125000
v -0.125000 -0.750000 -0.125000
v -0.125000 0.000000 -0.125000
v 0.125000 -0.750000 0.125000
v 0.125000 0.000000 0.125000
v 0.125000 -0.750000 -0.125000
v 0.125000 0.000000 -0.125000
vn -1.0000 -0.0000 -0.0000
vn -0.0000 -0.0000 -1.0000
vn 1.0000 -0.0000 -0.0000
vn -0.0000 -0.0000 1.0000
vn -0.0000 -1.0000 -0.0000
vn -0.0000 1.0000 -0.0000
vt 0.062500 0.604167
vt 0.062500 0.729167
vt -0.000000 0.729167
vt 0.000000 0.604167
vt 0.250000 0.604167
vt 0.250000 0.729167
vt 0.187500 0.729167
vt 0.187500 0.604167
vt 0.125000 0.729167
vt 0.125000 0.604167
vt 0.125000 0.770833
vt 0.187500 0.770833
vt 0.062500 0.770833
s 0
usemtl Witch
f 1/1/1 2/2/1 4/3/1 3/4/1
f 3/5/2 4/6/2 8/7/2 7/8/2
f 7/8/3 8/7/3 6/9/3 5/10/3
f 5/10/4 6/9/4 2/2/4 1/1/4
f 3/11/5 7/9/5 5/7/5 1/12/5
f 8/9/6 4/11/6 2/13/6 6/2/6
