# Blender 3.6.4
# www.blender.org
mtllib witch_head.mtl
o Cube
v -0.250000 0.000000 0.250000
v -0.250000 0.625000 0.250000
v -0.250000 0.000000 -0.250000
v -0.250000 0.625000 -0.250000
v 0.250000 0.000000 0.250000
v 0.250000 0.625000 0.250000
v 0.250000 0.000000 -0.250000
v 0.250000 0.625000 -0.250000
v -0.062500 -0.062500 0.375000
v -0.062500 0.187500 0.375000
v -0.062500 -0.062500 0.250000
v -0.062500 0.187500 0.250000
v 0.062500 -0.062500 0.375000
v 0.062500 0.187500 0.375000
v 0.062500 -0.062500 0.250000
v 0.062500 0.187500 0.250000
v 0.000000 0.078125 0.406250
v 0.000000 0.109375 0.406250
v 0.000000 0.078125 0.375000
v 0.000000 0.109375 0.375000
v 0.031250 0.078125 0.406250
v 0.031250 0.109375 0.406250
v 0.031250 0.078125 0.375000
v 0.031250 0.109375 0.375000
v -0.312500 0.500000 0.312500
v -0.312500 0.625000 0.312500
v -0.312500 0.500000 -0.312500
v -0.312500 0.625000 -0.312500
v 0.312500 0.500000 0.312500
v 0.312500 0.625000 0.312500
v 0.312500 0.500000 -0.312500
v 0.312500 0.625000 -0.312500
v -0.250000 0.625000 0.250000
v -0.250000 0.874049 0.228211
v -0.250000 0.581422 -0.248097
v -0.250000 0.830471 -0.269886
v 0.250000 0.625000 0.250000
v 0.250000 0.874049 0.228211
v 0.250000 0.581422 -0.248097
v 0.250000 0.830471 -0.269886
v -0.125000 0.863154 0.103687
v -0.125000 1.109356 0.060275
v -0.125000 0.819742 -0.142515
v -0.125000 1.065944 -0.185927
v 0.125000 0.863154 0.103687
v 0.125000 1.109356 0.060275
v 0.125000 0.819742 -0.142515
v 0.125000 1.065944 -0.185927
v -0.031250 1.093077 -0.032051
v -0.031250 1.213817 -0.064403
v -0.031250 1.076900 -0.092421
v -0.031250 1.197641 -0.124774
v 0.031250 1.093077 -0.032051
v 0.031250 1.213817 -0.064403
v 0.031250 1.076900 -0.092421
v 0.031250 1.197641 -0.124774
vn -1.0000 -0.0000 -0.0000
vn -0.0000 -0.0000 -1.0000
vn 1.0000 -0.0000 -0.0000
vn -0.0000 -0.0000 1.0000
vn -0.0000 -1.0000 -0.0000
vn -0.0000 1.0000 -0.0000
vn -0.0000 -0.0872 -0.9962
vn -0.0000 0.0872 0.9962
vn -0.0000 -0.9962 0.0872
vn -0.0000 0.9962 -0.0872
vn -0.0000 -0.1736 -0.9848
vn -0.0000 0.1736 0.9848
vn -0.0000 -0.9848 0.1736
vn -0.0000 0.9848 -0.1736
vn -0.0000 -0.2588 -0.9659
vn -0.0000 0.2588 0.9659
vn -0.0000 -0.9659 0.2588
vn -0.0000 0.9659 -0.2588
vt 0.125000 0.812500
vt 0.125000 0.916667
vt -0.000000 0.916667
vt 0.000000 0.812500
vt 0.500000 0.812500
vt 0.500000 0.916667
vt 0.375000 0.916667
vt 0.375000 0.812500
vt 0.250000 0.916667
vt 0.250000 0.812500
vt 0.250000 1.000000
vt 0.375000 1.000000
vt 0.125000 1.000000
vt 0.375000 0.979167
vt 0.375000 0.937500
vt 0.406250 0.937500
vt 0.406250 0.979167
vt 0.468750 0.979167
vt 0.468750 0.937500
vt 0.500000 0.937500
vt 0.500000 0.979167
vt 0.437500 0.979167
vt 0.437500 0.937500
vt 0.406250 1.000000
vt 0.437500 1.000000
vt 0.468750 1.000000
vt 0.000000 0.989583
vt 0.000000 0.979167
vt 0.015625 0.979167
vt 0.015625 0.989583
vt 0.046875 0.989583
vt 0.046875 0.979167
vt 0.062500 0.979167
vt 0.062500 0.989583
vt 0.031250 0.989583
vt 0.031250 0.979167
vt 0.031250 1.000000
vt 0.046875 1.000000
vt 0.015625 1.000000
vt 0.000000 0.229167
vt 0.000000 0.208333
vt 0.156250 0.208333
vt 0.156250 0.229167
vt 0.468750 0.229167
vt 0.468750 0.208333
vt 0.625000 0.208333
vt 0.625000 0.229167
vt 0.312500 0.229167
vt 0.312500 0.208333
vt 0.312500 0.333333
vt 0.468750 0.333333
vt 0.156250 0.333333
vt 0.109375 0.093750
vt 0.109375 0.135417
vt 0.000000 0.135417
vt -0.000000 0.093750
vt 0.437500 0.093750
vt 0.437500 0.135417
vt 0.328125 0.135417
vt 0.328125 0.093750
vt 0.218750 0.135417
vt 0.218750 0.093750
vt 0.000000 0.052083
vt 0.000000 0.010417
vt 0.062500 0.010417
vt 0.062500 0.052083
vt 0.125000 0.052083
vt 0.125000 0.010417
vt 0.187500 0.010417
vt 0.187500 0.052083
vt 0.125000 0.093750
vt 0.187500 0.093750
vt 0.062500 0.093750
vt 0.281250 0.031250
vt 0.281250 0.010417
vt 0.296875 0.010417
vt 0.296875 0.031250
vt 0.328125 0.031250
vt 0.328125 0.010417
vt 0.343750 0.010417
vt 0.343750 0.031250
vt 0.312500 0.031250
vt 0.312500 0.010417
vt 0.312500 0.041667
vt 0.328125 0.041667
vt 0.296875 0.041667
s 0
usemtl Witch
f 1/1/1 2/2/1 4/3/1 3/4/1
f 3/5/2 4/6/2 8/7/2 7/8/2
f 7/8/3 8/7/3 6/9/3 5/10/3
f 5/10/4 6/9/4 2/2/4 1/1/4
f 3/11/5 7/9/5 5/7/5 1/12/5
f 8/11/6 4/13/6 2/2/6 6/9/6
f 9/14/1 10/15/1 12/16/1 11/17/1
f 11/18/2 12/19/2 16/20/2 15/21/2
f 15/19/3 16/18/3 14/22/3 13/23/3
f 13/23/4 14/22/4 10/17/4 9/16/4
f 11/24/5 15/17/5 13/22/5 9/25/5
f 16/18/6 12/26/6 10/25/6 14/22/6
f 17/27/1 18/28/1 20/29/1 19/30/1
f 19/31/2 20/32/2 24/33/2 23/34/2
f 23/32/3 24/31/3 22/35/3 21/36/3
f 21/36/4 22/35/4 18/30/4 17/29/4
f 19/37/5 23/35/5 21/31/5 17/38/5
f 24/35/6 20/37/6 18/39/6 22/30/6
f 25/40/1 26/41/1 28/42/1 27/43/1
f 27/44/2 28/45/2 32/46/2 31/47/2
f 31/45/3 32/44/3 30/48/3 29/49/3
f 29/49/4 30/48/4 26/43/4 25/42/4
f 27/50/5 31/48/5 29/44/5 25/51/5
f 32/48/6 28/50/6 26/52/6 30/43/6
f 33/53/1 34/54/1 36/55/1 35/56/1
f 35/57/7 36/58/7 40/59/7 39/60/7
f 39/60/3 40/59/3 38/61/3 37/62/3
f 37/62/8 38/61/8 34/54/8 33/53/8
f 35/50/9 39/48/9 37/44/9 33/51/9
f 40/48/10 36/50/10 34/52/10 38/43/10
f 41/63/1 42/64/1 44/65/1 43/66/1
f 43/67/11 44/68/11 48/69/11 47/70/11
f 47/69/3 48/70/3 46/67/3 45/68/3
f 45/68/12 46/67/12 42/66/12 41/65/12
f 43/71/13 47/67/13 45/70/13 41/72/13
f 48/67/14 44/71/14 42/73/14 46/66/14
f 49/74/1 50/75/1 52/76/1 51/77/1
f 51/78/15 52/79/15 56/80/15 55/81/15
f 55/79/3 56/78/3 54/82/3 53/83/3
f 53/83/16 54/82/16 50/77/16 49/76/16
f 51/84/17 55/82/17 53/78/17 49/85/17
f 56/82/18 52/84/18 50/86/18 54/77/18
