# Blender 3.6.4
# www.blender.org
mtllib skeleton_rightleg.mtl
o Cube.005
v -0.062500 -0.750000 0.062500
v -0.062500 0.000000 0.062500
v -0.062500 -0.750000 -0.062500
v -0.062500 0.000000 -0.062500
v 0.062500 -0.750000 0.062500
v 0.062500 0.000000 0.062500
v 0.062500 -0.750000 -0.062500
v 0.062500 0.000000 -0.062500
vn -1.0000 -0.0000 -0.0000
vn -0.0000 -0.0000 -1.0000
vn 1.0000 -0.0000 -0.0000
vn -0.0000 -0.0000 1.0000
vn -0.0000 -1.0000 -0.0000
vn -0.0000 1.0000 -0.0000
vt 1.000000 0.062500
vt 1.000000 0.437500
vt 0.958333 0.437500
vt 0.958333 0.062500
vt 0.916667 0.437500
vt 0.916667 0.062500
vt 0.875000 0.437500
vt 0.875000 0.062500
vt 0.833333 0.437500
vt 0.833333 0.062500
vt 0.916667 0.500000
vt 0.958333 0.500000
vt 0.875000 0.500000
s 0
usemtl Skeleton
f 1/1/1 2/2/1 4/3/1 3/4/1
f 3/4/2 4/3/2 8/5/2 7/6/2
f 7/6/3 8/5/3 6/7/3 5/8/3
f 5/8/4 6/7/4 2/9/4 1/10/4
f 3/11/5 7/5/5 5/3/5 1/12/5
f 8/5/6 4/11/6 2/13/6 6/7/6
