# Blender 3.6.4
# www.blender.org
mtllib skeleton_head.mtl
o Cube
v -0.250000 0.000000 0.250000
v -0.250000 0.500000 0.250000
v -0.250000 0.000000 -0.250000
v -0.250000 0.500000 -0.250000
v 0.250000 0.000000 0.250000
v 0.250000 0.500000 0.250000
v 0.250000 0.000000 -0.250000
v 0.250000 0.500000 -0.250000
v 0.250000 0.000000 0.250000
v 0.250000 0.500000 0.250000
v 0.250000 0.000000 -0.250000
v 0.250000 0.500000 -0.250000
v -0.250000 0.000000 0.250000
v -0.250000 0.500000 0.250000
v -0.250000 0.000000 -0.250000
v -0.250000 0.500000 -0.250000
vn -1.0000 -0.0000 -0.0000
vn -0.0000 -0.0000 -1.0000
vn 1.0000 -0.0000 -0.0000
vn -0.0000 -0.0000 1.0000
vn -0.0000 -1.0000 -0.0000
vn -0.0000 1.0000 -0.0000
vt 0.166667 0.500000
vt 0.166667 0.750000
vt 0.000000 0.750000
vt 0.000000 0.500000
vt 0.666667 0.500000
vt 0.666667 0.750000
vt 0.500000 0.750000
vt 0.500000 0.500000
vt 0.333333 0.750000
vt 0.333333 0.500000
vt 0.500000 1.000000
vt 0.333333 1.000000
vt 0.166667 1.000000
s 0
usemtl Skeleton
f 1/1/1 2/2/1 4/3/1 3/4/1
f 3/5/2 4/6/2 8/7/2 7/8/2
f 7/8/3 8/7/3 6/9/3 5/10/3
f 5/10/4 6/9/4 2/2/4 1/1/4
f 3/9/5 7/7/5 5/11/5 1/12/5
f 8/12/6 4/13/6 2/2/6 6/9/6
f 9/1/1 10/2/1 12/3/1 11/4/1
f 11/5/4 12/6/4 16/7/4 15/8/4
f 15/8/3 16/7/3 14/9/3 13/10/3
f 13/10/2 14/9/2 10/2/2 9/1/2
f 11/9/6 15/7/6 13/11/6 9/12/6
f 16/12/5 12/13/5 10/2/5 14/9/5
