# Blender 3.6.4
# www.blender.org
mtllib regeneration.mtl
o Cube.004
v -0.062500 0.000000 -0.234375
v -0.062500 0.500000 -0.234375
v -0.062500 0.000000 -0.265625
v -0.062500 0.500000 -0.265625
v 0.062500 0.000000 -0.234375
v 0.062500 0.500000 -0.234375
v 0.062500 0.000000 -0.265625
v 0.062500 0.500000 -0.265625
v -0.250000 0.312500 -0.234375
v 0.250000 0.312500 -0.234375
v -0.250000 0.312500 -0.265625
v 0.250000 0.312500 -0.265625
v -0.250000 0.187500 -0.234375
v 0.250000 0.187500 -0.234375
v -0.250000 0.187500 -0.265625
v 0.250000 0.187500 -0.265625
v 0.062500 0.312500 -0.234375
v 0.062500 0.312500 -0.265625
v -0.062500 0.312500 -0.265625
v -0.062500 0.312500 -0.234375
v 0.062500 0.312500 -0.265625
v 0.062500 0.312500 -0.234375
v 0.062500 0.187500 -0.265625
v 0.062500 0.187500 -0.234375
v -0.062500 0.312500 -0.234375
v -0.062500 0.312500 -0.265625
v -0.062500 0.187500 -0.265625
v -0.062500 0.187500 -0.234375
v 0.062500 0.187500 -0.265625
v 0.062500 0.187500 -0.234375
v -0.062500 0.187500 -0.265625
v -0.062500 0.187500 -0.234375
v -0.450000 0.075000 0.250000
v -0.325000 -0.050000 0.250000
v -0.325000 0.550000 0.250000
v -0.450000 0.425000 0.250000
v -0.325000 -0.050000 -0.250000
v -0.450000 0.075000 -0.250000
v -0.450000 0.425000 -0.250000
v -0.325000 0.550000 -0.250000
v 0.325000 -0.050000 0.250000
v 0.450000 0.075000 0.250000
v 0.450000 0.425000 0.250000
v 0.325000 0.550000 0.250000
v 0.450000 0.075000 -0.250000
v 0.325000 -0.050000 -0.250000
v 0.325000 0.550000 -0.250000
v 0.450000 0.425000 -0.250000
v -0.062500 0.000000 0.265625
v -0.062500 0.500000 0.265625
v -0.062500 0.000000 0.234375
v -0.062500 0.500000 0.234375
v 0.062500 0.000000 0.265625
v 0.062500 0.500000 0.265625
v 0.062500 0.000000 0.234375
v 0.062500 0.500000 0.234375
v -0.250000 0.312500 0.265625
v 0.250000 0.312500 0.265625
v -0.250000 0.312500 0.234375
v 0.250000 0.312500 0.234375
v -0.250000 0.187500 0.265625
v 0.250000 0.187500 0.265625
v -0.250000 0.187500 0.234375
v 0.250000 0.187500 0.234375
v 0.062500 0.312500 0.265625
v 0.062500 0.312500 0.234375
v -0.062500 0.312500 0.234375
v -0.062500 0.312500 0.265625
v 0.062500 0.312500 0.234375
v 0.062500 0.312500 0.265625
v 0.062500 0.187500 0.234375
v 0.062500 0.187500 0.265625
v -0.062500 0.312500 0.265625
v -0.062500 0.312500 0.234375
v -0.062500 0.187500 0.234375
v -0.062500 0.187500 0.265625
v 0.062500 0.187500 0.234375
v 0.062500 0.187500 0.265625
v -0.062500 0.187500 0.234375
v -0.062500 0.187500 0.265625
vn -1.0000 -0.0000 -0.0000
vn 1.0000 -0.0000 -0.0000
vn -0.0000 -1.0000 -0.0000
vn -0.0000 1.0000 -0.0000
vn -0.0000 -0.0000 -1.0000
vn -0.0000 -0.0000 1.0000
vn -0.7071 -0.7071 -0.0000
vn -0.7071 0.7071 -0.0000
vn 0.7071 -0.7071 -0.0000
vn 0.7071 0.7071 -0.0000
vt 0.530306 0.000000
vt 0.625000 0.000000
vt 0.625000 0.250000
vt 0.530306 0.250000
vt 0.375000 0.500000
vt 0.468265 0.500000
vt 0.468265 0.750000
vt 0.375000 0.750000
vt 0.530574 0.500000
vt 0.625000 0.500000
vt 0.625000 0.750000
vt 0.530574 0.750000
vt 0.125000 0.500000
vt 0.125000 0.750000
vt 0.875000 0.500000
vt 0.875000 0.750000
vt 0.532106 0.000000
vt 0.532106 0.250000
vt 0.375000 0.000000
vt 0.467455 0.000000
vt 0.467455 0.250000
vt 0.375000 0.250000
vt 0.530593 0.500000
vt 0.530594 0.750000
vt 0.469691 0.000000
vt 0.469691 0.250000
vt 0.468702 0.500000
vt 0.468702 0.750000
vt 0.000000 0.000000
vt 0.375000 0.784722
vt 0.427083 0.750000
vt 0.572917 0.750000
vt 0.625000 0.784722
vt 0.625000 0.965278
vt 0.572917 1.000000
vt 0.427083 1.000000
vt 0.375000 0.965278
vt 0.427083 0.500000
vt 0.572917 0.500000
vt 0.659722 0.500000
vt 0.840278 0.500000
vt 0.840278 0.750000
vt 0.659722 0.750000
vt 0.427083 0.000000
vt 0.572917 0.000000
vt 0.572917 0.250000
vt 0.427083 0.250000
vt 0.375000 0.284722
vt 0.625000 0.284722
vt 0.625000 0.465278
vt 0.375000 0.465278
vt 0.159722 0.500000
vt 0.159722 0.750000
vt 0.340278 0.750000
vt 0.340278 0.500000
s 0
usemtl RegenerationWhite
f 41/30/6 42/31/6 43/32/6 44/33/6 35/34/6 36/35/6 33/36/6 34/37/6
f 45/38/2 48/39/2 43/32/2 42/31/2
f 47/40/4 40/41/4 35/42/4 44/43/4
f 33/44/1 36/45/1 39/46/1 38/47/1
f 37/48/5 38/47/5 39/46/5 40/49/5 47/50/5 48/39/5 45/38/5 46/51/5
f 37/52/7 34/53/7 33/14/7 38/13/7
f 35/2/8 40/3/8 39/46/8 36/45/8
f 41/54/9 46/55/9 45/38/9 42/31/9
f 47/40/10 44/43/10 43/32/10 48/39/10
f 37/52/3 46/55/3 41/54/3 34/53/3
usemtl RegenerationRed
f 25/1/1 2/2/1 4/3/1 26/4/1
f 7/5/2 23/6/2 24/7/2 5/8/2
f 21/9/2 8/10/2 6/11/2 22/12/2
f 3/13/3 7/5/3 5/8/3 1/14/3
f 8/10/4 4/15/4 2/16/4 6/11/4
f 17/17/4 10/2/4 12/3/4 18/18/4
f 1/19/1 28/20/1 27/21/1 3/22/1
f 29/23/3 16/10/3 14/11/3 30/24/3
f 9/19/4 20/25/4 19/26/4 11/22/4
f 11/13/1 15/5/1 13/8/1 9/14/1
f 16/10/2 12/15/2 10/16/2 14/11/2
f 15/5/3 31/27/3 32/28/3 13/8/3
f 4/3/5 8/10/5 21/9/5 26/4/5
f 15/5/5 11/13/5 26/29/5 31/27/5
f 16/10/5 29/23/5 21/29/5 12/15/5
f 3/13/5 31/29/5 29/29/5 7/5/5
f 21/29/5 29/23/5 31/29/5 26/29/5
f 25/1/6 22/12/6 6/11/6 2/16/6
f 14/11/6 10/16/6 22/29/6 30/24/6
f 32/29/6 1/14/6 5/8/6 30/29/6
f 13/8/6 32/28/6 25/29/6 9/14/6
f 22/29/6 25/29/6 32/29/6 30/24/6
f 73/1/1 50/2/1 52/3/1 74/4/1
f 55/5/2 71/6/2 72/7/2 53/8/2
f 69/9/2 56/10/2 54/11/2 70/12/2
f 51/13/3 55/5/3 53/8/3 49/14/3
f 56/10/4 52/15/4 50/16/4 54/11/4
f 65/17/4 58/2/4 60/3/4 66/18/4
f 49/19/1 76/20/1 75/21/1 51/22/1
f 77/23/3 64/10/3 62/11/3 78/24/3
f 57/19/4 68/25/4 67/26/4 59/22/4
f 59/13/1 63/5/1 61/8/1 57/14/1
f 64/10/2 60/15/2 58/16/2 62/11/2
f 63/5/3 79/27/3 80/28/3 61/8/3
f 52/3/5 56/10/5 69/9/5 74/4/5
f 63/5/5 59/13/5 74/29/5 79/27/5
f 64/10/5 77/23/5 69/29/5 60/15/5
f 51/13/5 79/29/5 77/29/5 55/5/5
f 69/29/5 77/23/5 79/29/5 74/29/5
f 73/1/6 70/12/6 54/11/6 50/16/6
f 62/11/6 58/16/6 70/29/6 78/24/6
f 80/29/6 49/14/6 53/8/6 78/29/6
f 61/8/6 80/28/6 73/29/6 57/14/6
f 70/29/6 73/29/6 80/29/6 78/24/6
