# Blender 3.6.4
# www.blender.org
mtllib cactus_block.mtl
o Cube.002
v -0.437500 -0.500000 0.500000
v -0.437500 0.500000 0.500000
v -0.437500 -0.500000 -0.500000
v -0.437500 0.500000 -0.500000
v -0.500000 -0.500000 0.500000
v -0.500000 0.500000 0.500000
v -0.500000 -0.500000 -0.500000
v -0.500000 0.500000 -0.500000
v 0.500000 -0.500000 0.500000
v 0.500000 0.500000 0.500000
v 0.500000 -0.500000 -0.500000
v 0.500000 0.500000 -0.500000
v -0.500000 -0.500000 0.437500
v -0.500000 0.500000 0.437500
v 0.500000 -0.500000 0.437500
v 0.500000 0.500000 0.437500
v 0.437500 -0.500000 0.500000
v 0.437500 0.500000 0.500000
v 0.437500 -0.500000 -0.500000
v 0.437500 0.500000 -0.500000
v -0.500000 -0.500000 -0.437500
v -0.500000 0.500000 -0.437500
v 0.500000 -0.500000 -0.437500
v 0.500000 0.500000 -0.437500
vn -1.0000 -0.0000 -0.0000
vn -0.0000 -1.0000 -0.0000
vn -0.0000 1.0000 -0.0000
vn -0.0000 -0.0000 1.0000
vn 1.0000 -0.0000 -0.0000
vn -0.0000 -0.0000 -1.0000
vt 0.250000 0.333333
vt 0.250000 0.666667
vt 0.000000 0.666667
vt 0.000000 0.333333
vt 0.500000 0.333333
vt 0.500000 -0.000000
vt 0.250000 -0.000000
vt 0.500000 0.666667
vt 0.500000 1.000000
vt 0.250000 1.000000
vt 0.750000 0.333333
vt 0.750000 0.666667
vt 1.000000 0.333333
vt 1.000000 0.666667
s 0
usemtl Cactus
f 1/1/1 2/2/1 4/3/1 3/4/1
f 7/1/2 11/5/2 9/6/2 5/7/2
f 12/2/3 8/8/3 6/9/3 10/10/3
f 15/5/4 16/8/4 14/2/4 13/1/4
f 19/11/5 20/12/5 18/8/5 17/5/5
f 21/13/6 22/14/6 24/12/6 23/11/6
