# Blender 3.6.4
# www.blender.org
mtllib quaddamage.mtl
o Cube
v -0.031250 -0.062500 0.031250
v -0.031250 0.187500 0.031250
v -0.031250 -0.062500 -0.031250
v -0.031250 0.187500 -0.031250
v 0.031250 -0.062500 0.031250
v 0.031250 0.187500 0.031250
v 0.031250 -0.062500 -0.031250
v 0.031250 0.187500 -0.031250
v -0.031250 0.312500 0.031250
v -0.031250 0.562500 0.031250
v -0.031250 0.312500 -0.031250
v -0.031250 0.562500 -0.031250
v 0.031250 0.312500 0.031250
v 0.031250 0.562500 0.031250
v 0.031250 0.312500 -0.031250
v 0.031250 0.562500 -0.031250
v 0.062500 0.281250 0.031250
v 0.312500 0.281250 0.031250
v 0.062500 0.281250 -0.031250
v 0.312500 0.281250 -0.031250
v 0.062500 0.218750 0.031250
v 0.312500 0.218750 0.031250
v 0.062500 0.218750 -0.031250
v 0.312500 0.218750 -0.031250
v -0.312500 0.281250 0.031250
v -0.062500 0.281250 0.031250
v -0.312500 0.281250 -0.031250
v -0.062500 0.281250 -0.031250
v -0.312500 0.218750 0.031250
v -0.062500 0.218750 0.031250
v -0.312500 0.218750 -0.031250
v -0.062500 0.218750 -0.031250
v 0.000000 0.500000 -0.031500
v 0.000000 0.500000 0.031500
v 0.048773 0.495196 -0.031500
v 0.048773 0.495196 0.031500
v 0.095671 0.480970 -0.031500
v 0.095671 0.480970 0.031500
v 0.138893 0.457867 -0.031500
v 0.138893 0.457867 0.031500
v 0.176777 0.426777 -0.031500
v 0.176777 0.426777 0.031500
v 0.207867 0.388893 -0.031500
v 0.207867 0.388893 0.031500
v 0.230970 0.345671 -0.031500
v 0.230970 0.345671 0.031500
v 0.245196 0.298773 -0.031500
v 0.245196 0.298773 0.031500
v 0.250000 0.250000 -0.031500
v 0.250000 0.250000 0.031500
v 0.245196 0.201227 -0.031500
v 0.245196 0.201227 0.031500
v 0.230970 0.154329 -0.031500
v 0.230970 0.154329 0.031500
v 0.207867 0.111107 -0.031500
v 0.207867 0.111107 0.031500
v 0.176777 0.073223 -0.031500
v 0.176777 0.073223 0.031500
v 0.138893 0.042133 -0.031500
v 0.138893 0.042133 0.031500
v 0.095671 0.019030 -0.031500
v 0.095671 0.019030 0.031500
v 0.048773 0.004804 -0.031500
v 0.048773 0.004804 0.031500
v 0.000000 0.000000 -0.031500
v 0.000000 0.000000 0.031500
v -0.048773 0.004804 -0.031500
v -0.048773 0.004804 0.031500
v -0.095671 0.019030 -0.031500
v -0.095671 0.019030 0.031500
v -0.138893 0.042133 -0.031500
v -0.138893 0.042133 0.031500
v -0.176777 0.073223 -0.031500
v -0.176777 0.073223 0.031500
v -0.207867 0.111107 -0.031500
v -0.207867 0.111107 0.031500
v -0.230970 0.154329 -0.031500
v -0.230970 0.154329 0.031500
v -0.245196 0.201227 -0.031500
v -0.245196 0.201227 0.031500
v -0.250000 0.250000 -0.031500
v -0.250000 0.250000 0.031500
v -0.245196 0.298773 -0.031500
v -0.245196 0.298773 0.031500
v -0.230970 0.345671 -0.031500
v -0.230970 0.345671 0.031500
v -0.207867 0.388893 -0.031500
v -0.207867 0.388893 0.031500
v -0.176777 0.426777 -0.031500
v -0.176777 0.426777 0.031500
v -0.138893 0.457867 -0.031500
v -0.138893 0.457867 0.031500
v -0.095671 0.480970 -0.031500
v -0.095671 0.480970 0.031500
v -0.048773 0.495196 -0.031500
v -0.048773 0.495196 0.031500
v 0.000000 0.437500 -0.031500
v 0.000000 0.437500 0.031500
v 0.036579 0.433897 -0.031500
v 0.036579 0.433897 0.031500
v 0.071753 0.423227 -0.031500
v 0.071753 0.423227 0.031500
v 0.104169 0.405901 -0.031500
v 0.104169 0.405901 0.031500
v 0.132583 0.382583 -0.031500
v 0.132583 0.382583 0.031500
v 0.155901 0.354169 -0.031500
v 0.155901 0.354169 0.031500
v 0.173227 0.321753 -0.031500
v 0.173227 0.321753 0.031500
v 0.183897 0.286579 -0.031500
v 0.183897 0.286579 0.031500
v 0.187500 0.250000 -0.031500
v 0.187500 0.250000 0.031500
v 0.183897 0.213421 -0.031500
v 0.183897 0.213421 0.031500
v 0.173227 0.178247 -0.031500
v 0.173227 0.178247 0.031500
v 0.155901 0.145831 -0.031500
v 0.155901 0.145831 0.031500
v 0.132583 0.117417 -0.031500
v 0.132583 0.117417 0.031500
v 0.104169 0.094099 -0.031500
v 0.104169 0.094099 0.031500
v 0.071753 0.076773 -0.031500
v 0.071753 0.076773 0.031500
v 0.036579 0.066103 -0.031500
v 0.036579 0.066103 0.031500
v 0.000000 0.062500 -0.031500
v 0.000000 0.062500 0.031500
v -0.036579 0.066103 -0.031500
v -0.036579 0.066103 0.031500
v -0.071753 0.076773 -0.031500
v -0.071753 0.076773 0.031500
v -0.104169 0.094099 -0.031500
v -0.104169 0.094099 0.031500
v -0.132583 0.117417 -0.031500
v -0.132583 0.117417 0.031500
v -0.155901 0.145831 -0.031500
v -0.155901 0.145831 0.031500
v -0.173227 0.178247 -0.031500
v -0.173227 0.178247 0.031500
v -0.183897 0.213421 -0.031500
v -0.183897 0.213421 0.031500
v -0.187500 0.250000 -0.031500
v -0.187500 0.250000 0.031500
v -0.183897 0.286579 -0.031500
v -0.183897 0.286579 0.031500
v -0.173227 0.321753 -0.031500
v -0.173227 0.321753 0.031500
v -0.155901 0.354169 -0.031500
v -0.155901 0.354169 0.031500
v -0.132583 0.382583 -0.031500
v -0.132583 0.382583 0.031500
v -0.104169 0.405901 -0.031500
v -0.104169 0.405901 0.031500
v -0.071753 0.423227 -0.031500
v -0.071753 0.423227 0.031500
v -0.036579 0.433897 -0.031500
v -0.036579 0.433897 0.031500
vn -1.0000 -0.0000 -0.0000
vn -0.0000 -0.0000 -1.0000
vn 1.0000 -0.0000 -0.0000
vn -0.0000 -0.0000 1.0000
vn -0.0000 -1.0000 -0.0000
vn -0.0000 1.0000 -0.0000
vn 0.0980 0.9952 -0.0000
vn 0.2903 0.9569 -0.0000
vn 0.4714 0.8819 -0.0000
vn 0.6344 0.7730 -0.0000
vn 0.7730 0.6344 -0.0000
vn 0.8819 0.4714 -0.0000
vn 0.9569 0.2903 -0.0000
vn 0.9952 0.0980 -0.0000
vn 0.9952 -0.0980 -0.0000
vn 0.9569 -0.2903 -0.0000
vn 0.8819 -0.4714 -0.0000
vn 0.7730 -0.6344 -0.0000
vn 0.6344 -0.7730 -0.0000
vn 0.4714 -0.8819 -0.0000
vn 0.2903 -0.9569 -0.0000
vn 0.0980 -0.9952 -0.0000
vn -0.0980 -0.9952 -0.0000
vn -0.2903 -0.9569 -0.0000
vn -0.4714 -0.8819 -0.0000
vn -0.6344 -0.7730 -0.0000
vn -0.7730 -0.6344 -0.0000
vn -0.8819 -0.4714 -0.0000
vn -0.9569 -0.2903 -0.0000
vn -0.9952 -0.0980 -0.0000
vn -0.9952 0.0980 -0.0000
vn -0.9569 0.2903 -0.0000
vn -0.8819 0.4714 -0.0000
vn -0.7730 0.6344 -0.0000
vn -0.6344 0.7730 -0.0000
vn -0.4714 0.8819 -0.0000
vn -0.2903 0.9569 -0.0000
vn -0.0980 0.9952 -0.0000
vt 0.375000 0.000000
vt 0.625000 0.000000
vt 0.625000 0.250000
vt 0.375000 0.250000
vt 0.625000 0.500000
vt 0.375000 0.500000
vt 0.625000 0.750000
vt 0.375000 0.750000
vt 0.625000 1.000000
vt 0.375000 1.000000
vt 0.125000 0.500000
vt 0.125000 0.750000
vt 0.875000 0.500000
vt 0.875000 0.750000
vt 1.000000 0.500000
vt 1.000000 1.000000
vt 0.968750 1.000000
vt 0.968750 0.500000
vt 0.937500 1.000000
vt 0.937500 0.500000
vt 0.906250 1.000000
vt 0.906250 0.500000
vt 0.875000 1.000000
vt 0.843750 1.000000
vt 0.843750 0.500000
vt 0.812500 1.000000
vt 0.812500 0.500000
vt 0.781250 1.000000
vt 0.781250 0.500000
vt 0.750000 1.000000
vt 0.750000 0.500000
vt 0.718750 1.000000
vt 0.718750 0.500000
vt 0.687500 1.000000
vt 0.687500 0.500000
vt 0.656250 1.000000
vt 0.656250 0.500000
vt 0.593750 1.000000
vt 0.593750 0.500000
vt 0.562500 1.000000
vt 0.562500 0.500000
vt 0.531250 1.000000
vt 0.531250 0.500000
vt 0.500000 1.000000
vt 0.500000 0.500000
vt 0.468750 1.000000
vt 0.468750 0.500000
vt 0.437500 1.000000
vt 0.437500 0.500000
vt 0.406250 1.000000
vt 0.406250 0.500000
vt 0.343750 1.000000
vt 0.343750 0.500000
vt 0.312500 1.000000
vt 0.312500 0.500000
vt 0.281250 1.000000
vt 0.281250 0.500000
vt 0.250000 1.000000
vt 0.250000 0.500000
vt 0.218750 1.000000
vt 0.218750 0.500000
vt 0.187500 1.000000
vt 0.187500 0.500000
vt 0.156250 1.000000
vt 0.156250 0.500000
vt 0.125000 1.000000
vt 0.093750 1.000000
vt 0.093750 0.500000
vt 0.062500 1.000000
vt 0.062500 0.500000
vt 0.031250 1.000000
vt 0.031250 0.500000
vt 0.000000 1.000000
vt 0.000000 0.500000
s 0
usemtl QuadDamage
f 1/1/1 2/2/1 4/3/1 3/4/1
f 3/4/2 4/3/2 8/5/2 7/6/2
f 7/6/3 8/5/3 6/7/3 5/8/3
f 5/8/4 6/7/4 2/9/4 1/10/4
f 3/11/5 7/6/5 5/8/5 1/12/5
f 8/5/6 4/13/6 2/14/6 6/7/6
f 9/1/1 10/2/1 12/3/1 11/4/1
f 11/4/2 12/3/2 16/5/2 15/6/2
f 15/6/3 16/5/3 14/7/3 13/8/3
f 13/8/4 14/7/4 10/9/4 9/10/4
f 11/11/5 15/6/5 13/8/5 9/12/5
f 16/5/6 12/13/6 10/14/6 14/7/6
f 17/1/6 18/2/6 20/3/6 19/4/6
f 19/4/2 20/3/2 24/5/2 23/6/2
f 23/6/5 24/5/5 22/7/5 21/8/5
f 21/8/4 22/7/4 18/9/4 17/10/4
f 19/11/1 23/6/1 21/8/1 17/12/1
f 24/5/3 20/13/3 18/14/3 22/7/3
f 25/1/6 26/2/6 28/3/6 27/4/6
f 27/4/2 28/3/2 32/5/2 31/6/2
f 31/6/5 32/5/5 30/7/5 29/8/5
f 29/8/4 30/7/4 26/9/4 25/10/4
f 27/11/1 31/6/1 29/8/1 25/12/1
f 32/5/3 28/13/3 26/14/3 30/7/3
f 33/15/7 34/16/7 36/17/7 35/18/7
f 35/18/8 36/17/8 38/19/8 37/20/8
f 37/20/9 38/19/9 40/21/9 39/22/9
f 39/22/10 40/21/10 42/23/10 41/13/10
f 41/13/11 42/23/11 44/24/11 43/25/11
f 43/25/12 44/24/12 46/26/12 45/27/12
f 45/27/13 46/26/13 48/28/13 47/29/13
f 47/29/14 48/28/14 50/30/14 49/31/14
f 49/31/15 50/30/15 52/32/15 51/33/15
f 51/33/16 52/32/16 54/34/16 53/35/16
f 53/35/17 54/34/17 56/36/17 55/37/17
f 55/37/18 56/36/18 58/9/18 57/5/18
f 57/5/19 58/9/19 60/38/19 59/39/19
f 59/39/20 60/38/20 62/40/20 61/41/20
f 61/41/21 62/40/21 64/42/21 63/43/21
f 63/43/22 64/42/22 66/44/22 65/45/22
f 65/45/23 66/44/23 68/46/23 67/47/23
f 67/47/24 68/46/24 70/48/24 69/49/24
f 69/49/25 70/48/25 72/50/25 71/51/25
f 71/51/26 72/50/26 74/10/26 73/6/26
f 73/6/27 74/10/27 76/52/27 75/53/27
f 75/53/28 76/52/28 78/54/28 77/55/28
f 77/55/29 78/54/29 80/56/29 79/57/29
f 79/57/30 80/56/30 82/58/30 81/59/30
f 81/59/31 82/58/31 84/60/31 83/61/31
f 83/61/32 84/60/32 86/62/32 85/63/32
f 85/63/33 86/62/33 88/64/33 87/65/33
f 87/65/34 88/64/34 90/66/34 89/11/34
f 89/11/35 90/66/35 92/67/35 91/68/35
f 91/68/36 92/67/36 94/69/36 93/70/36
f 93/70/37 94/69/37 96/71/37 95/72/37
f 95/72/38 96/71/38 34/73/38 33/74/38
f 97/15/23 99/18/23 100/17/23 98/16/23
f 99/18/24 101/20/24 102/19/24 100/17/24
f 101/20/25 103/22/25 104/21/25 102/19/25
f 103/22/26 105/13/26 106/23/26 104/21/26
f 105/13/27 107/25/27 108/24/27 106/23/27
f 107/25/28 109/27/28 110/26/28 108/24/28
f 109/27/29 111/29/29 112/28/29 110/26/29
f 111/29/30 113/31/30 114/30/30 112/28/30
f 113/31/31 115/33/31 116/32/31 114/30/31
f 115/33/32 117/35/32 118/34/32 116/32/32
f 117/35/33 119/37/33 120/36/33 118/34/33
f 119/37/34 121/5/34 122/9/34 120/36/34
f 121/5/35 123/39/35 124/38/35 122/9/35
f 123/39/36 125/41/36 126/40/36 124/38/36
f 125/41/37 127/43/37 128/42/37 126/40/37
f 127/43/38 129/45/38 130/44/38 128/42/38
f 129/45/7 131/47/7 132/46/7 130/44/7
f 131/47/8 133/49/8 134/48/8 132/46/8
f 133/49/9 135/51/9 136/50/9 134/48/9
f 135/51/10 137/6/10 138/10/10 136/50/10
f 137/6/11 139/53/11 140/52/11 138/10/11
f 139/53/12 141/55/12 142/54/12 140/52/12
f 141/55/13 143/57/13 144/56/13 142/54/13
f 143/57/14 145/59/14 146/58/14 144/56/14
f 145/59/15 147/61/15 148/60/15 146/58/15
f 147/61/16 149/63/16 150/62/16 148/60/16
f 149/63/17 151/65/17 152/64/17 150/62/17
f 151/65/18 153/11/18 154/66/18 152/64/18
f 153/11/19 155/68/19 156/67/19 154/66/19
f 155/68/20 157/70/20 158/69/20 156/67/20
f 157/70/21 159/72/21 160/71/21 158/69/21
f 159/72/22 97/74/22 98/73/22 160/71/22
f 82/58/4 146/58/4 148/60/4 84/60/4
f 84/60/4 148/60/4 150/62/4 86/62/4
f 86/62/4 150/62/4 152/64/4 88/64/4
f 88/64/4 152/64/4 154/66/4 90/66/4
f 90/66/4 154/66/4 156/67/4 92/67/4
f 92/67/4 156/67/4 158/69/4 94/69/4
f 94/69/4 158/69/4 160/71/4 96/71/4
f 96/71/4 160/71/4 98/73/4 34/73/4
f 34/73/4 98/73/4 100/17/4 36/17/4
f 36/17/4 100/17/4 102/19/4 38/19/4
f 38/19/4 102/19/4 104/21/4 40/21/4
f 40/21/4 104/21/4 106/23/4 42/23/4
f 42/23/4 106/23/4 108/24/4 44/24/4
f 44/24/4 108/24/4 110/26/4 46/26/4
f 46/26/4 110/26/4 112/28/4 48/28/4
f 48/28/4 112/28/4 114/30/4 50/30/4
f 50/30/4 114/30/4 116/32/4 52/32/4
f 52/32/4 116/32/4 118/34/4 54/34/4
f 54/34/4 118/34/4 120/36/4 56/36/4
f 56/36/4 120/36/4 122/9/4 58/9/4
f 80/56/4 144/56/4 146/58/4 82/58/4
f 78/54/4 142/54/4 144/56/4 80/56/4
f 76/52/4 140/52/4 142/54/4 78/54/4
f 74/10/4 138/10/4 140/52/4 76/52/4
f 72/50/4 136/50/4 138/10/4 74/10/4
f 70/48/4 134/48/4 136/50/4 72/50/4
f 68/46/4 132/46/4 134/48/4 70/48/4
f 66/44/4 130/44/4 132/46/4 68/46/4
f 64/42/4 128/42/4 130/44/4 66/44/4
f 62/40/4 126/40/4 128/42/4 64/42/4
f 60/38/4 124/38/4 126/40/4 62/40/4
f 58/9/4 122/9/4 124/38/4 60/38/4
f 83/61/2 147/61/2 145/59/2 81/59/2
f 81/59/2 145/59/2 143/57/2 79/57/2
f 79/57/2 143/57/2 141/55/2 77/55/2
f 77/55/2 141/55/2 139/53/2 75/53/2
f 75/53/2 139/53/2 137/6/2 73/6/2
f 73/6/2 137/6/2 135/51/2 71/51/2
f 71/51/2 135/51/2 133/49/2 69/49/2
f 69/49/2 133/49/2 131/47/2 67/47/2
f 67/47/2 131/47/2 129/45/2 65/45/2
f 65/45/2 129/45/2 127/43/2 63/43/2
f 63/43/2 127/43/2 125/41/2 61/41/2
f 61/41/2 125/41/2 123/39/2 59/39/2
f 59/39/2 123/39/2 121/5/2 57/5/2
f 57/5/2 121/5/2 119/37/2 55/37/2
f 55/37/2 119/37/2 117/35/2 53/35/2
f 53/35/2 117/35/2 115/33/2 51/33/2
f 51/33/2 115/33/2 113/31/2 49/31/2
f 49/31/2 113/31/2 111/29/2 47/29/2
f 47/29/2 111/29/2 109/27/2 45/27/2
f 45/27/2 109/27/2 107/25/2 43/25/2
f 37/20/2 101/20/2 99/18/2 35/18/2
f 39/22/2 103/22/2 101/20/2 37/20/2
f 41/13/2 105/13/2 103/22/2 39/22/2
f 43/25/2 107/25/2 105/13/2 41/13/2
f 35/18/2 99/18/2 97/15/2 33/15/2
f 33/15/2 97/15/2 159/72/2 95/72/2
f 95/72/2 159/72/2 157/70/2 93/70/2
f 93/70/2 157/70/2 155/68/2 91/68/2
f 91/68/2 155/68/2 153/11/2 89/11/2
f 89/11/2 153/11/2 151/65/2 87/65/2
f 87/65/2 151/65/2 149/63/2 85/63/2
f 85/63/2 149/63/2 147/61/2 83/61/2
