# Blender 3.6.4
# www.blender.org
mtllib totem.mtl
o Cube.001
v -0.250000 -0.343750 -0.031250
v -0.250000 0.343750 -0.031250
v 0.250000 -0.343750 -0.031250
v 0.250000 0.343750 -0.031250
v 0.250000 -0.218750 -0.031250
v 0.250000 -0.031250 -0.031250
v 0.375000 -0.218750 -0.031250
v 0.375000 -0.031250 -0.031250
v 0.375000 -0.156250 -0.031250
v 0.375000 -0.031250 -0.031250
v 0.437500 -0.156250 -0.031250
v 0.437500 -0.031250 -0.031250
v -0.375000 -0.218750 -0.031250
v -0.375000 -0.031250 -0.031250
v -0.250000 -0.218750 -0.031250
v -0.250000 -0.031250 -0.031250
v 0.187500 -0.468750 -0.031250
v -0.250000 0.031250 -0.031250
v -0.125000 -0.468750 -0.031250
v 0.125000 -0.531250 -0.031250
v 0.250000 0.281250 -0.031250
v -0.187500 0.343750 -0.031250
v -0.187500 -0.343750 -0.031250
v 0.187500 -0.343750 -0.031250
v 0.125000 -0.468750 -0.031250
v -0.187500 -0.468750 -0.031250
v -0.187500 0.406250 -0.031250
v 0.187500 0.343750 -0.031250
v 0.187500 0.406250 -0.031250
v -0.375000 -0.031250 -0.031250
v -0.125000 -0.531250 -0.031250
v 0.062500 0.093750 -0.031250
v 0.187500 0.093750 -0.031250
v 0.062500 0.156250 -0.031250
v 0.125000 0.156250 -0.031250
v 0.187500 0.156250 -0.031250
v 0.062500 0.031250 -0.031250
v 0.125000 0.031250 -0.031250
v 0.187500 0.031250 -0.031250
v -0.187500 0.031250 -0.031250
v -0.125000 0.031250 -0.031250
v -0.062500 0.031250 -0.031250
v 0.062500 0.031250 -0.031250
v 0.125000 0.031250 -0.031250
v 0.187500 0.031250 -0.031250
v -0.187500 0.093750 -0.031250
v -0.062500 0.093750 -0.031250
v 0.062500 0.093750 -0.031250
v 0.187500 0.093750 -0.031250
v -0.187500 0.156250 -0.031250
v -0.125000 0.156250 -0.031250
v -0.062500 0.156250 -0.031250
v 0.062500 0.156250 -0.031250
v 0.125000 0.156250 -0.031250
v 0.187500 0.156250 -0.031250
v -0.437500 -0.031250 -0.031250
v -0.375000 -0.156250 -0.031250
v -0.437500 -0.156250 -0.031250
v -0.437500 -0.156250 0.031250
v -0.437500 -0.031250 0.031250
v -0.437500 -0.156250 -0.031250
v -0.437500 -0.031250 -0.031250
v -0.375000 -0.156250 0.031250
v -0.375000 -0.031250 0.031250
v -0.375000 -0.156250 -0.031250
v -0.375000 -0.031250 -0.031250
v -0.250000 -0.343750 0.031250
v -0.250000 0.343750 0.031250
v -0.250000 -0.343750 -0.031250
v -0.250000 0.343750 -0.031250
v 0.250000 -0.343750 0.031250
v 0.250000 0.343750 0.031250
v 0.250000 -0.343750 -0.031250
v 0.250000 0.343750 -0.031250
v -0.187500 0.343750 0.031250
v -0.187500 0.406250 0.031250
v -0.187500 0.343750 -0.031250
v -0.187500 0.406250 -0.031250
v 0.187500 0.343750 0.031250
v 0.187500 0.406250 0.031250
v 0.187500 0.343750 -0.031250
v 0.187500 0.406250 -0.031250
v -0.187500 -0.468750 0.031250
v -0.187500 -0.343750 0.031250
v -0.187500 -0.468750 -0.031250
v -0.187500 -0.343750 -0.031250
v 0.187500 -0.468750 0.031250
v 0.187500 -0.343750 0.031250
v 0.187500 -0.468750 -0.031250
v 0.187500 -0.343750 -0.031250
v -0.125000 -0.531250 0.031250
v -0.125000 -0.468750 0.031250
v -0.125000 -0.531250 -0.031250
v -0.125000 -0.468750 -0.031250
v 0.125000 -0.531250 0.031250
v 0.125000 -0.468750 0.031250
v 0.125000 -0.531250 -0.031250
v 0.125000 -0.468750 -0.031250
v 0.250000 -0.218750 0.031250
v 0.250000 -0.031250 0.031250
v 0.250000 -0.218750 -0.031250
v 0.250000 -0.031250 -0.031250
v 0.375000 -0.218750 0.031250
v 0.375000 -0.031250 0.031250
v 0.375000 -0.218750 -0.031250
v 0.375000 -0.031250 -0.031250
v 0.375000 -0.156250 0.031250
v 0.375000 -0.031250 0.031250
v 0.375000 -0.156250 -0.031250
v 0.375000 -0.031250 -0.031250
v 0.437500 -0.156250 0.031250
v 0.437500 -0.031250 0.031250
v 0.437500 -0.156250 -0.031250
v 0.437500 -0.031250 -0.031250
v -0.375000 -0.218750 0.031250
v -0.375000 -0.031250 0.031250
v -0.375000 -0.218750 -0.031250
v -0.375000 -0.031250 -0.031250
v -0.250000 -0.218750 0.031250
v -0.250000 -0.031250 0.031250
v -0.250000 -0.218750 -0.031250
v -0.250000 -0.031250 -0.031250
v -0.375000 -0.218750 -0.031250
v 0.250000 -0.218750 -0.031250
v 0.375000 -0.156250 -0.031250
v 0.375000 -0.218750 -0.031250
v -0.250000 -0.218750 -0.031250
v 0.250000 -0.031250 -0.031250
v 0.437500 -0.156250 -0.031250
v 0.375000 -0.031250 -0.031250
v -0.375000 -0.031250 -0.031250
v 0.250000 0.343750 -0.031250
v 0.250000 -0.343750 -0.031250
v -0.250000 -0.031250 -0.031250
v 0.375000 -0.031250 -0.031250
v -0.250000 -0.343750 -0.031250
v 0.437500 -0.031250 -0.031250
v -0.250000 0.343750 -0.031250
v -0.250000 0.031250 -0.031250
v 0.250000 0.281250 -0.031250
v -0.187500 0.031250 -0.031250
v -0.062500 0.093750 -0.031250
v 0.062500 0.093750 -0.031250
v 0.187500 0.093750 -0.031250
v -0.187500 0.156250 -0.031250
v -0.125000 0.156250 -0.031250
v -0.062500 0.156250 -0.031250
v -0.062500 0.031250 -0.031250
v 0.062500 0.156250 -0.031250
v 0.125000 0.156250 -0.031250
v 0.187500 0.156250 -0.031250
v 0.062500 0.031250 -0.031250
v 0.125000 0.031250 -0.031250
v 0.187500 0.031250 -0.031250
v -0.187500 0.093750 -0.031250
v 0.062500 0.031250 -0.031250
v 0.125000 0.031250 -0.031250
v 0.187500 0.031250 -0.031250
v -0.125000 0.031250 -0.031250
v 0.062500 0.093750 -0.031250
v 0.187500 0.093750 -0.031250
v 0.062500 0.156250 -0.031250
v 0.125000 0.156250 -0.031250
v 0.187500 0.156250 -0.031250
v 0.250000 -0.343750 0.031250
v 0.250000 0.343750 0.031250
v -0.250000 -0.343750 0.031250
v -0.250000 0.343750 0.031250
v -0.250000 -0.218750 0.031250
v -0.250000 -0.031250 0.031250
v -0.375000 -0.218750 0.031250
v -0.375000 -0.031250 0.031250
v -0.375000 -0.156250 0.031250
v -0.375000 -0.031250 0.031250
v -0.437500 -0.156250 0.031250
v -0.437500 -0.031250 0.031250
v 0.375000 -0.218750 0.031250
v 0.375000 -0.031250 0.031250
v 0.250000 -0.218750 0.031250
v 0.250000 -0.031250 0.031250
v -0.187500 -0.468750 0.031250
v 0.250000 0.031250 0.031250
v 0.125000 -0.468750 0.031250
v -0.125000 -0.531250 0.031250
v -0.250000 0.281250 0.031250
v 0.187500 0.343750 0.031250
v 0.187500 -0.343750 0.031250
v -0.187500 -0.343750 0.031250
v -0.125000 -0.468750 0.031250
v 0.187500 -0.468750 0.031250
v 0.187500 0.406250 0.031250
v -0.187500 0.343750 0.031250
v -0.187500 0.406250 0.031250
v 0.375000 -0.031250 0.031250
v 0.125000 -0.531250 0.031250
v -0.062500 0.093750 0.031250
v -0.187500 0.093750 0.031250
v -0.062500 0.156250 0.031250
v -0.125000 0.156250 0.031250
v -0.187500 0.156250 0.031250
v -0.062500 0.031250 0.031250
v -0.125000 0.031250 0.031250
v -0.187500 0.031250 0.031250
v 0.187500 0.031250 0.031250
v 0.125000 0.031250 0.031250
v 0.062500 0.031250 0.031250
v -0.062500 0.031250 0.031250
v -0.125000 0.031250 0.031250
v -0.187500 0.031250 0.031250
v 0.187500 0.093750 0.031250
v 0.062500 0.093750 0.031250
v -0.062500 0.093750 0.031250
v -0.187500 0.093750 0.031250
v 0.187500 0.156250 0.031250
v 0.125000 0.156250 0.031250
v 0.062500 0.156250 0.031250
v -0.062500 0.156250 0.031250
v -0.125000 0.156250 0.031250
v -0.187500 0.156250 0.031250
v 0.437500 -0.031250 0.031250
v 0.375000 -0.156250 0.031250
v 0.437500 -0.156250 0.031250
vn -0.0000 -0.0000 -1.0000
vn -1.0000 -0.0000 -0.0000
vn -0.0000 -1.0000 -0.0000
vn -0.0000 1.0000 -0.0000
vn 1.0000 -0.0000 -0.0000
vn -0.0000 -0.0000 1.0000
vt 0.375000 0.000000
vt 0.375000 0.062500
vt 0.625000 0.062500
vt 0.625000 0.000000
vt 0.750000 0.312500
vt 0.750000 0.500000
vt 0.875000 0.500000
vt 0.875000 0.312500
vt 0.312500 0.062500
vt 0.312500 0.187500
vt 0.687500 0.187500
vt 0.687500 0.062500
vt 0.875000 0.375000
vt 0.937500 0.500000
vt 0.937500 0.375000
vt 0.312500 0.875000
vt 0.312500 0.937500
vt 0.687500 0.937500
vt 0.687500 0.875000
vt 0.125000 0.312500
vt 0.125000 0.500000
vt 0.250000 0.500000
vt 0.250000 0.312500
vt 0.062500 0.375000
vt 0.062500 0.500000
vt 0.125000 0.375000
vt 0.250000 0.875000
vt 0.750000 0.875000
vt 0.750000 0.812500
vt 0.625000 0.687500
vt 0.562500 0.687500
vt 0.562500 0.625000
vt 0.437500 0.625000
vt 0.437500 0.687500
vt 0.375000 0.687500
vt 0.312500 0.687500
vt 0.312500 0.625000
vt 0.312500 0.562500
vt 0.250000 0.562500
vt 0.437500 0.562500
vt 0.375000 0.562500
vt 0.750000 0.187500
vt 0.250000 0.187500
vt 0.562500 0.562500
vt 0.625000 0.562500
vt 0.687500 0.562500
vt 0.687500 0.625000
vt 0.687500 0.687500
vt 0.000000 0.375000
vt 0.000000 0.500000
vt 0.250000 0.937500
vt 0.250000 1.000000
vt 0.312500 1.000000
vt 0.062500 1.000000
vt 0.125000 1.000000
vt 0.125000 0.937500
vt 0.062500 0.937500
vt 0.687500 1.000000
vt 0.750000 1.000000
vt 0.750000 0.937500
vt 0.625000 0.937500
vt 0.625000 1.000000
vt 0.000000 0.875000
vt 0.062500 0.875000
vt 0.000000 0.937500
vt 0.000000 0.062500
vt 0.000000 0.187500
vt 0.062500 0.187500
vt 0.062500 0.062500
vt 0.000000 0.000000
vt 0.062500 0.000000
vt 0.375000 1.000000
vt 0.375000 0.937500
vt 0.000000 0.312500
vt 0.062500 0.312500
vt 0.875000 1.000000
vt 0.875000 0.937500
vt 0.937500 1.000000
vt 0.937500 0.937500
s 0
usemtl Totem
f 31/1/1 19/2/1 25/3/1 20/4/1
f 5/5/1 6/6/1 8/7/1 7/8/1
f 26/9/1 23/10/1 24/11/1 17/12/1
f 9/13/1 10/7/1 12/14/1 11/15/1
f 22/16/1 27/17/1 29/18/1 28/19/1
f 13/20/1 14/21/1 16/22/1 15/23/1
f 58/24/1 56/25/1 30/21/1 57/26/1
f 2/27/1 4/28/1 21/29/1 54/30/1 53/31/1 48/32/1 47/33/1 52/34/1 51/35/1 50/36/1 46/37/1 40/38/1 18/39/1
f 3/42/1 1/43/1 18/39/1 40/38/1 41/41/1 42/40/1 47/33/1 48/32/1 43/44/1 44/45/1 45/46/1 49/47/1 55/48/1 54/30/1 21/29/1
f 59/49/2 60/50/2 62/25/2 61/24/2
f 61/24/1 62/25/1 66/21/1 65/26/1
f 84/17/3 67/51/3 69/52/3 86/53/3
f 138/27/1 132/28/1 140/29/1 150/30/1 149/31/1 143/32/1 142/33/1 147/34/1 146/35/1 145/36/1 155/37/1 141/38/1 139/39/1
f 61/54/3 65/55/3 63/56/3 59/57/3
f 66/55/4 62/54/4 60/57/4 64/56/4
f 88/18/3 90/58/3 73/59/3 71/60/3
f 87/18/3 96/61/3 98/62/3 89/58/3
f 123/20/1 131/21/1 134/22/1 127/23/1
f 120/50/2 68/63/2 70/64/2 122/25/2
f 75/63/2 76/65/2 78/57/2 77/64/2
f 77/16/1 78/17/1 82/18/1 81/19/1
f 81/64/5 82/57/5 80/65/5 79/63/5
f 125/13/1 130/7/1 137/14/1 129/15/1
f 82/58/4 78/53/4 76/17/4 80/18/4
f 83/66/2 84/67/2 86/68/2 85/69/2
f 85/9/1 86/10/1 90/11/1 89/12/1
f 89/69/5 90/68/5 88/67/5 87/66/5
f 124/5/1 128/6/1 135/7/1 126/8/1
f 70/52/4 68/51/4 75/17/4 77/53/4
f 74/64/5 72/63/5 100/50/5 102/25/5
f 91/70/2 92/66/2 94/69/2 93/71/2
f 93/1/1 94/2/1 98/3/1 97/4/1
f 97/71/5 98/69/5 96/66/5 95/70/5
f 93/72/3 97/62/3 95/61/3 91/73/3
f 72/60/4 74/59/4 81/58/4 79/18/4
f 69/68/2 67/67/2 119/74/2 121/75/2
f 103/74/5 105/75/5 109/24/5 107/49/5
f 101/59/3 105/76/3 103/77/3 99/60/3
f 106/76/4 102/59/4 100/60/4 104/77/4
f 63/49/2 65/24/2 117/75/2 115/74/2
f 113/24/5 114/25/5 112/50/5 111/49/5
f 109/76/3 113/78/3 111/79/3 107/77/3
f 114/78/4 110/76/4 108/77/4 112/79/4
f 71/67/5 73/68/5 101/75/5 99/74/5
f 85/53/3 94/72/3 92/73/3 83/17/3
f 117/55/3 121/52/3 119/51/3 115/56/3
f 122/52/4 118/55/4 116/56/4 120/51/4
f 133/42/1 136/43/1 139/39/1 141/38/1 159/41/1 148/40/1 142/33/1 143/32/1 152/44/1 153/45/1 154/46/1 144/47/1 151/48/1 150/30/1 140/29/1
f 195/1/6 183/2/6 189/3/6 184/4/6
f 169/5/6 170/6/6 172/7/6 171/8/6
f 190/9/6 187/10/6 188/11/6 181/12/6
f 173/13/6 174/7/6 176/14/6 175/15/6
f 186/16/6 191/17/6 193/18/6 192/19/6
f 177/20/6 178/21/6 180/22/6 179/23/6
f 222/24/6 220/25/6 194/21/6 221/26/6
f 166/27/6 168/28/6 185/29/6 218/30/6 217/31/6 212/32/6 211/33/6 216/34/6 215/35/6 214/36/6 210/37/6 204/38/6 182/39/6
f 167/42/6 165/43/6 182/39/6 204/38/6 205/41/6 206/40/6 211/33/6 212/32/6 207/44/6 208/45/6 209/46/6 213/47/6 219/48/6 218/30/6 185/29/6
usemtl TotemEyes
f 40/38/1 46/37/1 50/36/1 51/35/1 52/34/1 47/33/1 42/40/1 41/41/1
f 37/44/1 32/32/1 34/31/1 35/30/1 36/48/1 33/47/1 39/46/1 38/45/1
f 141/38/1 155/37/1 145/36/1 146/35/1 147/34/1 142/33/1 148/40/1 159/41/1
f 156/44/1 160/32/1 162/31/1 163/30/1 164/48/1 161/47/1 158/46/1 157/45/1
f 204/38/6 210/37/6 214/36/6 215/35/6 216/34/6 211/33/6 206/40/6 205/41/6
f 201/44/6 196/32/6 198/31/6 199/30/6 200/48/6 197/47/6 203/46/6 202/45/6
