# Blender 3.6.4
# www.blender.org
mtllib arrow.mtl
o Plane.003
v 0.156250 0.000000 -0.500000
v -0.156250 0.000000 -0.500000
v 0.156250 -0.000000 0.500000
v -0.156250 -0.000000 0.500000
v 0.000000 -0.156250 -0.500000
v -0.000000 0.156250 -0.500000
v 0.000000 -0.156250 0.500000
v -0.000000 0.156250 0.500000
v -0.156250 0.000000 -0.500000
v 0.156250 0.000000 -0.500000
v -0.156250 -0.000000 0.500000
v 0.156250 -0.000000 0.500000
v -0.000000 0.156250 -0.500000
v 0.000000 -0.156250 -0.500000
v -0.000000 0.156250 0.500000
v 0.000000 -0.156250 0.500000
vn -0.0000 1.0000 -0.0000
vn 1.0000 -0.0000 -0.0000
vn -0.0000 -1.0000 -0.0000
vn -1.0000 -0.0000 -0.0000
vt 1.000000 0.750000
vt 1.000000 0.125000
vt 0.000000 0.125000
vt 0.000000 0.750000
s 0
usemtl Arrow
f 1/1/1 2/2/1 4/3/1 3/4/1
f 5/1/2 6/2/2 8/3/2 7/4/2
f 9/1/3 10/2/3 12/3/3 11/4/3
f 13/1/4 14/2/4 16/3/4 15/4/4
