# Blender 3.6.4
# www.blender.org
mtllib skeleton_armored_righthand.mtl
o Cube.003
v -0.125000 -0.625000 0.062500
v -0.125000 0.125000 0.062500
v -0.125000 -0.625000 -0.062500
v -0.125000 0.125000 -0.062500
v 0.000000 -0.625000 0.062500
v 0.000000 0.125000 0.062500
v 0.000000 -0.625000 -0.062500
v 0.000000 0.125000 -0.062500
v 0.000000 -0.156250 0.125000
v 0.000000 0.156250 0.125000
v 0.000000 -0.156250 -0.125000
v 0.000000 0.156250 -0.125000
v -0.250000 -0.156250 0.125000
v -0.250000 0.156250 0.125000
v -0.250000 -0.156250 -0.125000
v -0.250000 0.156250 -0.125000
v 0.000000 -0.156250 0.125000
v 0.000000 0.156250 0.125000
v 0.000000 -0.156250 -0.125000
v 0.000000 0.156250 -0.125000
v -0.250000 -0.156250 0.125000
v -0.250000 0.156250 0.125000
v -0.250000 -0.156250 -0.125000
v -0.250000 0.156250 -0.125000
v 0.000000 -0.156250 0.125000
v 0.000000 0.156250 0.125000
v 0.000000 -0.156250 -0.125000
v 0.000000 0.156250 -0.125000
v -0.250000 -0.156250 0.125000
v -0.250000 0.156250 0.125000
v -0.250000 -0.156250 -0.125000
v -0.250000 0.156250 -0.125000
vn -1.0000 -0.0000 -0.0000
vn -0.0000 -0.0000 -1.0000
vn 1.0000 -0.0000 -0.0000
vn -0.0000 -0.0000 1.0000
vn -0.0000 -1.0000 -0.0000
vn -0.0000 1.0000 -0.0000
vt 0.083333 0.062500
vt 0.083333 0.437500
vt 0.041667 0.437500
vt 0.041667 0.062500
vt 0.125000 0.062500
vt 0.125000 0.437500
vt 0.166667 0.062500
vt 0.166667 0.437500
vt 0.000000 0.437500
vt 0.000000 0.062500
vt 0.125000 0.500000
vt 0.083333 0.500000
vt 0.041667 0.500000
vt 0.900000 0.437500
vt 0.800000 0.437500
vt 0.800000 0.750000
vt 0.900000 0.750000
vt 1.000000 0.437500
vt 1.000000 0.750000
vt 0.700000 0.750000
vt 0.700000 0.437500
vt 0.600000 0.437500
vt 0.600000 0.750000
vt 0.800000 1.000000
vt 0.900000 1.000000
vt 0.700000 1.000000
vt 0.812500 0.218750
vt 0.750000 0.218750
vt 0.750000 0.375000
vt 0.812500 0.375000
vt 0.875000 0.218750
vt 0.875000 0.375000
vt 0.687500 0.375000
vt 0.687500 0.218750
vt 0.625000 0.218750
vt 0.625000 0.375000
vt 0.687500 0.500000
vt 0.750000 0.500000
s 0
usemtl Skeleton
f 1/1/1 2/2/1 4/3/1 3/4/1
f 3/2/2 4/1/2 8/5/2 7/6/2
f 7/6/3 8/5/3 6/7/3 5/8/3
f 5/4/4 6/3/4 2/9/4 1/10/4
f 3/6/5 7/11/5 5/12/5 1/2/5
f 8/3/6 4/2/6 2/12/6 6/13/6
usemtl ArmorDiamond
f 9/14/3 11/15/3 12/16/3 10/17/3
f 11/14/2 15/18/2 16/19/2 12/17/2
f 15/20/1 13/21/1 14/22/1 16/23/1
f 13/21/4 9/15/4 10/16/4 14/20/4
f 11/16/5 9/24/5 13/25/5 15/17/5
f 16/26/6 14/20/6 10/16/6 12/24/6
f 17/27/3 19/28/3 20/29/3 18/30/3
f 19/27/2 23/31/2 24/32/2 20/30/2
f 23/33/1 21/34/1 22/35/1 24/36/1
f 21/34/4 17/28/4 18/29/4 22/33/4
f 19/16/5 17/24/5 21/25/5 23/17/5
f 24/37/6 22/33/6 18/29/6 20/38/6
f 25/27/1 26/30/1 28/29/1 27/28/1
f 27/27/4 28/30/4 32/32/4 31/31/4
f 31/33/3 32/36/3 30/35/3 29/34/3
f 29/34/2 30/33/2 26/29/2 25/28/2
f 27/16/6 31/17/6 29/25/6 25/24/6
f 32/37/5 28/38/5 26/29/5 30/33/5
