# Blender 3.6.4
# www.blender.org
mtllib skeleton_armored_lefthand.mtl
o Cube.001
v 0.000000 -0.156250 0.125000
v 0.000000 0.156250 0.125000
v 0.000000 -0.156250 -0.125000
v 0.000000 0.156250 -0.125000
v 0.250000 -0.156250 0.125000
v 0.250000 0.156250 0.125000
v 0.250000 -0.156250 -0.125000
v 0.250000 0.156250 -0.125000
v 0.250000 0.156250 -0.125000
v 0.250000 -0.156250 -0.125000
v 0.250000 0.156250 0.125000
v 0.250000 -0.156250 0.125000
v 0.000000 0.156250 -0.125000
v 0.000000 -0.156250 -0.125000
v 0.000000 0.156250 0.125000
v 0.000000 -0.156250 0.125000
v 0.125000 -0.625000 0.062500
v 0.125000 0.125000 0.062500
v 0.125000 -0.625000 -0.062500
v 0.125000 0.125000 -0.062500
v 0.000000 -0.625000 0.062500
v 0.000000 0.125000 0.062500
v 0.000000 -0.625000 -0.062500
v 0.000000 0.125000 -0.062500
vn -1.0000 -0.0000 -0.0000
vn -0.0000 -0.0000 -1.0000
vn 1.0000 -0.0000 -0.0000
vn -0.0000 -0.0000 1.0000
vn -0.0000 -1.0000 -0.0000
vn -0.0000 1.0000 -0.0000
vt 0.812500 0.218750
vt 0.812500 0.375000
vt 0.750000 0.375000
vt 0.750000 0.218750
vt 0.875000 0.375000
vt 0.875000 0.218750
vt 0.687500 0.375000
vt 0.625000 0.375000
vt 0.625000 0.218750
vt 0.687500 0.218750
vt 0.800000 0.750000
vt 0.900000 0.750000
vt 0.900000 1.000000
vt 0.800000 1.000000
vt 0.687500 0.500000
vt 0.750000 0.500000
vt 0.083333 0.062500
vt 0.041667 0.062500
vt 0.041667 0.437500
vt 0.083333 0.437500
vt 0.125000 0.437500
vt 0.125000 0.062500
vt 0.166667 0.437500
vt 0.166667 0.062500
vt 0.000000 0.062500
vt 0.000000 0.437500
vt 0.083333 0.500000
vt 0.125000 0.500000
vt 0.041667 0.500000
s 0
usemtl ArmorDiamond
f 1/1/1 2/2/1 4/3/1 3/4/1
f 3/1/2 4/2/2 8/5/2 7/6/2
f 7/7/3 8/8/3 6/9/3 5/10/3
f 5/10/4 6/7/4 2/3/4 1/4/4
f 3/11/5 7/12/5 5/13/5 1/14/5
f 8/15/6 4/16/6 2/3/6 6/7/6
f 9/15/5 11/7/5 15/3/5 13/16/5
f 14/11/6 16/14/6 12/13/6 10/12/6
f 12/10/2 16/4/2 15/3/2 11/7/2
f 10/7/1 12/10/1 11/9/1 9/8/1
f 14/1/4 10/6/4 9/5/4 13/2/4
f 16/1/3 14/4/3 13/3/3 15/2/3
usemtl Skeleton
f 17/17/3 19/18/3 20/19/3 18/20/3
f 19/20/2 23/21/2 24/22/2 20/17/2
f 23/21/1 21/23/1 22/24/1 24/22/1
f 21/18/4 17/25/4 18/26/4 22/19/4
f 19/21/5 17/20/5 21/27/5 23/28/5
f 24/19/6 22/29/6 18/27/6 20/20/6
