# Blender 3.6.4
# www.blender.org
mtllib skeleton_armored_head.mtl
o Cube.002
v -0.260000 -0.010000 0.260000
v -0.260000 0.510000 0.260000
v -0.260000 -0.010000 -0.260000
v -0.260000 0.510000 -0.260000
v 0.260000 -0.010000 0.260000
v 0.260000 0.510000 0.260000
v 0.260000 -0.010000 -0.260000
v 0.260000 0.510000 -0.260000
v -0.250000 0.000000 0.250000
v -0.250000 0.500000 0.250000
v -0.250000 0.000000 -0.250000
v -0.250000 0.500000 -0.250000
v 0.250000 0.000000 0.250000
v 0.250000 0.500000 0.250000
v 0.250000 0.000000 -0.250000
v 0.250000 0.500000 -0.250000
v 0.250000 0.000000 0.250000
v 0.250000 0.500000 0.250000
v 0.250000 0.000000 -0.250000
v 0.250000 0.500000 -0.250000
v -0.250000 0.000000 0.250000
v -0.250000 0.500000 0.250000
v -0.250000 0.000000 -0.250000
v -0.250000 0.500000 -0.250000
vn -1.0000 -0.0000 -0.0000
vn -0.0000 -0.0000 -1.0000
vn 1.0000 -0.0000 -0.0000
vn -0.0000 -0.0000 1.0000
vn -0.0000 -1.0000 -0.0000
vn -0.0000 1.0000 -0.0000
vt 0.125000 0.500000
vt 0.125000 0.750000
vt 0.000000 0.750000
vt -0.000000 0.500000
vt 0.500000 0.500000
vt 0.500000 0.750000
vt 0.375000 0.750000
vt 0.375000 0.500000
vt 0.250000 0.750000
vt 0.250000 0.500000
vt 0.375000 1.000000
vt 0.250000 1.000000
vt 0.125000 1.000000
vt 0.166667 0.500000
vt 0.166667 0.750000
vt 0.666667 0.500000
vt 0.666667 0.750000
vt 0.333333 0.750000
vt 0.333333 0.500000
vt 0.500000 1.000000
vt 0.333333 1.000000
vt 0.166667 1.000000
s 0
usemtl ArmorDiamond
f 1/1/1 2/2/1 4/3/1 3/4/1
f 3/5/2 4/6/2 8/7/2 7/8/2
f 7/8/3 8/7/3 6/9/3 5/10/3
f 5/10/4 6/9/4 2/2/4 1/1/4
f 3/9/5 7/7/5 5/11/5 1/12/5
f 8/2/6 4/9/6 2/12/6 6/13/6
usemtl Skeleton
f 9/14/1 10/15/1 12/3/1 11/4/1
f 11/16/2 12/17/2 16/6/2 15/5/2
f 15/5/3 16/6/3 14/18/3 13/19/3
f 13/19/4 14/18/4 10/15/4 9/14/4
f 11/18/5 15/6/5 13/20/5 9/21/5
f 16/21/6 12/22/6 10/15/6 14/18/6
f 17/14/1 18/15/1 20/3/1 19/4/1
f 19/16/4 20/17/4 24/6/4 23/5/4
f 23/5/3 24/6/3 22/18/3 21/19/3
f 21/19/2 22/18/2 18/15/2 17/14/2
f 19/18/6 23/6/6 21/20/6 17/21/6
f 24/21/5 20/22/5 18/15/5 22/18/5
