# Blender 3.6.4
# www.blender.org
mtllib spider_eyes.mtl
o Cube.001
v -0.250000 -0.250000 0.500000
v -0.250000 0.250000 0.500000
v -0.250000 -0.250000 0.000000
v -0.250000 0.250000 0.000000
v 0.250000 -0.250000 0.500000
v 0.250000 0.250000 0.500000
v 0.250000 -0.250000 0.000000
v 0.250000 0.250000 0.000000
vn -1.0000 -0.0000 -0.0000
vn -0.0000 -0.0000 -1.0000
vn 1.0000 -0.0000 -0.0000
vn -0.0000 -0.0000 1.0000
vn -0.0000 -1.0000 -0.0000
vn -0.0000 1.0000 -0.0000
vt 0.250000 -0.000000
vt 0.250000 1.000000
vt 0.000000 1.000000
vt -0.000000 0.000000
vt 0.750000 1.000000
vt 0.750000 0.000000
vt 1.000000 0.000000
vt 1.000000 1.000000
vt 0.500000 1.000000
vt 0.500000 0.000000
s 0
usemtl SpiderEyes
f 1/1/1 2/2/1 4/3/1 3/4/1
f 3/5/2 4/6/2 8/7/2 7/8/2
f 7/6/3 8/5/3 6/9/3 5/10/3
f 5/10/4 6/9/4 2/2/4 1/1/4
f 3/5/5 7/6/5 5/7/5 1/8/5
f 8/7/6 4/8/6 2/5/6 6/6/6
