# Blender 3.6.4
# www.blender.org
mtllib zombie_armored_leftleg.mtl
o Cube.010
v 0.126250 -0.757500 0.126250
v 0.126250 -0.378750 0.126250
v 0.126250 -0.757500 -0.126250
v 0.126250 -0.378750 -0.126250
v -0.126250 -0.757500 0.126250
v -0.126250 -0.378750 0.126250
v -0.126250 -0.757500 -0.126250
v -0.126250 -0.378750 -0.126250
v -0.125000 -0.750000 0.125000
v -0.125000 0.000000 0.125000
v -0.125000 -0.750000 -0.125000
v -0.125000 0.000000 -0.125000
v 0.125000 -0.750000 0.125000
v 0.125000 0.000000 0.125000
v 0.125000 -0.750000 -0.125000
v 0.125000 0.000000 -0.125000
vn 1.0000 -0.0000 -0.0000
vn -0.0000 -0.0000 -1.0000
vn -1.0000 -0.0000 -0.0000
vn -0.0000 -0.0000 1.0000
vn -0.0000 -1.0000 -0.0000
vn -0.0000 1.0000 -0.0000
vt 0.187500 0.000000
vt 0.125000 -0.000000
vt 0.125000 0.187500
vt 0.187500 0.187500
vt 0.250000 -0.000000
vt 0.250000 0.187500
vt 0.062500 0.000000
vt -0.000000 0.000000
vt 0.000000 0.187500
vt 0.062500 0.187500
vt 0.125000 0.375000
vt 0.125000 0.500000
vt 0.187500 0.500000
vt 0.187500 0.375000
vt 0.142857 0.000000
vt 0.142857 0.375000
vt 0.214286 0.375000
vt 0.214286 0.000000
vt 0.285714 0.375000
vt 0.285714 0.000000
vt 0.000000 0.375000
vt 0.071429 0.375000
vt 0.071429 0.000000
vt 0.214286 0.500000
vt 0.142857 0.500000
vt 0.071429 0.500000
s 0
usemtl ArmorDiamond
f 1/1/1 3/2/1 4/3/1 2/4/1
f 3/5/2 7/1/2 8/4/2 4/6/2
f 7/7/3 5/8/3 6/9/3 8/10/3
f 5/2/4 1/7/4 2/10/4 6/3/4
f 3/11/5 1/12/5 5/13/5 7/14/5
f 8/11/6 6/12/6 2/13/6 4/14/6
usemtl Zombie
f 9/15/3 10/16/3 12/17/3 11/18/3
f 11/18/2 12/17/2 16/19/2 15/20/2
f 15/8/1 16/21/1 14/22/1 13/23/1
f 13/15/4 14/16/4 10/22/4 9/23/4
f 11/24/5 15/25/5 13/16/5 9/17/5
f 16/25/6 12/26/6 10/22/6 14/16/6
