# Blender 3.6.4
# www.blender.org
mtllib zombie_armored_body.mtl
o Cube.001
v 0.250000 -0.250000 0.125000
v 0.250000 0.500000 0.125000
v -0.250000 -0.250000 0.125000
v -0.250000 0.500000 0.125000
v 0.250000 -0.250000 -0.125000
v 0.250000 0.500000 -0.125000
v -0.250000 -0.250000 -0.125000
v -0.250000 0.500000 -0.125000
v 0.252500 -0.253750 0.126250
v 0.252500 0.503750 0.126250
v -0.252500 -0.253750 0.126250
v -0.252500 0.503750 0.126250
v 0.252500 -0.253750 -0.126250
v 0.252500 0.503750 -0.126250
v -0.252500 -0.253750 -0.126250
v -0.252500 0.503750 -0.126250
vn -0.0000 -0.0000 1.0000
vn -1.0000 -0.0000 -0.0000
vn -0.0000 -0.0000 -1.0000
vn 1.0000 -0.0000 -0.0000
vn -0.0000 -1.0000 -0.0000
vn -0.0000 1.0000 -0.0000
vt 0.500000 0.000000
vt 0.500000 0.375000
vt 0.357143 0.375000
vt 0.357143 0.000000
vt 0.285714 0.375000
vt 0.285714 0.000000
vt 0.714286 -0.000000
vt 0.714286 0.375000
vt 0.571429 0.375000
vt 0.571429 0.000000
vt 0.642857 0.375000
vt 0.642857 0.500000
vt 0.500000 0.500000
vt 0.357143 0.500000
vt 0.437500 0.031250
vt 0.437500 0.375000
vt 0.312500 0.375000
vt 0.312500 0.031250
vt 0.250000 0.375000
vt 0.250000 0.031250
vt 0.625000 0.031250
vt 0.625000 0.375000
vt 0.500000 0.031250
vt 0.609375 0.750000
vt 0.812500 0.750000
vt 0.812500 1.000000
vt 0.609375 1.000000
vt 0.734375 0.750000
vt 0.734375 1.000000
vt 0.531250 1.000000
vt 0.531250 0.750000
s 0
usemtl Zombie
f 1/1/1 2/2/1 4/3/1 3/4/1
f 3/4/2 4/3/2 8/5/2 7/6/2
f 7/7/3 8/8/3 6/9/3 5/10/3
f 5/10/4 6/9/4 2/2/4 1/1/4
f 3/2/5 7/11/5 5/12/5 1/13/5
f 8/2/6 4/13/6 2/14/6 6/3/6
usemtl ArmorDiamond
f 9/15/1 10/16/1 12/17/1 11/18/1
f 11/18/2 12/17/2 16/19/2 15/20/2
f 15/21/3 16/22/3 14/2/3 13/23/3
f 13/23/4 14/2/4 10/16/4 9/15/4
f 11/24/5 15/25/5 13/26/5 9/27/5
f 16/28/6 12/29/6 10/30/6 14/31/6
