# Blender 3.6.4
# www.blender.org
mtllib zombie_armored_lefthand.mtl
o Cube.003
v 0.000000 -0.625000 0.125000
v -0.001250 0.126563 0.126250
v 0.000000 -0.625000 -0.125000
v -0.001250 0.126563 -0.126250
v 0.250000 -0.625000 0.125000
v 0.251250 0.126563 0.126250
v 0.250000 -0.625000 -0.125000
v 0.251250 0.126563 -0.126250
v -0.001250 -0.189062 0.126250
v -0.001250 0.126563 0.126250
v -0.001250 -0.189063 -0.126250
v -0.001250 0.126563 -0.126250
v 0.251250 -0.189062 0.126250
v 0.251250 0.126563 0.126250
v 0.251250 -0.189063 -0.126250
v 0.251250 0.126563 -0.126250
vn -1.0000 -0.0017 -0.0000
vn -0.0000 -0.0017 -1.0000
vn 1.0000 -0.0017 -0.0000
vn -0.0000 -0.0017 1.0000
vn -0.0000 -1.0000 -0.0000
vn -0.0000 1.0000 -0.0000
vn -1.0000 -0.0000 -0.0000
vn -0.0000 -0.0000 -1.0000
vn 1.0000 -0.0000 -0.0000
vn -0.0000 -0.0000 1.0000
vt 0.857143 0.000000
vt 0.857143 0.375000
vt 0.928571 0.375000
vt 0.928571 0.000000
vt 1.000000 0.375000
vt 1.000000 0.000000
vt 0.714286 0.000000
vt 0.714286 0.375000
vt 0.785714 0.375000
vt 0.785714 0.000000
vt 0.857143 0.500000
vt 0.928571 0.500000
vt 0.785714 0.500000
vt 0.812500 0.218750
vt 0.812500 0.375000
vt 0.750000 0.375000
vt 0.750000 0.218750
vt 0.875000 0.375000
vt 0.875000 0.218750
vt 0.687500 0.375000
vt 0.625000 0.375000
vt 0.625000 0.218750
vt 0.687500 0.218750
vt 0.800000 0.750000
vt 0.900000 0.750000
vt 0.900000 1.000000
vt 0.800000 1.000000
vt 0.687500 0.500000
vt 0.750000 0.500000
s 0
usemtl Zombie.001
f 1/1/1 2/2/1 4/3/1 3/4/1
f 3/4/2 4/3/2 8/5/2 7/6/2
f 7/7/3 8/8/3 6/9/3 5/10/3
f 5/10/4 6/9/4 2/2/4 1/1/4
f 3/11/5 7/12/5 5/3/5 1/2/5
f 8/13/6 4/11/6 2/2/6 6/9/6
usemtl ArmorDiamond.006
f 9/14/7 10/15/7 12/16/7 11/17/7
f 11/14/8 12/15/8 16/18/8 15/19/8
f 15/20/9 16/21/9 14/22/9 13/23/9
f 13/23/10 14/20/10 10/16/10 9/17/10
f 11/24/5 15/25/5 13/26/5 9/27/5
f 16/28/6 12/29/6 10/16/6 14/20/6
