# Blender 3.6.4
# www.blender.org
mtllib armor_quantum.mtl
o Cube.002
v 0.250000 -0.375000 0.125000
v 0.250000 0.375000 0.125000
v -0.250000 -0.375000 0.125000
v -0.250000 0.375000 0.125000
v 0.250000 -0.375000 -0.125000
v 0.250000 0.375000 -0.125000
v -0.250000 -0.375000 -0.125000
v -0.250000 0.375000 -0.125000
v 0.250000 -0.375000 0.125000
v 0.250000 0.375000 0.125000
v -0.250000 -0.375000 0.125000
v -0.250000 0.375000 0.125000
v 0.250000 -0.375000 -0.125000
v 0.250000 0.375000 -0.125000
v -0.250000 -0.375000 -0.125000
v -0.250000 0.375000 -0.125000
vn -0.0000 -0.0000 -1.0000
vn 1.0000 -0.0000 -0.0000
vn -0.0000 -0.0000 1.0000
vn -1.0000 -0.0000 -0.0000
vn -0.0000 1.0000 -0.0000
vn -0.0000 -1.0000 -0.0000
vt 0.300000 0.000000
vt 0.100000 0.000000
vt 0.100000 0.750000
vt 0.300000 0.750000
vt -0.000000 0.000000
vt 0.000000 0.750000
vt 0.600000 0.000000
vt 0.400000 0.000000
vt 0.400000 0.750000
vt 0.600000 0.750000
vt 0.100000 1.000000
vt 0.300000 1.000000
vt 0.500000 0.750000
vt 0.500000 1.000000
s 0
usemtl ArmorQuantum
f 1/1/1 3/2/1 4/3/1 2/4/1
f 3/2/2 7/5/2 8/6/2 4/3/2
f 7/7/3 5/8/3 6/9/3 8/10/3
f 5/8/4 1/1/4 2/4/4 6/9/4
f 3/3/5 1/11/5 5/12/5 7/4/5
f 8/4/6 6/3/6 2/11/6 4/12/6
f 9/1/3 10/4/3 12/3/3 11/2/3
f 11/2/4 12/3/4 16/6/4 15/5/4
f 15/7/1 16/10/1 14/9/1 13/8/1
f 13/8/2 14/9/2 10/4/2 9/1/2
f 11/4/6 15/13/6 13/14/6 9/12/6
f 16/4/5 12/12/5 10/11/5 14/3/5
o Cube.001
v 0.403674 -0.323518 0.125000
v 0.209560 0.400926 0.125000
v 0.403674 -0.323518 -0.125000
v 0.209560 0.400926 -0.125000
v 0.645155 -0.258814 0.125000
v 0.451041 0.465631 0.125000
v 0.645155 -0.258814 -0.125000
v 0.451041 0.465631 -0.125000
v 0.403674 -0.323518 0.125000
v 0.209560 0.400926 0.125000
v 0.403674 -0.323518 -0.125000
v 0.209560 0.400926 -0.125000
v 0.645155 -0.258814 0.125000
v 0.451041 0.465631 0.125000
v 0.645155 -0.258814 -0.125000
v 0.451041 0.465631 -0.125000
vn 0.9659 0.2588 -0.0000
vn -0.0000 -0.0000 1.0000
vn -0.9659 -0.2588 -0.0000
vn -0.0000 -0.0000 -1.0000
vn -0.2588 0.9659 -0.0000
vn 0.2588 -0.9659 -0.0000
vt 0.700000 0.000000
vt 0.600000 0.000000
vt 0.600000 0.750000
vt 0.700000 0.750000
vt 0.900000 0.000000
vt 1.000000 0.000000
vt 1.000000 0.750000
vt 0.900000 0.750000
vt 0.800000 0.000000
vt 0.800000 0.750000
vt 0.800000 1.000000
vt 0.900000 1.000000
vt 0.700000 1.000000
s 0
usemtl ArmorQuantum
f 17/15/7 19/16/7 20/17/7 18/18/7
f 19/19/8 23/20/8 24/21/8 20/22/8
f 23/19/9 21/23/9 22/24/9 24/22/9
f 21/15/10 17/23/10 18/24/10 22/18/10
f 19/24/11 17/25/11 21/26/11 23/22/11
f 24/27/12 22/18/12 18/24/12 20/25/12
f 25/15/9 26/18/9 28/17/9 27/16/9
f 27/19/10 28/22/10 32/21/10 31/20/10
f 31/19/7 32/22/7 30/24/7 29/23/7
f 29/15/8 30/18/8 26/24/8 25/23/8
f 27/24/12 31/22/12 29/26/12 25/25/12
f 32/27/11 28/25/11 26/24/11 30/18/11
o Cube.003
v -0.403674 -0.323518 0.125000
v -0.209560 0.400926 0.125000
v -0.403674 -0.323518 -0.125000
v -0.209560 0.400926 -0.125000
v -0.645155 -0.258814 0.125000
v -0.451041 0.465631 0.125000
v -0.645155 -0.258814 -0.125000
v -0.451041 0.465631 -0.125000
v -0.403674 -0.323518 0.125000
v -0.209560 0.400926 0.125000
v -0.403674 -0.323518 -0.125000
v -0.209560 0.400926 -0.125000
v -0.645155 -0.258814 0.125000
v -0.451041 0.465631 0.125000
v -0.645155 -0.258814 -0.125000
v -0.451041 0.465631 -0.125000
vn 0.9659 -0.2588 -0.0000
vn -0.0000 -0.0000 -1.0000
vn -0.9659 0.2588 -0.0000
vn -0.0000 -0.0000 1.0000
vn -0.2588 -0.9659 -0.0000
vn 0.2588 0.9659 -0.0000
vt 0.700000 0.000000
vt 0.600000 0.000000
vt 0.600000 0.750000
vt 0.700000 0.750000
vt 0.900000 0.000000
vt 1.000000 0.000000
vt 1.000000 0.750000
vt 0.900000 0.750000
vt 0.800000 0.000000
vt 0.800000 0.750000
vt 0.800000 1.000000
vt 0.900000 1.000000
vt 0.700000 1.000000
s 0
usemtl ArmorQuantum
f 33/28/13 35/29/13 36/30/13 34/31/13
f 35/32/14 39/33/14 40/34/14 36/35/14
f 39/32/15 37/36/15 38/37/15 40/35/15
f 37/28/16 33/36/16 34/37/16 38/31/16
f 35/37/17 33/38/17 37/39/17 39/35/17
f 40/40/18 38/31/18 34/37/18 36/38/18
f 41/28/15 42/31/15 44/30/15 43/29/15
f 43/32/16 44/35/16 48/34/16 47/33/16
f 47/32/13 48/35/13 46/37/13 45/36/13
f 45/28/14 46/31/14 42/37/14 41/36/14
f 43/37/18 47/35/18 45/39/18 41/38/18
f 48/40/17 44/38/17 42/37/17 46/31/17
