# Blender 3.6.4
# www.blender.org
mtllib zombie_body.mtl
o Cube.001
v 0.250000 -0.250000 0.125000
v 0.250000 0.500000 0.125000
v -0.250000 -0.250000 0.125000
v -0.250000 0.500000 0.125000
v 0.250000 -0.250000 -0.125000
v 0.250000 0.500000 -0.125000
v -0.250000 -0.250000 -0.125000
v -0.250000 0.500000 -0.125000
vn -0.0000 -0.0000 1.0000
vn -1.0000 -0.0000 -0.0000
vn -0.0000 -0.0000 -1.0000
vn 1.0000 -0.0000 -0.0000
vn -0.0000 -1.0000 -0.0000
vn -0.0000 1.0000 -0.0000
vt 0.500000 0.000000
vt 0.500000 0.375000
vt 0.357143 0.375000
vt 0.357143 0.000000
vt 0.285714 0.375000
vt 0.285714 0.000000
vt 0.714286 -0.000000
vt 0.714286 0.375000
vt 0.571429 0.375000
vt 0.571429 0.000000
vt 0.642857 0.375000
vt 0.642857 0.500000
vt 0.500000 0.500000
vt 0.357143 0.500000
s 0
usemtl Zombie
f 1/1/1 2/2/1 4/3/1 3/4/1
f 3/4/2 4/3/2 8/5/2 7/6/2
f 7/7/3 8/8/3 6/9/3 5/10/3
f 5/10/4 6/9/4 2/2/4 1/1/4
f 3/2/5 7/11/5 5/12/5 1/13/5
f 8/2/6 4/13/6 2/14/6 6/3/6
