# Blender 3.6.4
# www.blender.org
mtllib rpg_lefthand.mtl
o Cube.003
v 0.079247 -0.125000 0.574759
v 0.079247 0.125000 0.574759
v 0.454247 -0.125000 -0.074760
v 0.454247 0.125000 -0.074760
v 0.295753 -0.125000 0.699759
v 0.295753 0.125000 0.699759
v 0.670753 -0.125000 0.050240
v 0.670753 0.125000 0.050240
vn -0.8660 -0.0000 -0.5000
vn 0.5000 -0.0000 -0.8660
vn 0.8660 -0.0000 0.5000
vn -0.5000 -0.0000 0.8660
vn -0.0000 -1.0000 -0.0000
vn -0.0000 1.0000 -0.0000
vt 0.250000 0.000000
vt 0.500000 0.000000
vt 0.500000 0.750000
vt 0.250000 0.750000
vt 0.500000 1.000000
vt 0.250000 1.000000
vt 0.750000 0.750000
vt 1.000000 0.750000
vt 1.000000 0.000000
vt 0.750000 0.000000
vt 0.750000 1.000000
vt 0.000000 0.750000
vt 0.000000 0.000000
s 0
usemtl LeftHand
f 1/1/1 2/2/1 4/3/1 3/4/1
f 3/4/2 4/3/2 8/5/2 7/6/2
f 7/7/3 8/8/3 6/9/3 5/10/3
f 5/3/4 6/7/4 2/11/4 1/5/4
f 3/12/5 7/4/5 5/1/5 1/13/5
f 8/7/6 4/3/6 2/2/6 6/10/6
